%TF.GenerationSoftware,KiCad,Pcbnew,8.0.8-2.fc41*%
%TF.CreationDate,2025-02-01T06:38:28+00:00*%
%TF.ProjectId,small_led_a,736d616c-6c5f-46c6-9564-5f612e6b6963,rev?*%
%TF.SameCoordinates,Original*%
%TF.FileFunction,Drillmap*%
%TF.FilePolarity,Positive*%
%FSLAX45Y45*%
G04 Gerber Fmt 4.5, Leading zero omitted, Abs format (unit mm)*
G04 Created by KiCad (PCBNEW 8.0.8-2.fc41) date 2025-02-01 06:38:28*
%MOMM*%
%LPD*%
G01*
G04 APERTURE LIST*
%ADD10C,0.050000*%
%ADD11C,0.200000*%
%ADD12C,0.100000*%
G04 APERTURE END LIST*
D10*
X6000000Y-5100000D02*
X6000000Y-6500000D01*
X11700000Y-5100000D02*
X6000000Y-5100000D01*
X11700000Y-6500000D02*
X11700000Y-5100000D01*
X6000000Y-6500000D02*
X11700000Y-6500000D01*
D11*
D12*
X6180000Y-5805000D02*
X6210000Y-5835000D01*
X6210000Y-5805000D02*
X6180000Y-5835000D01*
X6195000Y-5335000D02*
X6225000Y-5365000D01*
X6225000Y-5335000D02*
X6195000Y-5365000D01*
X6235000Y-5610000D02*
X6265000Y-5640000D01*
X6265000Y-5610000D02*
X6235000Y-5640000D01*
X6245000Y-6350000D02*
X6275000Y-6380000D01*
X6275000Y-6350000D02*
X6245000Y-6380000D01*
X6325000Y-5705000D02*
X6355000Y-5735000D01*
X6355000Y-5705000D02*
X6325000Y-5735000D01*
X6370000Y-5425000D02*
X6400000Y-5455000D01*
X6400000Y-5425000D02*
X6370000Y-5455000D01*
X6410000Y-5965000D02*
X6440000Y-5995000D01*
X6440000Y-5965000D02*
X6410000Y-5995000D01*
X6418190Y-5545058D02*
X6448190Y-5575058D01*
X6448190Y-5545058D02*
X6418190Y-5575058D01*
X6421655Y-5767500D02*
X6451655Y-5797500D01*
X6451655Y-5767500D02*
X6421655Y-5797500D01*
X6525000Y-5340000D02*
X6555000Y-5370000D01*
X6555000Y-5340000D02*
X6525000Y-5370000D01*
X6545000Y-5607558D02*
X6575000Y-5637558D01*
X6575000Y-5607558D02*
X6545000Y-5637558D01*
X6600895Y-5277500D02*
X6630895Y-5307500D01*
X6630895Y-5277500D02*
X6600895Y-5307500D01*
X6611387Y-5830000D02*
X6641387Y-5860000D01*
X6641387Y-5830000D02*
X6611387Y-5860000D01*
X6623922Y-5620651D02*
X6653922Y-5650651D01*
X6653922Y-5620651D02*
X6623922Y-5650651D01*
X6640000Y-6030000D02*
X6670000Y-6060000D01*
X6670000Y-6030000D02*
X6640000Y-6060000D01*
X6675000Y-5705000D02*
X6705000Y-5735000D01*
X6705000Y-5705000D02*
X6675000Y-5735000D01*
X6727431Y-5409697D02*
X6757431Y-5439697D01*
X6757431Y-5409697D02*
X6727431Y-5439697D01*
X6768148Y-5545043D02*
X6798148Y-5575043D01*
X6798148Y-5545043D02*
X6768148Y-5575043D01*
X6770000Y-5965000D02*
X6800000Y-5995000D01*
X6800000Y-5965000D02*
X6770000Y-5995000D01*
X6771833Y-5767500D02*
X6801833Y-5797500D01*
X6801833Y-5767500D02*
X6771833Y-5797500D01*
X6780000Y-5265000D02*
X6810000Y-5295000D01*
X6810000Y-5265000D02*
X6780000Y-5295000D01*
X6870000Y-5340000D02*
X6900000Y-5370000D01*
X6900000Y-5340000D02*
X6870000Y-5370000D01*
X6880000Y-5610000D02*
X6910000Y-5640000D01*
X6910000Y-5610000D02*
X6880000Y-5640000D01*
X6900000Y-6405000D02*
X6930000Y-6435000D01*
X6930000Y-6405000D02*
X6900000Y-6435000D01*
X6955000Y-5277500D02*
X6985000Y-5307500D01*
X6985000Y-5277500D02*
X6955000Y-5307500D01*
X6960000Y-5625000D02*
X6990000Y-5655000D01*
X6990000Y-5625000D02*
X6960000Y-5655000D01*
X6990000Y-6027500D02*
X7020000Y-6057500D01*
X7020000Y-6027500D02*
X6990000Y-6057500D01*
X7005000Y-5830000D02*
X7035000Y-5860000D01*
X7035000Y-5830000D02*
X7005000Y-5860000D01*
X7030000Y-5705000D02*
X7060000Y-5735000D01*
X7060000Y-5705000D02*
X7030000Y-5735000D01*
X7079195Y-5409605D02*
X7109195Y-5439605D01*
X7109195Y-5409605D02*
X7079195Y-5439605D01*
X7085000Y-6090000D02*
X7115000Y-6120000D01*
X7115000Y-6090000D02*
X7085000Y-6120000D01*
X7118019Y-5543577D02*
X7148019Y-5573577D01*
X7148019Y-5543577D02*
X7118019Y-5573577D01*
X7122206Y-5767500D02*
X7152206Y-5797500D01*
X7152206Y-5767500D02*
X7122206Y-5797500D01*
X7130000Y-5965000D02*
X7160000Y-5995000D01*
X7160000Y-5965000D02*
X7130000Y-5995000D01*
X7185000Y-5835113D02*
X7215000Y-5865113D01*
X7215000Y-5835113D02*
X7185000Y-5865113D01*
X7230000Y-5340000D02*
X7260000Y-5370000D01*
X7260000Y-5340000D02*
X7230000Y-5370000D01*
X7230000Y-5610000D02*
X7260000Y-5640000D01*
X7260000Y-5610000D02*
X7230000Y-5640000D01*
X7320000Y-5628500D02*
X7350000Y-5658500D01*
X7350000Y-5628500D02*
X7320000Y-5658500D01*
X7325000Y-5845000D02*
X7355000Y-5875000D01*
X7355000Y-5845000D02*
X7325000Y-5875000D01*
X7330000Y-5265000D02*
X7360000Y-5295000D01*
X7360000Y-5265000D02*
X7330000Y-5295000D01*
X7330000Y-6027500D02*
X7360000Y-6057500D01*
X7360000Y-6027500D02*
X7330000Y-6057500D01*
X7375000Y-5705000D02*
X7405000Y-5735000D01*
X7405000Y-5705000D02*
X7375000Y-5735000D01*
X7390000Y-6170000D02*
X7420000Y-6200000D01*
X7420000Y-6170000D02*
X7390000Y-6200000D01*
X7430000Y-5425000D02*
X7460000Y-5455000D01*
X7460000Y-5425000D02*
X7430000Y-5455000D01*
X7468786Y-5550035D02*
X7498786Y-5580035D01*
X7498786Y-5550035D02*
X7468786Y-5580035D01*
X7471833Y-5767500D02*
X7501833Y-5797500D01*
X7501833Y-5767500D02*
X7471833Y-5797500D01*
X7475000Y-5975000D02*
X7505000Y-6005000D01*
X7505000Y-5975000D02*
X7475000Y-6005000D01*
X7560000Y-5345000D02*
X7590000Y-5375000D01*
X7590000Y-5345000D02*
X7560000Y-5375000D01*
X7570000Y-6110000D02*
X7600000Y-6140000D01*
X7600000Y-6110000D02*
X7570000Y-6140000D01*
X7615000Y-6215000D02*
X7645000Y-6245000D01*
X7645000Y-6215000D02*
X7615000Y-6245000D01*
X7660000Y-5612535D02*
X7690000Y-5642535D01*
X7690000Y-5612535D02*
X7660000Y-5642535D01*
X7675000Y-5280000D02*
X7705000Y-5310000D01*
X7705000Y-5280000D02*
X7675000Y-5310000D01*
X7695000Y-6037500D02*
X7725000Y-6067500D01*
X7725000Y-6037500D02*
X7695000Y-6067500D01*
X7725000Y-5830000D02*
X7755000Y-5860000D01*
X7755000Y-5830000D02*
X7725000Y-5860000D01*
X7730000Y-5705000D02*
X7760000Y-5735000D01*
X7760000Y-5705000D02*
X7730000Y-5735000D01*
X7786699Y-5410386D02*
X7816699Y-5440386D01*
X7816699Y-5410386D02*
X7786699Y-5440386D01*
X7790000Y-6115000D02*
X7820000Y-6145000D01*
X7820000Y-6115000D02*
X7790000Y-6145000D01*
X7820000Y-5980000D02*
X7850000Y-6010000D01*
X7850000Y-5980000D02*
X7820000Y-6010000D01*
X7820134Y-5544366D02*
X7850134Y-5574366D01*
X7850134Y-5544366D02*
X7820134Y-5574366D01*
X7823655Y-5767500D02*
X7853655Y-5797500D01*
X7853655Y-5767500D02*
X7823655Y-5797500D01*
X7910000Y-6130000D02*
X7940000Y-6160000D01*
X7940000Y-6130000D02*
X7910000Y-6160000D01*
X7915000Y-5345000D02*
X7945000Y-5375000D01*
X7945000Y-5345000D02*
X7915000Y-5375000D01*
X8005000Y-5606866D02*
X8035000Y-5636866D01*
X8035000Y-5606866D02*
X8005000Y-5636866D01*
X8035000Y-5275000D02*
X8065000Y-5305000D01*
X8065000Y-5275000D02*
X8035000Y-5305000D01*
X8035000Y-6042500D02*
X8065000Y-6072500D01*
X8065000Y-6042500D02*
X8035000Y-6072500D01*
X8050000Y-6165000D02*
X8080000Y-6195000D01*
X8080000Y-6165000D02*
X8050000Y-6195000D01*
X8080000Y-5705000D02*
X8110000Y-5735000D01*
X8110000Y-5705000D02*
X8080000Y-5735000D01*
X8080000Y-5830000D02*
X8110000Y-5860000D01*
X8110000Y-5830000D02*
X8080000Y-5860000D01*
X8139567Y-5410816D02*
X8169567Y-5440816D01*
X8169567Y-5410816D02*
X8139567Y-5440816D01*
X8170000Y-6105000D02*
X8200000Y-6135000D01*
X8200000Y-6105000D02*
X8170000Y-6135000D01*
X8173069Y-5543826D02*
X8203069Y-5573826D01*
X8203069Y-5543826D02*
X8173069Y-5573826D01*
X8175000Y-5980000D02*
X8205000Y-6010000D01*
X8205000Y-5980000D02*
X8175000Y-6010000D01*
X8176833Y-5767500D02*
X8206833Y-5797500D01*
X8206833Y-5767500D02*
X8176833Y-5797500D01*
X8240000Y-6200000D02*
X8270000Y-6230000D01*
X8270000Y-6200000D02*
X8240000Y-6230000D01*
X8270000Y-5340000D02*
X8300000Y-5370000D01*
X8300000Y-5340000D02*
X8270000Y-5370000D01*
X8370000Y-5606326D02*
X8400000Y-5636326D01*
X8400000Y-5606326D02*
X8370000Y-5636326D01*
X8385000Y-6042500D02*
X8415000Y-6072500D01*
X8415000Y-6042500D02*
X8385000Y-6072500D01*
X8390000Y-5265000D02*
X8420000Y-5295000D01*
X8420000Y-5265000D02*
X8390000Y-5295000D01*
X8410000Y-5825000D02*
X8440000Y-5855000D01*
X8440000Y-5825000D02*
X8410000Y-5855000D01*
X8435000Y-5700000D02*
X8465000Y-5730000D01*
X8465000Y-5700000D02*
X8435000Y-5730000D01*
X8484697Y-5407775D02*
X8514697Y-5437775D01*
X8514697Y-5407775D02*
X8484697Y-5437775D01*
X8523000Y-5539112D02*
X8553000Y-5569112D01*
X8553000Y-5539112D02*
X8523000Y-5569112D01*
X8525000Y-5980000D02*
X8555000Y-6010000D01*
X8555000Y-5980000D02*
X8525000Y-6010000D01*
X8528712Y-5762500D02*
X8558712Y-5792500D01*
X8558712Y-5762500D02*
X8528712Y-5792500D01*
X8613000Y-5340000D02*
X8643000Y-5370000D01*
X8643000Y-5340000D02*
X8613000Y-5370000D01*
X8614306Y-6215694D02*
X8644306Y-6245694D01*
X8644306Y-6215694D02*
X8614306Y-6245694D01*
X8710000Y-5601611D02*
X8740000Y-5631611D01*
X8740000Y-5601611D02*
X8710000Y-5631611D01*
X8725000Y-5265000D02*
X8755000Y-5295000D01*
X8755000Y-5265000D02*
X8725000Y-5295000D01*
X8745000Y-6042500D02*
X8775000Y-6072500D01*
X8775000Y-6042500D02*
X8745000Y-6072500D01*
X8775000Y-5830000D02*
X8805000Y-5860000D01*
X8805000Y-5830000D02*
X8775000Y-5860000D01*
X8790000Y-5705000D02*
X8820000Y-5735000D01*
X8820000Y-5705000D02*
X8790000Y-5735000D01*
X8832448Y-5409687D02*
X8862448Y-5439687D01*
X8862448Y-5409687D02*
X8832448Y-5439687D01*
X8873000Y-5537622D02*
X8903000Y-5567622D01*
X8903000Y-5537622D02*
X8873000Y-5567622D01*
X8876833Y-5767500D02*
X8906833Y-5797500D01*
X8906833Y-5767500D02*
X8876833Y-5797500D01*
X8880000Y-5985000D02*
X8910000Y-6015000D01*
X8910000Y-5985000D02*
X8880000Y-6015000D01*
X8965000Y-5340000D02*
X8995000Y-5370000D01*
X8995000Y-5340000D02*
X8965000Y-5370000D01*
X9055000Y-5605000D02*
X9085000Y-5635000D01*
X9085000Y-5605000D02*
X9055000Y-5635000D01*
X9080000Y-5270000D02*
X9110000Y-5300000D01*
X9110000Y-5270000D02*
X9080000Y-5300000D01*
X9090000Y-6047500D02*
X9120000Y-6077500D01*
X9120000Y-6047500D02*
X9090000Y-6077500D01*
X9135000Y-5700000D02*
X9165000Y-5730000D01*
X9165000Y-5700000D02*
X9135000Y-5730000D01*
X9140000Y-5825000D02*
X9170000Y-5855000D01*
X9170000Y-5825000D02*
X9140000Y-5855000D01*
X9187119Y-5411178D02*
X9217119Y-5441178D01*
X9217119Y-5411178D02*
X9187119Y-5441178D01*
X9223000Y-5537246D02*
X9253000Y-5567246D01*
X9253000Y-5537246D02*
X9223000Y-5567246D01*
X9225000Y-5980000D02*
X9255000Y-6010000D01*
X9255000Y-5980000D02*
X9225000Y-6010000D01*
X9229854Y-5762500D02*
X9259854Y-5792500D01*
X9259854Y-5762500D02*
X9229854Y-5792500D01*
X9315000Y-5340000D02*
X9345000Y-5370000D01*
X9345000Y-5340000D02*
X9315000Y-5370000D01*
X9410000Y-5600000D02*
X9440000Y-5630000D01*
X9440000Y-5600000D02*
X9410000Y-5630000D01*
X9440000Y-5265000D02*
X9470000Y-5295000D01*
X9470000Y-5265000D02*
X9440000Y-5295000D01*
X9440000Y-6042500D02*
X9470000Y-6072500D01*
X9470000Y-6042500D02*
X9440000Y-6072500D01*
X9475000Y-5830000D02*
X9505000Y-5860000D01*
X9505000Y-5830000D02*
X9475000Y-5860000D01*
X9480000Y-5705000D02*
X9510000Y-5735000D01*
X9510000Y-5705000D02*
X9480000Y-5735000D01*
X9535000Y-5415000D02*
X9565000Y-5445000D01*
X9565000Y-5415000D02*
X9535000Y-5445000D01*
X9573042Y-5547739D02*
X9603042Y-5577739D01*
X9603042Y-5547739D02*
X9573042Y-5577739D01*
X9578712Y-5767500D02*
X9608712Y-5797500D01*
X9608712Y-5767500D02*
X9578712Y-5797500D01*
X9580000Y-5980000D02*
X9610000Y-6010000D01*
X9610000Y-5980000D02*
X9580000Y-6010000D01*
X9670000Y-5340000D02*
X9700000Y-5370000D01*
X9700000Y-5340000D02*
X9670000Y-5370000D01*
X9770000Y-5610239D02*
X9800000Y-5640239D01*
X9800000Y-5610239D02*
X9770000Y-5640239D01*
X9795000Y-5270000D02*
X9825000Y-5300000D01*
X9825000Y-5270000D02*
X9795000Y-5300000D01*
X9795000Y-6042500D02*
X9825000Y-6072500D01*
X9825000Y-6042500D02*
X9795000Y-6072500D01*
X9820000Y-5827500D02*
X9850000Y-5857500D01*
X9850000Y-5827500D02*
X9820000Y-5857500D01*
X9830000Y-5702500D02*
X9860000Y-5732500D01*
X9860000Y-5702500D02*
X9830000Y-5732500D01*
X9885000Y-5415000D02*
X9915000Y-5445000D01*
X9915000Y-5415000D02*
X9885000Y-5445000D01*
X9923000Y-5545912D02*
X9953000Y-5575912D01*
X9953000Y-5545912D02*
X9923000Y-5575912D01*
X9930000Y-5980000D02*
X9960000Y-6010000D01*
X9960000Y-5980000D02*
X9930000Y-6010000D01*
X9930267Y-5765000D02*
X9960267Y-5795000D01*
X9960267Y-5765000D02*
X9930267Y-5795000D01*
X10013000Y-5345975D02*
X10043000Y-5375975D01*
X10043000Y-5345975D02*
X10013000Y-5375975D01*
X10125000Y-5608411D02*
X10155000Y-5638411D01*
X10155000Y-5608411D02*
X10125000Y-5638411D01*
X10135000Y-5283475D02*
X10165000Y-5313475D01*
X10165000Y-5283475D02*
X10135000Y-5313475D01*
X10135000Y-6050000D02*
X10165000Y-6080000D01*
X10165000Y-6050000D02*
X10135000Y-6080000D01*
X10160000Y-5829250D02*
X10190000Y-5859250D01*
X10190000Y-5829250D02*
X10160000Y-5859250D01*
X10184555Y-5704250D02*
X10214555Y-5734250D01*
X10214555Y-5704250D02*
X10184555Y-5734250D01*
X10231017Y-5417251D02*
X10261017Y-5447251D01*
X10261017Y-5417251D02*
X10231017Y-5447251D01*
X10273000Y-5544912D02*
X10303000Y-5574912D01*
X10303000Y-5544912D02*
X10273000Y-5574912D01*
X10275000Y-5766750D02*
X10305000Y-5796750D01*
X10305000Y-5766750D02*
X10275000Y-5796750D01*
X10280000Y-5975000D02*
X10310000Y-6005000D01*
X10310000Y-5975000D02*
X10280000Y-6005000D01*
X10365000Y-5340000D02*
X10395000Y-5370000D01*
X10395000Y-5340000D02*
X10365000Y-5370000D01*
X10475000Y-5616329D02*
X10505000Y-5646329D01*
X10505000Y-5616329D02*
X10475000Y-5646329D01*
X10485000Y-5277500D02*
X10515000Y-5307500D01*
X10515000Y-5277500D02*
X10485000Y-5307500D01*
X10495000Y-6055000D02*
X10525000Y-6085000D01*
X10525000Y-6055000D02*
X10495000Y-6085000D01*
X10525000Y-5830000D02*
X10555000Y-5860000D01*
X10555000Y-5830000D02*
X10525000Y-5860000D01*
X10535000Y-5705000D02*
X10565000Y-5735000D01*
X10565000Y-5705000D02*
X10535000Y-5735000D01*
X10585000Y-5415000D02*
X10615000Y-5445000D01*
X10615000Y-5415000D02*
X10585000Y-5445000D01*
X10623347Y-5553829D02*
X10653347Y-5583829D01*
X10653347Y-5553829D02*
X10623347Y-5583829D01*
X10625000Y-5980000D02*
X10655000Y-6010000D01*
X10655000Y-5980000D02*
X10625000Y-6010000D01*
X10629854Y-5767500D02*
X10659854Y-5797500D01*
X10659854Y-5767500D02*
X10629854Y-5797500D01*
X10715000Y-5340000D02*
X10745000Y-5370000D01*
X10745000Y-5340000D02*
X10715000Y-5370000D01*
X10820000Y-5616329D02*
X10850000Y-5646329D01*
X10850000Y-5616329D02*
X10820000Y-5646329D01*
X10835000Y-5275000D02*
X10865000Y-5305000D01*
X10865000Y-5275000D02*
X10835000Y-5305000D01*
X10835000Y-6042500D02*
X10865000Y-6072500D01*
X10865000Y-6042500D02*
X10835000Y-6072500D01*
X10880000Y-5705000D02*
X10910000Y-5735000D01*
X10910000Y-5705000D02*
X10880000Y-5735000D01*
X10880000Y-5830000D02*
X10910000Y-5860000D01*
X10910000Y-5830000D02*
X10880000Y-5860000D01*
X10935998Y-5415480D02*
X10965998Y-5445480D01*
X10965998Y-5415480D02*
X10935998Y-5445480D01*
X10973000Y-5544912D02*
X11003000Y-5574912D01*
X11003000Y-5544912D02*
X10973000Y-5574912D01*
X10975000Y-5980000D02*
X11005000Y-6010000D01*
X11005000Y-5980000D02*
X10975000Y-6010000D01*
X10979854Y-5767500D02*
X11009854Y-5797500D01*
X11009854Y-5767500D02*
X10979854Y-5797500D01*
X11065000Y-5345000D02*
X11095000Y-5375000D01*
X11095000Y-5345000D02*
X11065000Y-5375000D01*
X11160000Y-5610000D02*
X11190000Y-5640000D01*
X11190000Y-5610000D02*
X11160000Y-5640000D01*
X11175000Y-5275000D02*
X11205000Y-5305000D01*
X11205000Y-5275000D02*
X11175000Y-5305000D01*
X11200000Y-6065000D02*
X11230000Y-6095000D01*
X11230000Y-6065000D02*
X11200000Y-6095000D01*
X11215000Y-5830000D02*
X11245000Y-5860000D01*
X11245000Y-5830000D02*
X11215000Y-5860000D01*
X11230000Y-5705000D02*
X11260000Y-5735000D01*
X11260000Y-5705000D02*
X11230000Y-5735000D01*
X11285000Y-5420000D02*
X11315000Y-5450000D01*
X11315000Y-5420000D02*
X11285000Y-5450000D01*
X11323237Y-5552813D02*
X11353237Y-5582813D01*
X11353237Y-5552813D02*
X11323237Y-5582813D01*
X11325000Y-5980000D02*
X11355000Y-6010000D01*
X11355000Y-5980000D02*
X11325000Y-6010000D01*
X11330000Y-5715000D02*
X11360000Y-5745000D01*
X11360000Y-5715000D02*
X11330000Y-5745000D01*
X11413000Y-5350000D02*
X11443000Y-5380000D01*
X11443000Y-5350000D02*
X11413000Y-5380000D01*
X11430000Y-6315000D02*
X11460000Y-6345000D01*
X11460000Y-6315000D02*
X11430000Y-6345000D01*
X11475000Y-5810000D02*
X11505000Y-5840000D01*
X11505000Y-5810000D02*
X11475000Y-5840000D01*
X11530000Y-6065000D02*
X11560000Y-6095000D01*
X11560000Y-6065000D02*
X11530000Y-6095000D01*
X7208500Y-6340000D02*
G75*
G02*
X7143500Y-6340000I-32500J0D01*
G01*
X7143500Y-6340000D02*
G75*
G02*
X7208500Y-6340000I32500J0D01*
G01*
X7335500Y-6340000D02*
G75*
G02*
X7270500Y-6340000I-32500J0D01*
G01*
X7270500Y-6340000D02*
G75*
G02*
X7335500Y-6340000I32500J0D01*
G01*
X7462500Y-6340000D02*
G75*
G02*
X7397500Y-6340000I-32500J0D01*
G01*
X7397500Y-6340000D02*
G75*
G02*
X7462500Y-6340000I32500J0D01*
G01*
X7589500Y-6340000D02*
G75*
G02*
X7524500Y-6340000I-32500J0D01*
G01*
X7524500Y-6340000D02*
G75*
G02*
X7589500Y-6340000I32500J0D01*
G01*
X7716500Y-6340000D02*
G75*
G02*
X7651500Y-6340000I-32500J0D01*
G01*
X7651500Y-6340000D02*
G75*
G02*
X7716500Y-6340000I32500J0D01*
G01*
X7843500Y-6340000D02*
G75*
G02*
X7778500Y-6340000I-32500J0D01*
G01*
X7778500Y-6340000D02*
G75*
G02*
X7843500Y-6340000I32500J0D01*
G01*
X7970500Y-6340000D02*
G75*
G02*
X7905500Y-6340000I-32500J0D01*
G01*
X7905500Y-6340000D02*
G75*
G02*
X7970500Y-6340000I32500J0D01*
G01*
X8097500Y-6340000D02*
G75*
G02*
X8032500Y-6340000I-32500J0D01*
G01*
X8032500Y-6340000D02*
G75*
G02*
X8097500Y-6340000I32500J0D01*
G01*
X8224500Y-6340000D02*
G75*
G02*
X8159500Y-6340000I-32500J0D01*
G01*
X8159500Y-6340000D02*
G75*
G02*
X8224500Y-6340000I32500J0D01*
G01*
X8351500Y-6340000D02*
G75*
G02*
X8286500Y-6340000I-32500J0D01*
G01*
X8286500Y-6340000D02*
G75*
G02*
X8351500Y-6340000I32500J0D01*
G01*
X8478500Y-6340000D02*
G75*
G02*
X8413500Y-6340000I-32500J0D01*
G01*
X8413500Y-6340000D02*
G75*
G02*
X8478500Y-6340000I32500J0D01*
G01*
X8605500Y-6340000D02*
G75*
G02*
X8540500Y-6340000I-32500J0D01*
G01*
X8540500Y-6340000D02*
G75*
G02*
X8605500Y-6340000I32500J0D01*
G01*
X8732500Y-6340000D02*
G75*
G02*
X8667500Y-6340000I-32500J0D01*
G01*
X8667500Y-6340000D02*
G75*
G02*
X8732500Y-6340000I32500J0D01*
G01*
X8859500Y-6340000D02*
G75*
G02*
X8794500Y-6340000I-32500J0D01*
G01*
X8794500Y-6340000D02*
G75*
G02*
X8859500Y-6340000I32500J0D01*
G01*
X8986500Y-6340000D02*
G75*
G02*
X8921500Y-6340000I-32500J0D01*
G01*
X8921500Y-6340000D02*
G75*
G02*
X8986500Y-6340000I32500J0D01*
G01*
X9113500Y-6340000D02*
G75*
G02*
X9048500Y-6340000I-32500J0D01*
G01*
X9048500Y-6340000D02*
G75*
G02*
X9113500Y-6340000I32500J0D01*
G01*
X9240500Y-6340000D02*
G75*
G02*
X9175500Y-6340000I-32500J0D01*
G01*
X9175500Y-6340000D02*
G75*
G02*
X9240500Y-6340000I32500J0D01*
G01*
X9367500Y-6340000D02*
G75*
G02*
X9302500Y-6340000I-32500J0D01*
G01*
X9302500Y-6340000D02*
G75*
G02*
X9367500Y-6340000I32500J0D01*
G01*
X9494500Y-6340000D02*
G75*
G02*
X9429500Y-6340000I-32500J0D01*
G01*
X9429500Y-6340000D02*
G75*
G02*
X9494500Y-6340000I32500J0D01*
G01*
X9621500Y-6340000D02*
G75*
G02*
X9556500Y-6340000I-32500J0D01*
G01*
X9556500Y-6340000D02*
G75*
G02*
X9621500Y-6340000I32500J0D01*
G01*
X9748500Y-6340000D02*
G75*
G02*
X9683500Y-6340000I-32500J0D01*
G01*
X9683500Y-6340000D02*
G75*
G02*
X9748500Y-6340000I32500J0D01*
G01*
X9875500Y-6340000D02*
G75*
G02*
X9810500Y-6340000I-32500J0D01*
G01*
X9810500Y-6340000D02*
G75*
G02*
X9875500Y-6340000I32500J0D01*
G01*
X10002500Y-6340000D02*
G75*
G02*
X9937500Y-6340000I-32500J0D01*
G01*
X9937500Y-6340000D02*
G75*
G02*
X10002500Y-6340000I32500J0D01*
G01*
D11*
X6258277Y-6813984D02*
X6258277Y-6613984D01*
X6258277Y-6613984D02*
X6305896Y-6613984D01*
X6305896Y-6613984D02*
X6334467Y-6623508D01*
X6334467Y-6623508D02*
X6353515Y-6642555D01*
X6353515Y-6642555D02*
X6363039Y-6661603D01*
X6363039Y-6661603D02*
X6372562Y-6699698D01*
X6372562Y-6699698D02*
X6372562Y-6728269D01*
X6372562Y-6728269D02*
X6363039Y-6766365D01*
X6363039Y-6766365D02*
X6353515Y-6785412D01*
X6353515Y-6785412D02*
X6334467Y-6804460D01*
X6334467Y-6804460D02*
X6305896Y-6813984D01*
X6305896Y-6813984D02*
X6258277Y-6813984D01*
X6458277Y-6813984D02*
X6458277Y-6680650D01*
X6458277Y-6718746D02*
X6467801Y-6699698D01*
X6467801Y-6699698D02*
X6477324Y-6690174D01*
X6477324Y-6690174D02*
X6496372Y-6680650D01*
X6496372Y-6680650D02*
X6515420Y-6680650D01*
X6582086Y-6813984D02*
X6582086Y-6680650D01*
X6582086Y-6613984D02*
X6572562Y-6623508D01*
X6572562Y-6623508D02*
X6582086Y-6633031D01*
X6582086Y-6633031D02*
X6591610Y-6623508D01*
X6591610Y-6623508D02*
X6582086Y-6613984D01*
X6582086Y-6613984D02*
X6582086Y-6633031D01*
X6705896Y-6813984D02*
X6686848Y-6804460D01*
X6686848Y-6804460D02*
X6677324Y-6785412D01*
X6677324Y-6785412D02*
X6677324Y-6613984D01*
X6810658Y-6813984D02*
X6791610Y-6804460D01*
X6791610Y-6804460D02*
X6782086Y-6785412D01*
X6782086Y-6785412D02*
X6782086Y-6613984D01*
X7039229Y-6813984D02*
X7039229Y-6613984D01*
X7039229Y-6613984D02*
X7105896Y-6756841D01*
X7105896Y-6756841D02*
X7172562Y-6613984D01*
X7172562Y-6613984D02*
X7172562Y-6813984D01*
X7353515Y-6813984D02*
X7353515Y-6709222D01*
X7353515Y-6709222D02*
X7343991Y-6690174D01*
X7343991Y-6690174D02*
X7324943Y-6680650D01*
X7324943Y-6680650D02*
X7286848Y-6680650D01*
X7286848Y-6680650D02*
X7267801Y-6690174D01*
X7353515Y-6804460D02*
X7334467Y-6813984D01*
X7334467Y-6813984D02*
X7286848Y-6813984D01*
X7286848Y-6813984D02*
X7267801Y-6804460D01*
X7267801Y-6804460D02*
X7258277Y-6785412D01*
X7258277Y-6785412D02*
X7258277Y-6766365D01*
X7258277Y-6766365D02*
X7267801Y-6747317D01*
X7267801Y-6747317D02*
X7286848Y-6737793D01*
X7286848Y-6737793D02*
X7334467Y-6737793D01*
X7334467Y-6737793D02*
X7353515Y-6728269D01*
X7448753Y-6680650D02*
X7448753Y-6880650D01*
X7448753Y-6690174D02*
X7467801Y-6680650D01*
X7467801Y-6680650D02*
X7505896Y-6680650D01*
X7505896Y-6680650D02*
X7524943Y-6690174D01*
X7524943Y-6690174D02*
X7534467Y-6699698D01*
X7534467Y-6699698D02*
X7543991Y-6718746D01*
X7543991Y-6718746D02*
X7543991Y-6775888D01*
X7543991Y-6775888D02*
X7534467Y-6794936D01*
X7534467Y-6794936D02*
X7524943Y-6804460D01*
X7524943Y-6804460D02*
X7505896Y-6813984D01*
X7505896Y-6813984D02*
X7467801Y-6813984D01*
X7467801Y-6813984D02*
X7448753Y-6804460D01*
X7629705Y-6794936D02*
X7639229Y-6804460D01*
X7639229Y-6804460D02*
X7629705Y-6813984D01*
X7629705Y-6813984D02*
X7620182Y-6804460D01*
X7620182Y-6804460D02*
X7629705Y-6794936D01*
X7629705Y-6794936D02*
X7629705Y-6813984D01*
X7629705Y-6690174D02*
X7639229Y-6699698D01*
X7639229Y-6699698D02*
X7629705Y-6709222D01*
X7629705Y-6709222D02*
X7620182Y-6699698D01*
X7620182Y-6699698D02*
X7629705Y-6690174D01*
X7629705Y-6690174D02*
X7629705Y-6709222D01*
D12*
X5967500Y-7127500D02*
X5997500Y-7157500D01*
X5997500Y-7127500D02*
X5967500Y-7157500D01*
D11*
X6296372Y-7033984D02*
X6315420Y-7033984D01*
X6315420Y-7033984D02*
X6334467Y-7043508D01*
X6334467Y-7043508D02*
X6343991Y-7053031D01*
X6343991Y-7053031D02*
X6353515Y-7072079D01*
X6353515Y-7072079D02*
X6363039Y-7110174D01*
X6363039Y-7110174D02*
X6363039Y-7157793D01*
X6363039Y-7157793D02*
X6353515Y-7195888D01*
X6353515Y-7195888D02*
X6343991Y-7214936D01*
X6343991Y-7214936D02*
X6334467Y-7224460D01*
X6334467Y-7224460D02*
X6315420Y-7233984D01*
X6315420Y-7233984D02*
X6296372Y-7233984D01*
X6296372Y-7233984D02*
X6277324Y-7224460D01*
X6277324Y-7224460D02*
X6267801Y-7214936D01*
X6267801Y-7214936D02*
X6258277Y-7195888D01*
X6258277Y-7195888D02*
X6248753Y-7157793D01*
X6248753Y-7157793D02*
X6248753Y-7110174D01*
X6248753Y-7110174D02*
X6258277Y-7072079D01*
X6258277Y-7072079D02*
X6267801Y-7053031D01*
X6267801Y-7053031D02*
X6277324Y-7043508D01*
X6277324Y-7043508D02*
X6296372Y-7033984D01*
X6448753Y-7214936D02*
X6458277Y-7224460D01*
X6458277Y-7224460D02*
X6448753Y-7233984D01*
X6448753Y-7233984D02*
X6439229Y-7224460D01*
X6439229Y-7224460D02*
X6448753Y-7214936D01*
X6448753Y-7214936D02*
X6448753Y-7233984D01*
X6524943Y-7033984D02*
X6648753Y-7033984D01*
X6648753Y-7033984D02*
X6582086Y-7110174D01*
X6582086Y-7110174D02*
X6610658Y-7110174D01*
X6610658Y-7110174D02*
X6629705Y-7119698D01*
X6629705Y-7119698D02*
X6639229Y-7129222D01*
X6639229Y-7129222D02*
X6648753Y-7148269D01*
X6648753Y-7148269D02*
X6648753Y-7195888D01*
X6648753Y-7195888D02*
X6639229Y-7214936D01*
X6639229Y-7214936D02*
X6629705Y-7224460D01*
X6629705Y-7224460D02*
X6610658Y-7233984D01*
X6610658Y-7233984D02*
X6553515Y-7233984D01*
X6553515Y-7233984D02*
X6534467Y-7224460D01*
X6534467Y-7224460D02*
X6524943Y-7214936D01*
X6772562Y-7033984D02*
X6791610Y-7033984D01*
X6791610Y-7033984D02*
X6810658Y-7043508D01*
X6810658Y-7043508D02*
X6820182Y-7053031D01*
X6820182Y-7053031D02*
X6829705Y-7072079D01*
X6829705Y-7072079D02*
X6839229Y-7110174D01*
X6839229Y-7110174D02*
X6839229Y-7157793D01*
X6839229Y-7157793D02*
X6829705Y-7195888D01*
X6829705Y-7195888D02*
X6820182Y-7214936D01*
X6820182Y-7214936D02*
X6810658Y-7224460D01*
X6810658Y-7224460D02*
X6791610Y-7233984D01*
X6791610Y-7233984D02*
X6772562Y-7233984D01*
X6772562Y-7233984D02*
X6753515Y-7224460D01*
X6753515Y-7224460D02*
X6743991Y-7214936D01*
X6743991Y-7214936D02*
X6734467Y-7195888D01*
X6734467Y-7195888D02*
X6724943Y-7157793D01*
X6724943Y-7157793D02*
X6724943Y-7110174D01*
X6724943Y-7110174D02*
X6734467Y-7072079D01*
X6734467Y-7072079D02*
X6743991Y-7053031D01*
X6743991Y-7053031D02*
X6753515Y-7043508D01*
X6753515Y-7043508D02*
X6772562Y-7033984D01*
X6963039Y-7033984D02*
X6982086Y-7033984D01*
X6982086Y-7033984D02*
X7001134Y-7043508D01*
X7001134Y-7043508D02*
X7010658Y-7053031D01*
X7010658Y-7053031D02*
X7020182Y-7072079D01*
X7020182Y-7072079D02*
X7029705Y-7110174D01*
X7029705Y-7110174D02*
X7029705Y-7157793D01*
X7029705Y-7157793D02*
X7020182Y-7195888D01*
X7020182Y-7195888D02*
X7010658Y-7214936D01*
X7010658Y-7214936D02*
X7001134Y-7224460D01*
X7001134Y-7224460D02*
X6982086Y-7233984D01*
X6982086Y-7233984D02*
X6963039Y-7233984D01*
X6963039Y-7233984D02*
X6943991Y-7224460D01*
X6943991Y-7224460D02*
X6934467Y-7214936D01*
X6934467Y-7214936D02*
X6924943Y-7195888D01*
X6924943Y-7195888D02*
X6915420Y-7157793D01*
X6915420Y-7157793D02*
X6915420Y-7110174D01*
X6915420Y-7110174D02*
X6924943Y-7072079D01*
X6924943Y-7072079D02*
X6934467Y-7053031D01*
X6934467Y-7053031D02*
X6943991Y-7043508D01*
X6943991Y-7043508D02*
X6963039Y-7033984D01*
X7115420Y-7233984D02*
X7115420Y-7100650D01*
X7115420Y-7119698D02*
X7124943Y-7110174D01*
X7124943Y-7110174D02*
X7143991Y-7100650D01*
X7143991Y-7100650D02*
X7172563Y-7100650D01*
X7172563Y-7100650D02*
X7191610Y-7110174D01*
X7191610Y-7110174D02*
X7201134Y-7129222D01*
X7201134Y-7129222D02*
X7201134Y-7233984D01*
X7201134Y-7129222D02*
X7210658Y-7110174D01*
X7210658Y-7110174D02*
X7229705Y-7100650D01*
X7229705Y-7100650D02*
X7258277Y-7100650D01*
X7258277Y-7100650D02*
X7277324Y-7110174D01*
X7277324Y-7110174D02*
X7286848Y-7129222D01*
X7286848Y-7129222D02*
X7286848Y-7233984D01*
X7382086Y-7233984D02*
X7382086Y-7100650D01*
X7382086Y-7119698D02*
X7391610Y-7110174D01*
X7391610Y-7110174D02*
X7410658Y-7100650D01*
X7410658Y-7100650D02*
X7439229Y-7100650D01*
X7439229Y-7100650D02*
X7458277Y-7110174D01*
X7458277Y-7110174D02*
X7467801Y-7129222D01*
X7467801Y-7129222D02*
X7467801Y-7233984D01*
X7467801Y-7129222D02*
X7477324Y-7110174D01*
X7477324Y-7110174D02*
X7496372Y-7100650D01*
X7496372Y-7100650D02*
X7524943Y-7100650D01*
X7524943Y-7100650D02*
X7543991Y-7110174D01*
X7543991Y-7110174D02*
X7553515Y-7129222D01*
X7553515Y-7129222D02*
X7553515Y-7233984D01*
X7943991Y-7024460D02*
X7772563Y-7281603D01*
X8201134Y-7033984D02*
X8220182Y-7033984D01*
X8220182Y-7033984D02*
X8239229Y-7043508D01*
X8239229Y-7043508D02*
X8248753Y-7053031D01*
X8248753Y-7053031D02*
X8258277Y-7072079D01*
X8258277Y-7072079D02*
X8267801Y-7110174D01*
X8267801Y-7110174D02*
X8267801Y-7157793D01*
X8267801Y-7157793D02*
X8258277Y-7195888D01*
X8258277Y-7195888D02*
X8248753Y-7214936D01*
X8248753Y-7214936D02*
X8239229Y-7224460D01*
X8239229Y-7224460D02*
X8220182Y-7233984D01*
X8220182Y-7233984D02*
X8201134Y-7233984D01*
X8201134Y-7233984D02*
X8182086Y-7224460D01*
X8182086Y-7224460D02*
X8172563Y-7214936D01*
X8172563Y-7214936D02*
X8163039Y-7195888D01*
X8163039Y-7195888D02*
X8153515Y-7157793D01*
X8153515Y-7157793D02*
X8153515Y-7110174D01*
X8153515Y-7110174D02*
X8163039Y-7072079D01*
X8163039Y-7072079D02*
X8172563Y-7053031D01*
X8172563Y-7053031D02*
X8182086Y-7043508D01*
X8182086Y-7043508D02*
X8201134Y-7033984D01*
X8353515Y-7214936D02*
X8363039Y-7224460D01*
X8363039Y-7224460D02*
X8353515Y-7233984D01*
X8353515Y-7233984D02*
X8343991Y-7224460D01*
X8343991Y-7224460D02*
X8353515Y-7214936D01*
X8353515Y-7214936D02*
X8353515Y-7233984D01*
X8486848Y-7033984D02*
X8505896Y-7033984D01*
X8505896Y-7033984D02*
X8524944Y-7043508D01*
X8524944Y-7043508D02*
X8534468Y-7053031D01*
X8534468Y-7053031D02*
X8543991Y-7072079D01*
X8543991Y-7072079D02*
X8553515Y-7110174D01*
X8553515Y-7110174D02*
X8553515Y-7157793D01*
X8553515Y-7157793D02*
X8543991Y-7195888D01*
X8543991Y-7195888D02*
X8534468Y-7214936D01*
X8534468Y-7214936D02*
X8524944Y-7224460D01*
X8524944Y-7224460D02*
X8505896Y-7233984D01*
X8505896Y-7233984D02*
X8486848Y-7233984D01*
X8486848Y-7233984D02*
X8467801Y-7224460D01*
X8467801Y-7224460D02*
X8458277Y-7214936D01*
X8458277Y-7214936D02*
X8448753Y-7195888D01*
X8448753Y-7195888D02*
X8439229Y-7157793D01*
X8439229Y-7157793D02*
X8439229Y-7110174D01*
X8439229Y-7110174D02*
X8448753Y-7072079D01*
X8448753Y-7072079D02*
X8458277Y-7053031D01*
X8458277Y-7053031D02*
X8467801Y-7043508D01*
X8467801Y-7043508D02*
X8486848Y-7033984D01*
X8743991Y-7233984D02*
X8629706Y-7233984D01*
X8686848Y-7233984D02*
X8686848Y-7033984D01*
X8686848Y-7033984D02*
X8667801Y-7062555D01*
X8667801Y-7062555D02*
X8648753Y-7081603D01*
X8648753Y-7081603D02*
X8629706Y-7091127D01*
X8934468Y-7233984D02*
X8820182Y-7233984D01*
X8877325Y-7233984D02*
X8877325Y-7033984D01*
X8877325Y-7033984D02*
X8858277Y-7062555D01*
X8858277Y-7062555D02*
X8839229Y-7081603D01*
X8839229Y-7081603D02*
X8820182Y-7091127D01*
X9048753Y-7119698D02*
X9029706Y-7110174D01*
X9029706Y-7110174D02*
X9020182Y-7100650D01*
X9020182Y-7100650D02*
X9010658Y-7081603D01*
X9010658Y-7081603D02*
X9010658Y-7072079D01*
X9010658Y-7072079D02*
X9020182Y-7053031D01*
X9020182Y-7053031D02*
X9029706Y-7043508D01*
X9029706Y-7043508D02*
X9048753Y-7033984D01*
X9048753Y-7033984D02*
X9086849Y-7033984D01*
X9086849Y-7033984D02*
X9105896Y-7043508D01*
X9105896Y-7043508D02*
X9115420Y-7053031D01*
X9115420Y-7053031D02*
X9124944Y-7072079D01*
X9124944Y-7072079D02*
X9124944Y-7081603D01*
X9124944Y-7081603D02*
X9115420Y-7100650D01*
X9115420Y-7100650D02*
X9105896Y-7110174D01*
X9105896Y-7110174D02*
X9086849Y-7119698D01*
X9086849Y-7119698D02*
X9048753Y-7119698D01*
X9048753Y-7119698D02*
X9029706Y-7129222D01*
X9029706Y-7129222D02*
X9020182Y-7138746D01*
X9020182Y-7138746D02*
X9010658Y-7157793D01*
X9010658Y-7157793D02*
X9010658Y-7195888D01*
X9010658Y-7195888D02*
X9020182Y-7214936D01*
X9020182Y-7214936D02*
X9029706Y-7224460D01*
X9029706Y-7224460D02*
X9048753Y-7233984D01*
X9048753Y-7233984D02*
X9086849Y-7233984D01*
X9086849Y-7233984D02*
X9105896Y-7224460D01*
X9105896Y-7224460D02*
X9115420Y-7214936D01*
X9115420Y-7214936D02*
X9124944Y-7195888D01*
X9124944Y-7195888D02*
X9124944Y-7157793D01*
X9124944Y-7157793D02*
X9115420Y-7138746D01*
X9115420Y-7138746D02*
X9105896Y-7129222D01*
X9105896Y-7129222D02*
X9086849Y-7119698D01*
X9201134Y-7033984D02*
X9201134Y-7072079D01*
X9277325Y-7033984D02*
X9277325Y-7072079D01*
X9572563Y-7310174D02*
X9563039Y-7300650D01*
X9563039Y-7300650D02*
X9543991Y-7272079D01*
X9543991Y-7272079D02*
X9534468Y-7253031D01*
X9534468Y-7253031D02*
X9524944Y-7224460D01*
X9524944Y-7224460D02*
X9515420Y-7176841D01*
X9515420Y-7176841D02*
X9515420Y-7138746D01*
X9515420Y-7138746D02*
X9524944Y-7091127D01*
X9524944Y-7091127D02*
X9534468Y-7062555D01*
X9534468Y-7062555D02*
X9543991Y-7043508D01*
X9543991Y-7043508D02*
X9563039Y-7014936D01*
X9563039Y-7014936D02*
X9572563Y-7005412D01*
X9753515Y-7233984D02*
X9639230Y-7233984D01*
X9696372Y-7233984D02*
X9696372Y-7033984D01*
X9696372Y-7033984D02*
X9677325Y-7062555D01*
X9677325Y-7062555D02*
X9658277Y-7081603D01*
X9658277Y-7081603D02*
X9639230Y-7091127D01*
X9924944Y-7033984D02*
X9886849Y-7033984D01*
X9886849Y-7033984D02*
X9867801Y-7043508D01*
X9867801Y-7043508D02*
X9858277Y-7053031D01*
X9858277Y-7053031D02*
X9839230Y-7081603D01*
X9839230Y-7081603D02*
X9829706Y-7119698D01*
X9829706Y-7119698D02*
X9829706Y-7195888D01*
X9829706Y-7195888D02*
X9839230Y-7214936D01*
X9839230Y-7214936D02*
X9848753Y-7224460D01*
X9848753Y-7224460D02*
X9867801Y-7233984D01*
X9867801Y-7233984D02*
X9905896Y-7233984D01*
X9905896Y-7233984D02*
X9924944Y-7224460D01*
X9924944Y-7224460D02*
X9934468Y-7214936D01*
X9934468Y-7214936D02*
X9943991Y-7195888D01*
X9943991Y-7195888D02*
X9943991Y-7148269D01*
X9943991Y-7148269D02*
X9934468Y-7129222D01*
X9934468Y-7129222D02*
X9924944Y-7119698D01*
X9924944Y-7119698D02*
X9905896Y-7110174D01*
X9905896Y-7110174D02*
X9867801Y-7110174D01*
X9867801Y-7110174D02*
X9848753Y-7119698D01*
X9848753Y-7119698D02*
X9839230Y-7129222D01*
X9839230Y-7129222D02*
X9829706Y-7148269D01*
X10039230Y-7233984D02*
X10077325Y-7233984D01*
X10077325Y-7233984D02*
X10096372Y-7224460D01*
X10096372Y-7224460D02*
X10105896Y-7214936D01*
X10105896Y-7214936D02*
X10124944Y-7186365D01*
X10124944Y-7186365D02*
X10134468Y-7148269D01*
X10134468Y-7148269D02*
X10134468Y-7072079D01*
X10134468Y-7072079D02*
X10124944Y-7053031D01*
X10124944Y-7053031D02*
X10115420Y-7043508D01*
X10115420Y-7043508D02*
X10096372Y-7033984D01*
X10096372Y-7033984D02*
X10058277Y-7033984D01*
X10058277Y-7033984D02*
X10039230Y-7043508D01*
X10039230Y-7043508D02*
X10029706Y-7053031D01*
X10029706Y-7053031D02*
X10020182Y-7072079D01*
X10020182Y-7072079D02*
X10020182Y-7119698D01*
X10020182Y-7119698D02*
X10029706Y-7138746D01*
X10029706Y-7138746D02*
X10039230Y-7148269D01*
X10039230Y-7148269D02*
X10058277Y-7157793D01*
X10058277Y-7157793D02*
X10096372Y-7157793D01*
X10096372Y-7157793D02*
X10115420Y-7148269D01*
X10115420Y-7148269D02*
X10124944Y-7138746D01*
X10124944Y-7138746D02*
X10134468Y-7119698D01*
X10372563Y-7233984D02*
X10372563Y-7033984D01*
X10458277Y-7233984D02*
X10458277Y-7129222D01*
X10458277Y-7129222D02*
X10448753Y-7110174D01*
X10448753Y-7110174D02*
X10429706Y-7100650D01*
X10429706Y-7100650D02*
X10401134Y-7100650D01*
X10401134Y-7100650D02*
X10382087Y-7110174D01*
X10382087Y-7110174D02*
X10372563Y-7119698D01*
X10582087Y-7233984D02*
X10563039Y-7224460D01*
X10563039Y-7224460D02*
X10553515Y-7214936D01*
X10553515Y-7214936D02*
X10543992Y-7195888D01*
X10543992Y-7195888D02*
X10543992Y-7138746D01*
X10543992Y-7138746D02*
X10553515Y-7119698D01*
X10553515Y-7119698D02*
X10563039Y-7110174D01*
X10563039Y-7110174D02*
X10582087Y-7100650D01*
X10582087Y-7100650D02*
X10610658Y-7100650D01*
X10610658Y-7100650D02*
X10629706Y-7110174D01*
X10629706Y-7110174D02*
X10639230Y-7119698D01*
X10639230Y-7119698D02*
X10648753Y-7138746D01*
X10648753Y-7138746D02*
X10648753Y-7195888D01*
X10648753Y-7195888D02*
X10639230Y-7214936D01*
X10639230Y-7214936D02*
X10629706Y-7224460D01*
X10629706Y-7224460D02*
X10610658Y-7233984D01*
X10610658Y-7233984D02*
X10582087Y-7233984D01*
X10763039Y-7233984D02*
X10743992Y-7224460D01*
X10743992Y-7224460D02*
X10734468Y-7205412D01*
X10734468Y-7205412D02*
X10734468Y-7033984D01*
X10915420Y-7224460D02*
X10896373Y-7233984D01*
X10896373Y-7233984D02*
X10858277Y-7233984D01*
X10858277Y-7233984D02*
X10839230Y-7224460D01*
X10839230Y-7224460D02*
X10829706Y-7205412D01*
X10829706Y-7205412D02*
X10829706Y-7129222D01*
X10829706Y-7129222D02*
X10839230Y-7110174D01*
X10839230Y-7110174D02*
X10858277Y-7100650D01*
X10858277Y-7100650D02*
X10896373Y-7100650D01*
X10896373Y-7100650D02*
X10915420Y-7110174D01*
X10915420Y-7110174D02*
X10924944Y-7129222D01*
X10924944Y-7129222D02*
X10924944Y-7148269D01*
X10924944Y-7148269D02*
X10829706Y-7167317D01*
X11001134Y-7224460D02*
X11020182Y-7233984D01*
X11020182Y-7233984D02*
X11058277Y-7233984D01*
X11058277Y-7233984D02*
X11077325Y-7224460D01*
X11077325Y-7224460D02*
X11086849Y-7205412D01*
X11086849Y-7205412D02*
X11086849Y-7195888D01*
X11086849Y-7195888D02*
X11077325Y-7176841D01*
X11077325Y-7176841D02*
X11058277Y-7167317D01*
X11058277Y-7167317D02*
X11029706Y-7167317D01*
X11029706Y-7167317D02*
X11010658Y-7157793D01*
X11010658Y-7157793D02*
X11001134Y-7138746D01*
X11001134Y-7138746D02*
X11001134Y-7129222D01*
X11001134Y-7129222D02*
X11010658Y-7110174D01*
X11010658Y-7110174D02*
X11029706Y-7100650D01*
X11029706Y-7100650D02*
X11058277Y-7100650D01*
X11058277Y-7100650D02*
X11077325Y-7110174D01*
X11153515Y-7310174D02*
X11163039Y-7300650D01*
X11163039Y-7300650D02*
X11182087Y-7272079D01*
X11182087Y-7272079D02*
X11191611Y-7253031D01*
X11191611Y-7253031D02*
X11201134Y-7224460D01*
X11201134Y-7224460D02*
X11210658Y-7176841D01*
X11210658Y-7176841D02*
X11210658Y-7138746D01*
X11210658Y-7138746D02*
X11201134Y-7091127D01*
X11201134Y-7091127D02*
X11191611Y-7062555D01*
X11191611Y-7062555D02*
X11182087Y-7043508D01*
X11182087Y-7043508D02*
X11163039Y-7014936D01*
X11163039Y-7014936D02*
X11153515Y-7005412D01*
D12*
X5997500Y-7406500D02*
G75*
G02*
X5932500Y-7406500I-32500J0D01*
G01*
X5932500Y-7406500D02*
G75*
G02*
X5997500Y-7406500I32500J0D01*
G01*
D11*
X6296372Y-7297984D02*
X6315420Y-7297984D01*
X6315420Y-7297984D02*
X6334467Y-7307508D01*
X6334467Y-7307508D02*
X6343991Y-7317031D01*
X6343991Y-7317031D02*
X6353515Y-7336079D01*
X6353515Y-7336079D02*
X6363039Y-7374174D01*
X6363039Y-7374174D02*
X6363039Y-7421793D01*
X6363039Y-7421793D02*
X6353515Y-7459888D01*
X6353515Y-7459888D02*
X6343991Y-7478936D01*
X6343991Y-7478936D02*
X6334467Y-7488460D01*
X6334467Y-7488460D02*
X6315420Y-7497984D01*
X6315420Y-7497984D02*
X6296372Y-7497984D01*
X6296372Y-7497984D02*
X6277324Y-7488460D01*
X6277324Y-7488460D02*
X6267801Y-7478936D01*
X6267801Y-7478936D02*
X6258277Y-7459888D01*
X6258277Y-7459888D02*
X6248753Y-7421793D01*
X6248753Y-7421793D02*
X6248753Y-7374174D01*
X6248753Y-7374174D02*
X6258277Y-7336079D01*
X6258277Y-7336079D02*
X6267801Y-7317031D01*
X6267801Y-7317031D02*
X6277324Y-7307508D01*
X6277324Y-7307508D02*
X6296372Y-7297984D01*
X6448753Y-7478936D02*
X6458277Y-7488460D01*
X6458277Y-7488460D02*
X6448753Y-7497984D01*
X6448753Y-7497984D02*
X6439229Y-7488460D01*
X6439229Y-7488460D02*
X6448753Y-7478936D01*
X6448753Y-7478936D02*
X6448753Y-7497984D01*
X6629705Y-7297984D02*
X6591610Y-7297984D01*
X6591610Y-7297984D02*
X6572562Y-7307508D01*
X6572562Y-7307508D02*
X6563039Y-7317031D01*
X6563039Y-7317031D02*
X6543991Y-7345603D01*
X6543991Y-7345603D02*
X6534467Y-7383698D01*
X6534467Y-7383698D02*
X6534467Y-7459888D01*
X6534467Y-7459888D02*
X6543991Y-7478936D01*
X6543991Y-7478936D02*
X6553515Y-7488460D01*
X6553515Y-7488460D02*
X6572562Y-7497984D01*
X6572562Y-7497984D02*
X6610658Y-7497984D01*
X6610658Y-7497984D02*
X6629705Y-7488460D01*
X6629705Y-7488460D02*
X6639229Y-7478936D01*
X6639229Y-7478936D02*
X6648753Y-7459888D01*
X6648753Y-7459888D02*
X6648753Y-7412269D01*
X6648753Y-7412269D02*
X6639229Y-7393222D01*
X6639229Y-7393222D02*
X6629705Y-7383698D01*
X6629705Y-7383698D02*
X6610658Y-7374174D01*
X6610658Y-7374174D02*
X6572562Y-7374174D01*
X6572562Y-7374174D02*
X6553515Y-7383698D01*
X6553515Y-7383698D02*
X6543991Y-7393222D01*
X6543991Y-7393222D02*
X6534467Y-7412269D01*
X6829705Y-7297984D02*
X6734467Y-7297984D01*
X6734467Y-7297984D02*
X6724943Y-7393222D01*
X6724943Y-7393222D02*
X6734467Y-7383698D01*
X6734467Y-7383698D02*
X6753515Y-7374174D01*
X6753515Y-7374174D02*
X6801134Y-7374174D01*
X6801134Y-7374174D02*
X6820182Y-7383698D01*
X6820182Y-7383698D02*
X6829705Y-7393222D01*
X6829705Y-7393222D02*
X6839229Y-7412269D01*
X6839229Y-7412269D02*
X6839229Y-7459888D01*
X6839229Y-7459888D02*
X6829705Y-7478936D01*
X6829705Y-7478936D02*
X6820182Y-7488460D01*
X6820182Y-7488460D02*
X6801134Y-7497984D01*
X6801134Y-7497984D02*
X6753515Y-7497984D01*
X6753515Y-7497984D02*
X6734467Y-7488460D01*
X6734467Y-7488460D02*
X6724943Y-7478936D01*
X6963039Y-7297984D02*
X6982086Y-7297984D01*
X6982086Y-7297984D02*
X7001134Y-7307508D01*
X7001134Y-7307508D02*
X7010658Y-7317031D01*
X7010658Y-7317031D02*
X7020182Y-7336079D01*
X7020182Y-7336079D02*
X7029705Y-7374174D01*
X7029705Y-7374174D02*
X7029705Y-7421793D01*
X7029705Y-7421793D02*
X7020182Y-7459888D01*
X7020182Y-7459888D02*
X7010658Y-7478936D01*
X7010658Y-7478936D02*
X7001134Y-7488460D01*
X7001134Y-7488460D02*
X6982086Y-7497984D01*
X6982086Y-7497984D02*
X6963039Y-7497984D01*
X6963039Y-7497984D02*
X6943991Y-7488460D01*
X6943991Y-7488460D02*
X6934467Y-7478936D01*
X6934467Y-7478936D02*
X6924943Y-7459888D01*
X6924943Y-7459888D02*
X6915420Y-7421793D01*
X6915420Y-7421793D02*
X6915420Y-7374174D01*
X6915420Y-7374174D02*
X6924943Y-7336079D01*
X6924943Y-7336079D02*
X6934467Y-7317031D01*
X6934467Y-7317031D02*
X6943991Y-7307508D01*
X6943991Y-7307508D02*
X6963039Y-7297984D01*
X7115420Y-7497984D02*
X7115420Y-7364650D01*
X7115420Y-7383698D02*
X7124943Y-7374174D01*
X7124943Y-7374174D02*
X7143991Y-7364650D01*
X7143991Y-7364650D02*
X7172563Y-7364650D01*
X7172563Y-7364650D02*
X7191610Y-7374174D01*
X7191610Y-7374174D02*
X7201134Y-7393222D01*
X7201134Y-7393222D02*
X7201134Y-7497984D01*
X7201134Y-7393222D02*
X7210658Y-7374174D01*
X7210658Y-7374174D02*
X7229705Y-7364650D01*
X7229705Y-7364650D02*
X7258277Y-7364650D01*
X7258277Y-7364650D02*
X7277324Y-7374174D01*
X7277324Y-7374174D02*
X7286848Y-7393222D01*
X7286848Y-7393222D02*
X7286848Y-7497984D01*
X7382086Y-7497984D02*
X7382086Y-7364650D01*
X7382086Y-7383698D02*
X7391610Y-7374174D01*
X7391610Y-7374174D02*
X7410658Y-7364650D01*
X7410658Y-7364650D02*
X7439229Y-7364650D01*
X7439229Y-7364650D02*
X7458277Y-7374174D01*
X7458277Y-7374174D02*
X7467801Y-7393222D01*
X7467801Y-7393222D02*
X7467801Y-7497984D01*
X7467801Y-7393222D02*
X7477324Y-7374174D01*
X7477324Y-7374174D02*
X7496372Y-7364650D01*
X7496372Y-7364650D02*
X7524943Y-7364650D01*
X7524943Y-7364650D02*
X7543991Y-7374174D01*
X7543991Y-7374174D02*
X7553515Y-7393222D01*
X7553515Y-7393222D02*
X7553515Y-7497984D01*
X7943991Y-7288460D02*
X7772563Y-7545603D01*
X8201134Y-7297984D02*
X8220182Y-7297984D01*
X8220182Y-7297984D02*
X8239229Y-7307508D01*
X8239229Y-7307508D02*
X8248753Y-7317031D01*
X8248753Y-7317031D02*
X8258277Y-7336079D01*
X8258277Y-7336079D02*
X8267801Y-7374174D01*
X8267801Y-7374174D02*
X8267801Y-7421793D01*
X8267801Y-7421793D02*
X8258277Y-7459888D01*
X8258277Y-7459888D02*
X8248753Y-7478936D01*
X8248753Y-7478936D02*
X8239229Y-7488460D01*
X8239229Y-7488460D02*
X8220182Y-7497984D01*
X8220182Y-7497984D02*
X8201134Y-7497984D01*
X8201134Y-7497984D02*
X8182086Y-7488460D01*
X8182086Y-7488460D02*
X8172563Y-7478936D01*
X8172563Y-7478936D02*
X8163039Y-7459888D01*
X8163039Y-7459888D02*
X8153515Y-7421793D01*
X8153515Y-7421793D02*
X8153515Y-7374174D01*
X8153515Y-7374174D02*
X8163039Y-7336079D01*
X8163039Y-7336079D02*
X8172563Y-7317031D01*
X8172563Y-7317031D02*
X8182086Y-7307508D01*
X8182086Y-7307508D02*
X8201134Y-7297984D01*
X8353515Y-7478936D02*
X8363039Y-7488460D01*
X8363039Y-7488460D02*
X8353515Y-7497984D01*
X8353515Y-7497984D02*
X8343991Y-7488460D01*
X8343991Y-7488460D02*
X8353515Y-7478936D01*
X8353515Y-7478936D02*
X8353515Y-7497984D01*
X8486848Y-7297984D02*
X8505896Y-7297984D01*
X8505896Y-7297984D02*
X8524944Y-7307508D01*
X8524944Y-7307508D02*
X8534468Y-7317031D01*
X8534468Y-7317031D02*
X8543991Y-7336079D01*
X8543991Y-7336079D02*
X8553515Y-7374174D01*
X8553515Y-7374174D02*
X8553515Y-7421793D01*
X8553515Y-7421793D02*
X8543991Y-7459888D01*
X8543991Y-7459888D02*
X8534468Y-7478936D01*
X8534468Y-7478936D02*
X8524944Y-7488460D01*
X8524944Y-7488460D02*
X8505896Y-7497984D01*
X8505896Y-7497984D02*
X8486848Y-7497984D01*
X8486848Y-7497984D02*
X8467801Y-7488460D01*
X8467801Y-7488460D02*
X8458277Y-7478936D01*
X8458277Y-7478936D02*
X8448753Y-7459888D01*
X8448753Y-7459888D02*
X8439229Y-7421793D01*
X8439229Y-7421793D02*
X8439229Y-7374174D01*
X8439229Y-7374174D02*
X8448753Y-7336079D01*
X8448753Y-7336079D02*
X8458277Y-7317031D01*
X8458277Y-7317031D02*
X8467801Y-7307508D01*
X8467801Y-7307508D02*
X8486848Y-7297984D01*
X8629706Y-7317031D02*
X8639229Y-7307508D01*
X8639229Y-7307508D02*
X8658277Y-7297984D01*
X8658277Y-7297984D02*
X8705896Y-7297984D01*
X8705896Y-7297984D02*
X8724944Y-7307508D01*
X8724944Y-7307508D02*
X8734468Y-7317031D01*
X8734468Y-7317031D02*
X8743991Y-7336079D01*
X8743991Y-7336079D02*
X8743991Y-7355127D01*
X8743991Y-7355127D02*
X8734468Y-7383698D01*
X8734468Y-7383698D02*
X8620182Y-7497984D01*
X8620182Y-7497984D02*
X8743991Y-7497984D01*
X8924944Y-7297984D02*
X8829706Y-7297984D01*
X8829706Y-7297984D02*
X8820182Y-7393222D01*
X8820182Y-7393222D02*
X8829706Y-7383698D01*
X8829706Y-7383698D02*
X8848753Y-7374174D01*
X8848753Y-7374174D02*
X8896372Y-7374174D01*
X8896372Y-7374174D02*
X8915420Y-7383698D01*
X8915420Y-7383698D02*
X8924944Y-7393222D01*
X8924944Y-7393222D02*
X8934468Y-7412269D01*
X8934468Y-7412269D02*
X8934468Y-7459888D01*
X8934468Y-7459888D02*
X8924944Y-7478936D01*
X8924944Y-7478936D02*
X8915420Y-7488460D01*
X8915420Y-7488460D02*
X8896372Y-7497984D01*
X8896372Y-7497984D02*
X8848753Y-7497984D01*
X8848753Y-7497984D02*
X8829706Y-7488460D01*
X8829706Y-7488460D02*
X8820182Y-7478936D01*
X9105896Y-7297984D02*
X9067801Y-7297984D01*
X9067801Y-7297984D02*
X9048753Y-7307508D01*
X9048753Y-7307508D02*
X9039229Y-7317031D01*
X9039229Y-7317031D02*
X9020182Y-7345603D01*
X9020182Y-7345603D02*
X9010658Y-7383698D01*
X9010658Y-7383698D02*
X9010658Y-7459888D01*
X9010658Y-7459888D02*
X9020182Y-7478936D01*
X9020182Y-7478936D02*
X9029706Y-7488460D01*
X9029706Y-7488460D02*
X9048753Y-7497984D01*
X9048753Y-7497984D02*
X9086849Y-7497984D01*
X9086849Y-7497984D02*
X9105896Y-7488460D01*
X9105896Y-7488460D02*
X9115420Y-7478936D01*
X9115420Y-7478936D02*
X9124944Y-7459888D01*
X9124944Y-7459888D02*
X9124944Y-7412269D01*
X9124944Y-7412269D02*
X9115420Y-7393222D01*
X9115420Y-7393222D02*
X9105896Y-7383698D01*
X9105896Y-7383698D02*
X9086849Y-7374174D01*
X9086849Y-7374174D02*
X9048753Y-7374174D01*
X9048753Y-7374174D02*
X9029706Y-7383698D01*
X9029706Y-7383698D02*
X9020182Y-7393222D01*
X9020182Y-7393222D02*
X9010658Y-7412269D01*
X9201134Y-7297984D02*
X9201134Y-7336079D01*
X9277325Y-7297984D02*
X9277325Y-7336079D01*
X9572563Y-7574174D02*
X9563039Y-7564650D01*
X9563039Y-7564650D02*
X9543991Y-7536079D01*
X9543991Y-7536079D02*
X9534468Y-7517031D01*
X9534468Y-7517031D02*
X9524944Y-7488460D01*
X9524944Y-7488460D02*
X9515420Y-7440841D01*
X9515420Y-7440841D02*
X9515420Y-7402746D01*
X9515420Y-7402746D02*
X9524944Y-7355127D01*
X9524944Y-7355127D02*
X9534468Y-7326555D01*
X9534468Y-7326555D02*
X9543991Y-7307508D01*
X9543991Y-7307508D02*
X9563039Y-7278936D01*
X9563039Y-7278936D02*
X9572563Y-7269412D01*
X9639230Y-7317031D02*
X9648753Y-7307508D01*
X9648753Y-7307508D02*
X9667801Y-7297984D01*
X9667801Y-7297984D02*
X9715420Y-7297984D01*
X9715420Y-7297984D02*
X9734468Y-7307508D01*
X9734468Y-7307508D02*
X9743991Y-7317031D01*
X9743991Y-7317031D02*
X9753515Y-7336079D01*
X9753515Y-7336079D02*
X9753515Y-7355127D01*
X9753515Y-7355127D02*
X9743991Y-7383698D01*
X9743991Y-7383698D02*
X9629706Y-7497984D01*
X9629706Y-7497984D02*
X9753515Y-7497984D01*
X9820182Y-7297984D02*
X9943991Y-7297984D01*
X9943991Y-7297984D02*
X9877325Y-7374174D01*
X9877325Y-7374174D02*
X9905896Y-7374174D01*
X9905896Y-7374174D02*
X9924944Y-7383698D01*
X9924944Y-7383698D02*
X9934468Y-7393222D01*
X9934468Y-7393222D02*
X9943991Y-7412269D01*
X9943991Y-7412269D02*
X9943991Y-7459888D01*
X9943991Y-7459888D02*
X9934468Y-7478936D01*
X9934468Y-7478936D02*
X9924944Y-7488460D01*
X9924944Y-7488460D02*
X9905896Y-7497984D01*
X9905896Y-7497984D02*
X9848753Y-7497984D01*
X9848753Y-7497984D02*
X9829706Y-7488460D01*
X9829706Y-7488460D02*
X9820182Y-7478936D01*
X10182087Y-7497984D02*
X10182087Y-7297984D01*
X10267801Y-7497984D02*
X10267801Y-7393222D01*
X10267801Y-7393222D02*
X10258277Y-7374174D01*
X10258277Y-7374174D02*
X10239230Y-7364650D01*
X10239230Y-7364650D02*
X10210658Y-7364650D01*
X10210658Y-7364650D02*
X10191611Y-7374174D01*
X10191611Y-7374174D02*
X10182087Y-7383698D01*
X10391611Y-7497984D02*
X10372563Y-7488460D01*
X10372563Y-7488460D02*
X10363039Y-7478936D01*
X10363039Y-7478936D02*
X10353515Y-7459888D01*
X10353515Y-7459888D02*
X10353515Y-7402746D01*
X10353515Y-7402746D02*
X10363039Y-7383698D01*
X10363039Y-7383698D02*
X10372563Y-7374174D01*
X10372563Y-7374174D02*
X10391611Y-7364650D01*
X10391611Y-7364650D02*
X10420182Y-7364650D01*
X10420182Y-7364650D02*
X10439230Y-7374174D01*
X10439230Y-7374174D02*
X10448753Y-7383698D01*
X10448753Y-7383698D02*
X10458277Y-7402746D01*
X10458277Y-7402746D02*
X10458277Y-7459888D01*
X10458277Y-7459888D02*
X10448753Y-7478936D01*
X10448753Y-7478936D02*
X10439230Y-7488460D01*
X10439230Y-7488460D02*
X10420182Y-7497984D01*
X10420182Y-7497984D02*
X10391611Y-7497984D01*
X10572563Y-7497984D02*
X10553515Y-7488460D01*
X10553515Y-7488460D02*
X10543992Y-7469412D01*
X10543992Y-7469412D02*
X10543992Y-7297984D01*
X10724944Y-7488460D02*
X10705896Y-7497984D01*
X10705896Y-7497984D02*
X10667801Y-7497984D01*
X10667801Y-7497984D02*
X10648753Y-7488460D01*
X10648753Y-7488460D02*
X10639230Y-7469412D01*
X10639230Y-7469412D02*
X10639230Y-7393222D01*
X10639230Y-7393222D02*
X10648753Y-7374174D01*
X10648753Y-7374174D02*
X10667801Y-7364650D01*
X10667801Y-7364650D02*
X10705896Y-7364650D01*
X10705896Y-7364650D02*
X10724944Y-7374174D01*
X10724944Y-7374174D02*
X10734468Y-7393222D01*
X10734468Y-7393222D02*
X10734468Y-7412269D01*
X10734468Y-7412269D02*
X10639230Y-7431317D01*
X10810658Y-7488460D02*
X10829706Y-7497984D01*
X10829706Y-7497984D02*
X10867801Y-7497984D01*
X10867801Y-7497984D02*
X10886849Y-7488460D01*
X10886849Y-7488460D02*
X10896373Y-7469412D01*
X10896373Y-7469412D02*
X10896373Y-7459888D01*
X10896373Y-7459888D02*
X10886849Y-7440841D01*
X10886849Y-7440841D02*
X10867801Y-7431317D01*
X10867801Y-7431317D02*
X10839230Y-7431317D01*
X10839230Y-7431317D02*
X10820182Y-7421793D01*
X10820182Y-7421793D02*
X10810658Y-7402746D01*
X10810658Y-7402746D02*
X10810658Y-7393222D01*
X10810658Y-7393222D02*
X10820182Y-7374174D01*
X10820182Y-7374174D02*
X10839230Y-7364650D01*
X10839230Y-7364650D02*
X10867801Y-7364650D01*
X10867801Y-7364650D02*
X10886849Y-7374174D01*
X10963039Y-7574174D02*
X10972563Y-7564650D01*
X10972563Y-7564650D02*
X10991611Y-7536079D01*
X10991611Y-7536079D02*
X11001134Y-7517031D01*
X11001134Y-7517031D02*
X11010658Y-7488460D01*
X11010658Y-7488460D02*
X11020182Y-7440841D01*
X11020182Y-7440841D02*
X11020182Y-7402746D01*
X11020182Y-7402746D02*
X11010658Y-7355127D01*
X11010658Y-7355127D02*
X11001134Y-7326555D01*
X11001134Y-7326555D02*
X10991611Y-7307508D01*
X10991611Y-7307508D02*
X10972563Y-7278936D01*
X10972563Y-7278936D02*
X10963039Y-7269412D01*
M02*
