%TF.GenerationSoftware,KiCad,Pcbnew,8.0.8-2.fc41*%
%TF.CreationDate,2025-02-01T06:38:28+00:00*%
%TF.ProjectId,small_led_a,736d616c-6c5f-46c6-9564-5f612e6b6963,rev?*%
%TF.SameCoordinates,Original*%
%TF.FileFunction,Drillmap*%
%TF.FilePolarity,Positive*%
%FSLAX45Y45*%
G04 Gerber Fmt 4.5, Leading zero omitted, Abs format (unit mm)*
G04 Created by KiCad (PCBNEW 8.0.8-2.fc41) date 2025-02-01 06:38:28*
%MOMM*%
%LPD*%
G01*
G04 APERTURE LIST*
%ADD10C,0.050000*%
%ADD11C,0.200000*%
G04 APERTURE END LIST*
D10*
X6000000Y-5100000D02*
X6000000Y-6500000D01*
X11700000Y-5100000D02*
X6000000Y-5100000D01*
X11700000Y-6500000D02*
X11700000Y-5100000D01*
X6000000Y-6500000D02*
X11700000Y-6500000D01*
D11*
X6258277Y-6813984D02*
X6258277Y-6613984D01*
X6258277Y-6613984D02*
X6305896Y-6613984D01*
X6305896Y-6613984D02*
X6334467Y-6623508D01*
X6334467Y-6623508D02*
X6353515Y-6642555D01*
X6353515Y-6642555D02*
X6363039Y-6661603D01*
X6363039Y-6661603D02*
X6372562Y-6699698D01*
X6372562Y-6699698D02*
X6372562Y-6728269D01*
X6372562Y-6728269D02*
X6363039Y-6766365D01*
X6363039Y-6766365D02*
X6353515Y-6785412D01*
X6353515Y-6785412D02*
X6334467Y-6804460D01*
X6334467Y-6804460D02*
X6305896Y-6813984D01*
X6305896Y-6813984D02*
X6258277Y-6813984D01*
X6458277Y-6813984D02*
X6458277Y-6680650D01*
X6458277Y-6718746D02*
X6467801Y-6699698D01*
X6467801Y-6699698D02*
X6477324Y-6690174D01*
X6477324Y-6690174D02*
X6496372Y-6680650D01*
X6496372Y-6680650D02*
X6515420Y-6680650D01*
X6582086Y-6813984D02*
X6582086Y-6680650D01*
X6582086Y-6613984D02*
X6572562Y-6623508D01*
X6572562Y-6623508D02*
X6582086Y-6633031D01*
X6582086Y-6633031D02*
X6591610Y-6623508D01*
X6591610Y-6623508D02*
X6582086Y-6613984D01*
X6582086Y-6613984D02*
X6582086Y-6633031D01*
X6705896Y-6813984D02*
X6686848Y-6804460D01*
X6686848Y-6804460D02*
X6677324Y-6785412D01*
X6677324Y-6785412D02*
X6677324Y-6613984D01*
X6810658Y-6813984D02*
X6791610Y-6804460D01*
X6791610Y-6804460D02*
X6782086Y-6785412D01*
X6782086Y-6785412D02*
X6782086Y-6613984D01*
X7039229Y-6813984D02*
X7039229Y-6613984D01*
X7039229Y-6613984D02*
X7105896Y-6756841D01*
X7105896Y-6756841D02*
X7172562Y-6613984D01*
X7172562Y-6613984D02*
X7172562Y-6813984D01*
X7353515Y-6813984D02*
X7353515Y-6709222D01*
X7353515Y-6709222D02*
X7343991Y-6690174D01*
X7343991Y-6690174D02*
X7324943Y-6680650D01*
X7324943Y-6680650D02*
X7286848Y-6680650D01*
X7286848Y-6680650D02*
X7267801Y-6690174D01*
X7353515Y-6804460D02*
X7334467Y-6813984D01*
X7334467Y-6813984D02*
X7286848Y-6813984D01*
X7286848Y-6813984D02*
X7267801Y-6804460D01*
X7267801Y-6804460D02*
X7258277Y-6785412D01*
X7258277Y-6785412D02*
X7258277Y-6766365D01*
X7258277Y-6766365D02*
X7267801Y-6747317D01*
X7267801Y-6747317D02*
X7286848Y-6737793D01*
X7286848Y-6737793D02*
X7334467Y-6737793D01*
X7334467Y-6737793D02*
X7353515Y-6728269D01*
X7448753Y-6680650D02*
X7448753Y-6880650D01*
X7448753Y-6690174D02*
X7467801Y-6680650D01*
X7467801Y-6680650D02*
X7505896Y-6680650D01*
X7505896Y-6680650D02*
X7524943Y-6690174D01*
X7524943Y-6690174D02*
X7534467Y-6699698D01*
X7534467Y-6699698D02*
X7543991Y-6718746D01*
X7543991Y-6718746D02*
X7543991Y-6775888D01*
X7543991Y-6775888D02*
X7534467Y-6794936D01*
X7534467Y-6794936D02*
X7524943Y-6804460D01*
X7524943Y-6804460D02*
X7505896Y-6813984D01*
X7505896Y-6813984D02*
X7467801Y-6813984D01*
X7467801Y-6813984D02*
X7448753Y-6804460D01*
X7629705Y-6794936D02*
X7639229Y-6804460D01*
X7639229Y-6804460D02*
X7629705Y-6813984D01*
X7629705Y-6813984D02*
X7620182Y-6804460D01*
X7620182Y-6804460D02*
X7629705Y-6794936D01*
X7629705Y-6794936D02*
X7629705Y-6813984D01*
X7629705Y-6690174D02*
X7639229Y-6699698D01*
X7639229Y-6699698D02*
X7629705Y-6709222D01*
X7629705Y-6709222D02*
X7620182Y-6699698D01*
X7620182Y-6699698D02*
X7629705Y-6690174D01*
X7629705Y-6690174D02*
X7629705Y-6709222D01*
M02*
