M48
; DRILL file {KiCad 8.0.8-2.fc41} date 2025-02-01T06:38:28+0000
; FORMAT={-:-/ absolute / inch / decimal}
; #@! TF.CreationDate,2025-02-01T06:38:28+00:00
; #@! TF.GenerationSoftware,Kicad,Pcbnew,8.0.8-2.fc41
; #@! TF.FileFunction,Plated,1,4,PTH
FMAT,2
INCH
; #@! TA.AperFunction,Plated,PTH,ViaDrill
T1C0.0118
; #@! TA.AperFunction,Plated,PTH,ComponentDrill
T2C0.0256
%
G90
G05
T1
X2.439Y-2.2913
X2.4449Y-2.1063
X2.4606Y-2.2146
X2.4646Y-2.5059
X2.4961Y-2.252
X2.5138Y-2.1417
X2.5295Y-2.3543
X2.5328Y-2.189
X2.5341Y-2.2766
X2.5748Y-2.1083
X2.5827Y-2.2136
X2.6047Y-2.0837
X2.6088Y-2.3012
X2.6137Y-2.2188
X2.6201Y-2.3799
X2.6339Y-2.252
X2.6545Y-2.1357
X2.6705Y-2.189
X2.6713Y-2.3543
X2.672Y-2.2766
X2.6752Y-2.0787
X2.7106Y-2.1083
X2.7146Y-2.2146
X2.7224Y-2.5276
X2.7441Y-2.0837
X2.7461Y-2.2205
X2.7579Y-2.3789
X2.7638Y-2.3012
X2.7736Y-2.252
X2.793Y-2.1357
X2.7953Y-2.4035
X2.8083Y-2.1884
X2.8099Y-2.2766
X2.813Y-2.3543
X2.8346Y-2.3032
X2.8524Y-2.1083
X2.8524Y-2.2146
X2.8878Y-2.2219
X2.8898Y-2.3071
X2.8917Y-2.0787
X2.8917Y-2.3789
X2.9094Y-2.252
X2.9154Y-2.435
X2.9311Y-2.1417
X2.9464Y-2.191
X2.9476Y-2.2766
X2.9488Y-2.3583
X2.9823Y-2.1102
X2.9862Y-2.4114
X3.0039Y-2.4528
X3.0217Y-2.2156
X3.0276Y-2.0846
X3.0354Y-2.3829
X3.0472Y-2.3012
X3.0492Y-2.252
X3.0715Y-2.136
X3.0728Y-2.4134
X3.0846Y-2.3602
X3.0847Y-2.1887
X3.0861Y-2.2766
X3.1201Y-2.4193
X3.122Y-2.1102
X3.1575Y-2.2133
X3.1693Y-2.0827
X3.1693Y-2.3848
X3.1752Y-2.4331
X3.187Y-2.252
X3.187Y-2.3012
X3.2105Y-2.1361
X3.2224Y-2.4094
X3.2236Y-2.1885
X3.2244Y-2.3602
X3.2251Y-2.2766
X3.25Y-2.4469
X3.2618Y-2.1083
X3.3012Y-2.2131
X3.3071Y-2.3848
X3.3091Y-2.0787
X3.3169Y-2.2992
X3.3268Y-2.25
X3.3463Y-2.135
X3.3614Y-2.1867
X3.3622Y-2.3602
X3.3637Y-2.2746
X3.3969Y-2.1083
X3.3974Y-2.453
X3.435Y-2.2113
X3.4409Y-2.0787
X3.4488Y-2.3848
X3.4606Y-2.3012
X3.4665Y-2.252
X3.4832Y-2.1357
X3.4992Y-2.1861
X3.5007Y-2.2766
X3.502Y-2.3622
X3.5354Y-2.1083
X3.5709Y-2.2126
X3.5807Y-2.0807
X3.5846Y-2.3868
X3.6024Y-2.25
X3.6043Y-2.2992
X3.6229Y-2.1363
X3.637Y-2.1859
X3.6378Y-2.3602
X3.6397Y-2.2746
X3.6732Y-2.1083
X3.7106Y-2.2106
X3.7224Y-2.0787
X3.7224Y-2.3848
X3.7362Y-2.3012
X3.7382Y-2.252
X3.7598Y-2.1378
X3.7748Y-2.1901
X3.7771Y-2.2766
X3.7776Y-2.3602
X3.813Y-2.1083
X3.8524Y-2.2147
X3.8622Y-2.0807
X3.8622Y-2.3848
X3.872Y-2.3002
X3.876Y-2.251
X3.8976Y-2.1378
X3.9126Y-2.1893
X3.9154Y-2.3602
X3.9155Y-2.2756
X3.948Y-2.1106
X3.9921Y-2.2139
X3.9961Y-2.086
X3.9961Y-2.3878
X4.0059Y-2.3009
X4.0156Y-2.2517
X4.0339Y-2.1387
X4.0504Y-2.1889
X4.0512Y-2.2763
X4.0531Y-2.3583
X4.0866Y-2.1083
X4.1299Y-2.2171
X4.1339Y-2.0837
X4.1378Y-2.3898
X4.1496Y-2.3012
X4.1535Y-2.252
X4.1732Y-2.1378
X4.1883Y-2.1925
X4.189Y-2.3602
X4.1909Y-2.2766
X4.2244Y-2.1083
X4.2657Y-2.2171
X4.2717Y-2.0827
X4.2717Y-2.3848
X4.2894Y-2.252
X4.2894Y-2.3012
X4.3114Y-2.138
X4.326Y-2.1889
X4.3268Y-2.3602
X4.3287Y-2.2766
X4.3622Y-2.1102
X4.3996Y-2.2146
X4.4055Y-2.0827
X4.4154Y-2.3937
X4.4213Y-2.3012
X4.4272Y-2.252
X4.4488Y-2.1398
X4.4639Y-2.1921
X4.4646Y-2.3602
X4.4665Y-2.2559
X4.4992Y-2.1122
X4.5059Y-2.4921
X4.5236Y-2.2933
X4.5453Y-2.3937
T2
X2.8252Y-2.4961
X2.8752Y-2.4961
X2.9252Y-2.4961
X2.9752Y-2.4961
X3.0252Y-2.4961
X3.0752Y-2.4961
X3.1252Y-2.4961
X3.1752Y-2.4961
X3.2252Y-2.4961
X3.2752Y-2.4961
X3.3252Y-2.4961
X3.3752Y-2.4961
X3.4252Y-2.4961
X3.4752Y-2.4961
X3.5252Y-2.4961
X3.5752Y-2.4961
X3.6252Y-2.4961
X3.6752Y-2.4961
X3.7252Y-2.4961
X3.7752Y-2.4961
X3.8252Y-2.4961
X3.8752Y-2.4961
X3.9252Y-2.4961
M30
