%TF.GenerationSoftware,KiCad,Pcbnew,8.0.8-2.fc41*%
%TF.CreationDate,2025-02-01T06:38:30+00:00*%
%TF.ProjectId,small_led_a,736d616c-6c5f-46c6-9564-5f612e6b6963,rev?*%
%TF.SameCoordinates,Original*%
%TF.FileFunction,Copper,L1,Top*%
%TF.FilePolarity,Positive*%
%FSLAX46Y46*%
G04 Gerber Fmt 4.6, Leading zero omitted, Abs format (unit mm)*
G04 Created by KiCad (PCBNEW 8.0.8-2.fc41) date 2025-02-01 06:38:30*
%MOMM*%
%LPD*%
G01*
G04 APERTURE LIST*
G04 Aperture macros list*
%AMRoundRect*
0 Rectangle with rounded corners*
0 $1 Rounding radius*
0 $2 $3 $4 $5 $6 $7 $8 $9 X,Y pos of 4 corners*
0 Add a 4 corners polygon primitive as box body*
4,1,4,$2,$3,$4,$5,$6,$7,$8,$9,$2,$3,0*
0 Add four circle primitives for the rounded corners*
1,1,$1+$1,$2,$3*
1,1,$1+$1,$4,$5*
1,1,$1+$1,$6,$7*
1,1,$1+$1,$8,$9*
0 Add four rect primitives between the rounded corners*
20,1,$1+$1,$2,$3,$4,$5,0*
20,1,$1+$1,$4,$5,$6,$7,0*
20,1,$1+$1,$6,$7,$8,$9,0*
20,1,$1+$1,$8,$9,$2,$3,0*%
G04 Aperture macros list end*
%TA.AperFunction,SMDPad,CuDef*%
%ADD10RoundRect,0.147500X0.172500X-0.147500X0.172500X0.147500X-0.172500X0.147500X-0.172500X-0.147500X0*%
%TD*%
%TA.AperFunction,SMDPad,CuDef*%
%ADD11RoundRect,0.147500X-0.147500X-0.172500X0.147500X-0.172500X0.147500X0.172500X-0.147500X0.172500X0*%
%TD*%
%TA.AperFunction,ComponentPad*%
%ADD12R,1.000000X1.000000*%
%TD*%
%TA.AperFunction,ComponentPad*%
%ADD13O,1.000000X1.000000*%
%TD*%
%TA.AperFunction,ViaPad*%
%ADD14C,0.600000*%
%TD*%
%TA.AperFunction,Conductor*%
%ADD15C,0.250000*%
%TD*%
G04 APERTURE END LIST*
D10*
%TO.P,U15,k,k*%
%TO.N,k15*%
X114700000Y-60117500D03*
X114200000Y-58267500D03*
X114200000Y-55467500D03*
D11*
X112515000Y-53572500D03*
X112505000Y-56372500D03*
X112455000Y-59172500D03*
D10*
X111800000Y-55467500D03*
X111750000Y-58267500D03*
%TO.P,U15,h,h*%
%TO.N,h*%
X114700000Y-59147500D03*
D11*
%TO.P,U15,g,g*%
%TO.N,g*%
X113475000Y-56372500D03*
D10*
%TO.P,U15,f,f*%
%TO.N,f*%
X111800000Y-54497500D03*
%TO.P,U15,e,e*%
%TO.N,e*%
X111750000Y-57297500D03*
D11*
%TO.P,U15,d,d*%
%TO.N,d*%
X113425000Y-59172500D03*
D10*
%TO.P,U15,c,c*%
%TO.N,c*%
X114200000Y-57297500D03*
%TO.P,U15,b,b*%
%TO.N,b*%
X114200000Y-54497500D03*
D11*
%TO.P,U15,a,a*%
%TO.N,a*%
X113485000Y-53572500D03*
%TD*%
%TO.P,U14,a,a*%
%TO.N,a*%
X109985000Y-53572500D03*
D10*
%TO.P,U14,b,b*%
%TO.N,b*%
X110700000Y-54497500D03*
%TO.P,U14,c,c*%
%TO.N,c*%
X110700000Y-57297500D03*
D11*
%TO.P,U14,d,d*%
%TO.N,d*%
X109925000Y-59172500D03*
D10*
%TO.P,U14,e,e*%
%TO.N,e*%
X108250000Y-57297500D03*
%TO.P,U14,f,f*%
%TO.N,f*%
X108300000Y-54497500D03*
D11*
%TO.P,U14,g,g*%
%TO.N,g*%
X109975000Y-56372500D03*
D10*
%TO.P,U14,h,h*%
%TO.N,h*%
X111200000Y-59147500D03*
%TO.P,U14,k,k*%
%TO.N,k14*%
X108250000Y-58267500D03*
X108300000Y-55467500D03*
D11*
X108955000Y-59172500D03*
X109005000Y-56372500D03*
X109015000Y-53572500D03*
D10*
X110700000Y-55467500D03*
X110700000Y-58267500D03*
X111200000Y-60117500D03*
%TD*%
D11*
%TO.P,U13,a,a*%
%TO.N,a*%
X106485000Y-53572500D03*
D10*
%TO.P,U13,b,b*%
%TO.N,b*%
X107200000Y-54497500D03*
%TO.P,U13,c,c*%
%TO.N,c*%
X107200000Y-57297500D03*
D11*
%TO.P,U13,d,d*%
%TO.N,d*%
X106425000Y-59172500D03*
D10*
%TO.P,U13,e,e*%
%TO.N,e*%
X104750000Y-57297500D03*
%TO.P,U13,f,f*%
%TO.N,f*%
X104800000Y-54497500D03*
D11*
%TO.P,U13,g,g*%
%TO.N,g*%
X106475000Y-56372500D03*
D10*
%TO.P,U13,h,h*%
%TO.N,h*%
X107700000Y-59147500D03*
%TO.P,U13,k,k*%
%TO.N,k13*%
X104750000Y-58267500D03*
X104800000Y-55467500D03*
D11*
X105455000Y-59172500D03*
X105505000Y-56372500D03*
X105515000Y-53572500D03*
D10*
X107200000Y-55467500D03*
X107200000Y-58267500D03*
X107700000Y-60117500D03*
%TD*%
D11*
%TO.P,U12,a,a*%
%TO.N,a*%
X102985000Y-53572500D03*
D10*
%TO.P,U12,b,b*%
%TO.N,b*%
X103700000Y-54497500D03*
%TO.P,U12,c,c*%
%TO.N,c*%
X103700000Y-57297500D03*
D11*
%TO.P,U12,d,d*%
%TO.N,d*%
X102925000Y-59172500D03*
D10*
%TO.P,U12,e,e*%
%TO.N,e*%
X101250000Y-57297500D03*
%TO.P,U12,f,f*%
%TO.N,f*%
X101300000Y-54497500D03*
D11*
%TO.P,U12,g,g*%
%TO.N,g*%
X102975000Y-56372500D03*
D10*
%TO.P,U12,h,h*%
%TO.N,h*%
X104200000Y-59147500D03*
%TO.P,U12,k,k*%
%TO.N,k12*%
X101250000Y-58267500D03*
X101300000Y-55467500D03*
D11*
X101955000Y-59172500D03*
X102005000Y-56372500D03*
X102015000Y-53572500D03*
D10*
X103700000Y-55467500D03*
X103700000Y-58267500D03*
X104200000Y-60117500D03*
%TD*%
D11*
%TO.P,U11,a,a*%
%TO.N,a*%
X99485000Y-53555000D03*
D10*
%TO.P,U11,b,b*%
%TO.N,b*%
X100200000Y-54480000D03*
%TO.P,U11,c,c*%
%TO.N,c*%
X100200000Y-57280000D03*
D11*
%TO.P,U11,d,d*%
%TO.N,d*%
X99425000Y-59155000D03*
D10*
%TO.P,U11,e,e*%
%TO.N,e*%
X97750000Y-57280000D03*
%TO.P,U11,f,f*%
%TO.N,f*%
X97800000Y-54480000D03*
D11*
%TO.P,U11,g,g*%
%TO.N,g*%
X99475000Y-56355000D03*
D10*
%TO.P,U11,h,h*%
%TO.N,h*%
X100700000Y-59130000D03*
%TO.P,U11,k,k*%
%TO.N,k11*%
X97750000Y-58250000D03*
X97800000Y-55450000D03*
D11*
X98455000Y-59155000D03*
X98505000Y-56355000D03*
X98515000Y-53555000D03*
D10*
X100200000Y-55450000D03*
X100200000Y-58250000D03*
X100700000Y-60100000D03*
%TD*%
%TO.P,U10,k,k*%
%TO.N,k10*%
X97200000Y-60095000D03*
X96700000Y-58245000D03*
X96700000Y-55445000D03*
D11*
X95015000Y-53550000D03*
X95005000Y-56350000D03*
X94955000Y-59150000D03*
D10*
X94300000Y-55445000D03*
X94250000Y-58245000D03*
%TO.P,U10,h,h*%
%TO.N,h*%
X97200000Y-59125000D03*
D11*
%TO.P,U10,g,g*%
%TO.N,g*%
X95975000Y-56350000D03*
D10*
%TO.P,U10,f,f*%
%TO.N,f*%
X94300000Y-54475000D03*
%TO.P,U10,e,e*%
%TO.N,e*%
X94250000Y-57275000D03*
D11*
%TO.P,U10,d,d*%
%TO.N,d*%
X95925000Y-59150000D03*
D10*
%TO.P,U10,c,c*%
%TO.N,c*%
X96700000Y-57275000D03*
%TO.P,U10,b,b*%
%TO.N,b*%
X96700000Y-54475000D03*
D11*
%TO.P,U10,a,a*%
%TO.N,a*%
X95985000Y-53550000D03*
%TD*%
%TO.P,U9,a,a*%
%TO.N,a*%
X92485000Y-53522500D03*
D10*
%TO.P,U9,b,b*%
%TO.N,b*%
X93200000Y-54447500D03*
%TO.P,U9,c,c*%
%TO.N,c*%
X93200000Y-57247500D03*
D11*
%TO.P,U9,d,d*%
%TO.N,d*%
X92425000Y-59122500D03*
D10*
%TO.P,U9,e,e*%
%TO.N,e*%
X90750000Y-57247500D03*
%TO.P,U9,f,f*%
%TO.N,f*%
X90800000Y-54447500D03*
D11*
%TO.P,U9,g,g*%
%TO.N,g*%
X92475000Y-56322500D03*
D10*
%TO.P,U9,h,h*%
%TO.N,h*%
X93700000Y-59097500D03*
%TO.P,U9,k,k*%
%TO.N,k9*%
X90750000Y-58217500D03*
X90800000Y-55417500D03*
D11*
X91455000Y-59122500D03*
X91505000Y-56322500D03*
X91515000Y-53522500D03*
D10*
X93200000Y-55417500D03*
X93200000Y-58217500D03*
X93700000Y-60067500D03*
%TD*%
D11*
%TO.P,U8,a,a*%
%TO.N,a*%
X88985000Y-53505000D03*
D10*
%TO.P,U8,b,b*%
%TO.N,b*%
X89700000Y-54430000D03*
%TO.P,U8,c,c*%
%TO.N,c*%
X89700000Y-57230000D03*
D11*
%TO.P,U8,d,d*%
%TO.N,d*%
X88925000Y-59105000D03*
D10*
%TO.P,U8,e,e*%
%TO.N,e*%
X87250000Y-57230000D03*
%TO.P,U8,f,f*%
%TO.N,f*%
X87300000Y-54430000D03*
D11*
%TO.P,U8,g,g*%
%TO.N,g*%
X88975000Y-56305000D03*
D10*
%TO.P,U8,h,h*%
%TO.N,h*%
X90200000Y-59080000D03*
%TO.P,U8,k,k*%
%TO.N,k8*%
X87250000Y-58200000D03*
X87300000Y-55400000D03*
D11*
X87955000Y-59105000D03*
X88005000Y-56305000D03*
X88015000Y-53505000D03*
D10*
X89700000Y-55400000D03*
X89700000Y-58200000D03*
X90200000Y-60050000D03*
%TD*%
D11*
%TO.P,U3,a,a*%
%TO.N,a*%
X71435000Y-53515000D03*
D10*
%TO.P,U3,b,b*%
%TO.N,b*%
X72150000Y-54440000D03*
%TO.P,U3,c,c*%
%TO.N,c*%
X72150000Y-57240000D03*
D11*
%TO.P,U3,d,d*%
%TO.N,d*%
X71375000Y-59115000D03*
D10*
%TO.P,U3,e,e*%
%TO.N,e*%
X69700000Y-57240000D03*
%TO.P,U3,f,f*%
%TO.N,f*%
X69750000Y-54440000D03*
D11*
%TO.P,U3,g,g*%
%TO.N,g*%
X71425000Y-56315000D03*
D10*
%TO.P,U3,h,h*%
%TO.N,h*%
X72650000Y-59090000D03*
%TO.P,U3,k,k*%
%TO.N,k3*%
X69700000Y-58210000D03*
X69750000Y-55410000D03*
D11*
X70405000Y-59115000D03*
X70455000Y-56315000D03*
X70465000Y-53515000D03*
D10*
X72150000Y-55410000D03*
X72150000Y-58210000D03*
X72650000Y-60060000D03*
%TD*%
D11*
%TO.P,U2,a,a*%
%TO.N,a*%
X67935000Y-53505000D03*
D10*
%TO.P,U2,b,b*%
%TO.N,b*%
X68650000Y-54430000D03*
%TO.P,U2,c,c*%
%TO.N,c*%
X68650000Y-57230000D03*
D11*
%TO.P,U2,d,d*%
%TO.N,d*%
X67875000Y-59105000D03*
D10*
%TO.P,U2,e,e*%
%TO.N,e*%
X66200000Y-57230000D03*
%TO.P,U2,f,f*%
%TO.N,f*%
X66250000Y-54430000D03*
D11*
%TO.P,U2,g,g*%
%TO.N,g*%
X67925000Y-56305000D03*
D10*
%TO.P,U2,h,h*%
%TO.N,h*%
X69150000Y-59080000D03*
%TO.P,U2,k,k*%
%TO.N,k2*%
X66200000Y-58200000D03*
X66250000Y-55400000D03*
D11*
X66905000Y-59105000D03*
X66955000Y-56305000D03*
X66965000Y-53505000D03*
D10*
X68650000Y-55400000D03*
X68650000Y-58200000D03*
X69150000Y-60050000D03*
%TD*%
D11*
%TO.P,U1,a,a*%
%TO.N,a*%
X64435000Y-53500000D03*
D10*
%TO.P,U1,b,b*%
%TO.N,b*%
X65150000Y-54425000D03*
%TO.P,U1,c,c*%
%TO.N,c*%
X65150000Y-57225000D03*
D11*
%TO.P,U1,d,d*%
%TO.N,d*%
X64375000Y-59100000D03*
D10*
%TO.P,U1,e,e*%
%TO.N,e*%
X62700000Y-57225000D03*
%TO.P,U1,f,f*%
%TO.N,f*%
X62750000Y-54425000D03*
D11*
%TO.P,U1,g,g*%
%TO.N,g*%
X64425000Y-56300000D03*
D10*
%TO.P,U1,h,h*%
%TO.N,h*%
X65650000Y-59075000D03*
%TO.P,U1,k,k*%
%TO.N,k1*%
X62700000Y-58195000D03*
X62750000Y-55395000D03*
D11*
X63405000Y-59100000D03*
X63455000Y-56300000D03*
X63465000Y-53500000D03*
D10*
X65150000Y-55395000D03*
X65150000Y-58195000D03*
X65650000Y-60045000D03*
%TD*%
D11*
%TO.P,U5,a,a*%
%TO.N,a*%
X78455000Y-53500000D03*
D10*
%TO.P,U5,b,b*%
%TO.N,b*%
X79170000Y-54425000D03*
%TO.P,U5,c,c*%
%TO.N,c*%
X79170000Y-57225000D03*
D11*
%TO.P,U5,d,d*%
%TO.N,d*%
X78395000Y-59100000D03*
D10*
%TO.P,U5,e,e*%
%TO.N,e*%
X76720000Y-57225000D03*
%TO.P,U5,f,f*%
%TO.N,f*%
X76770000Y-54425000D03*
D11*
%TO.P,U5,g,g*%
%TO.N,g*%
X78445000Y-56300000D03*
D10*
%TO.P,U5,h,h*%
%TO.N,h*%
X79670000Y-59075000D03*
%TO.P,U5,k,k*%
%TO.N,k5*%
X76720000Y-58195000D03*
X76770000Y-55395000D03*
D11*
X77425000Y-59100000D03*
X77475000Y-56300000D03*
X77485000Y-53500000D03*
D10*
X79170000Y-55395000D03*
X79170000Y-58195000D03*
X79670000Y-60045000D03*
%TD*%
D11*
%TO.P,U7,a,a*%
%TO.N,a*%
X85485000Y-53500000D03*
D10*
%TO.P,U7,b,b*%
%TO.N,b*%
X86200000Y-54425000D03*
%TO.P,U7,c,c*%
%TO.N,c*%
X86200000Y-57225000D03*
D11*
%TO.P,U7,d,d*%
%TO.N,d*%
X85425000Y-59100000D03*
D10*
%TO.P,U7,e,e*%
%TO.N,e*%
X83750000Y-57225000D03*
%TO.P,U7,f,f*%
%TO.N,f*%
X83800000Y-54425000D03*
D11*
%TO.P,U7,g,g*%
%TO.N,g*%
X85475000Y-56300000D03*
D10*
%TO.P,U7,h,h*%
%TO.N,h*%
X86700000Y-59075000D03*
%TO.P,U7,k,k*%
%TO.N,k7*%
X83750000Y-58195000D03*
X83800000Y-55395000D03*
D11*
X84455000Y-59100000D03*
X84505000Y-56300000D03*
X84515000Y-53500000D03*
D10*
X86200000Y-55395000D03*
X86200000Y-58195000D03*
X86700000Y-60045000D03*
%TD*%
D11*
%TO.P,U4,a,a*%
%TO.N,a*%
X74935000Y-53505000D03*
D10*
%TO.P,U4,b,b*%
%TO.N,b*%
X75650000Y-54430000D03*
%TO.P,U4,c,c*%
%TO.N,c*%
X75650000Y-57230000D03*
D11*
%TO.P,U4,d,d*%
%TO.N,d*%
X74875000Y-59105000D03*
D10*
%TO.P,U4,e,e*%
%TO.N,e*%
X73200000Y-57230000D03*
%TO.P,U4,f,f*%
%TO.N,f*%
X73250000Y-54430000D03*
D11*
%TO.P,U4,g,g*%
%TO.N,g*%
X74925000Y-56305000D03*
D10*
%TO.P,U4,h,h*%
%TO.N,h*%
X76150000Y-59080000D03*
%TO.P,U4,k,k*%
%TO.N,k4*%
X73200000Y-58200000D03*
X73250000Y-55400000D03*
D11*
X73905000Y-59105000D03*
X73955000Y-56305000D03*
X73965000Y-53505000D03*
D10*
X75650000Y-55400000D03*
X75650000Y-58200000D03*
X76150000Y-60050000D03*
%TD*%
D11*
%TO.P,U6,a,a*%
%TO.N,a*%
X81985000Y-53505000D03*
D10*
%TO.P,U6,b,b*%
%TO.N,b*%
X82700000Y-54430000D03*
%TO.P,U6,c,c*%
%TO.N,c*%
X82700000Y-57230000D03*
D11*
%TO.P,U6,d,d*%
%TO.N,d*%
X81925000Y-59105000D03*
D10*
%TO.P,U6,e,e*%
%TO.N,e*%
X80250000Y-57230000D03*
%TO.P,U6,f,f*%
%TO.N,f*%
X80300000Y-54430000D03*
D11*
%TO.P,U6,g,g*%
%TO.N,g*%
X81975000Y-56305000D03*
D10*
%TO.P,U6,h,h*%
%TO.N,h*%
X83200000Y-59080000D03*
%TO.P,U6,k,k*%
%TO.N,k6*%
X80250000Y-58200000D03*
X80300000Y-55400000D03*
D11*
X80955000Y-59105000D03*
X81005000Y-56305000D03*
X81015000Y-53505000D03*
D10*
X82700000Y-55400000D03*
X82700000Y-58200000D03*
X83200000Y-60050000D03*
%TD*%
D12*
%TO.P,J1,1,Pin_1*%
%TO.N,a*%
X71760000Y-63400000D03*
D13*
%TO.P,J1,2,Pin_2*%
%TO.N,b*%
X73030000Y-63400000D03*
%TO.P,J1,3,Pin_3*%
%TO.N,c*%
X74300000Y-63400000D03*
%TO.P,J1,4,Pin_4*%
%TO.N,d*%
X75570000Y-63400000D03*
%TO.P,J1,5,Pin_5*%
%TO.N,e*%
X76840000Y-63400000D03*
%TO.P,J1,6,Pin_6*%
%TO.N,f*%
X78110000Y-63400000D03*
%TO.P,J1,7,Pin_7*%
%TO.N,g*%
X79380000Y-63400000D03*
%TO.P,J1,8,Pin_8*%
%TO.N,h*%
X80650000Y-63400000D03*
%TO.P,J1,9,Pin_9*%
%TO.N,k1*%
X81920000Y-63400000D03*
%TO.P,J1,10,Pin_10*%
%TO.N,k2*%
X83190000Y-63400000D03*
%TO.P,J1,11,Pin_11*%
%TO.N,k3*%
X84460000Y-63400000D03*
%TO.P,J1,12,Pin_12*%
%TO.N,k4*%
X85730000Y-63400000D03*
%TO.P,J1,13,Pin_13*%
%TO.N,k5*%
X87000000Y-63400000D03*
%TO.P,J1,14,Pin_14*%
%TO.N,k6*%
X88270000Y-63400000D03*
%TO.P,J1,15,Pin_15*%
%TO.N,k7*%
X89540000Y-63400000D03*
%TO.P,J1,16,Pin_16*%
%TO.N,k8*%
X90810000Y-63400000D03*
%TO.P,J1,17,Pin_17*%
%TO.N,k9*%
X92080000Y-63400000D03*
%TO.P,J1,18,Pin_18*%
%TO.N,k10*%
X93350000Y-63400000D03*
%TO.P,J1,19,Pin_19*%
%TO.N,k11*%
X94620000Y-63400000D03*
%TO.P,J1,20,Pin_20*%
%TO.N,k12*%
X95890000Y-63400000D03*
%TO.P,J1,21,Pin_21*%
%TO.N,k13*%
X97160000Y-63400000D03*
%TO.P,J1,22,Pin_22*%
%TO.N,k14*%
X98430000Y-63400000D03*
%TO.P,J1,23,Pin_23*%
%TO.N,k15*%
X99700000Y-63400000D03*
%TD*%
D14*
%TO.N,a*%
X67950000Y-52800000D03*
%TO.N,b*%
X71000000Y-61050000D03*
%TO.N,k4*%
X74050000Y-61850000D03*
%TO.N,e*%
X75850000Y-61250000D03*
%TO.N,f*%
X78050000Y-61300000D03*
%TO.N,g*%
X79250000Y-61450000D03*
%TO.N,k1*%
X62600000Y-63650000D03*
%TO.N,k2*%
X82550000Y-62150000D03*
%TO.N,k5*%
X86293058Y-62306942D03*
%TO.N,k3*%
X69150000Y-64200000D03*
%TO.N,k4*%
X76300000Y-62300000D03*
X81850000Y-61200000D03*
%TO.N,k15*%
X114900000Y-58250000D03*
X114450000Y-63300000D03*
%TO.N,k4*%
X73450000Y-52800000D03*
%TO.N,k5*%
X76900000Y-52950000D03*
%TO.N,k6*%
X80500000Y-52900000D03*
%TO.N,k7*%
X84050000Y-52800000D03*
%TO.N,k8*%
X87400000Y-52800000D03*
%TO.N,k9*%
X90950000Y-52850000D03*
%TO.N,k10*%
X94550000Y-52800000D03*
%TO.N,k11*%
X98100000Y-52850000D03*
%TO.N,k12*%
X101500000Y-52984753D03*
%TO.N,k13*%
X105000000Y-52925000D03*
%TO.N,k14*%
X108500000Y-52900000D03*
%TO.N,k15*%
X111900000Y-52900000D03*
%TO.N,k5*%
X76750000Y-56275352D03*
X77400000Y-58450000D03*
%TO.N,k6*%
X80200000Y-56218660D03*
X80950000Y-58450000D03*
%TO.N,k7*%
X83850000Y-56213261D03*
X84250000Y-58399999D03*
%TO.N,k8*%
X87250000Y-56166115D03*
X87900000Y-58450000D03*
%TO.N,k9*%
X90700000Y-56200000D03*
X91550000Y-58399999D03*
%TO.N,k10*%
X94250000Y-56150000D03*
X94900000Y-58449999D03*
%TO.N,k11*%
X97850000Y-56252394D03*
X98350000Y-58424999D03*
%TO.N,k12*%
X101400000Y-56234115D03*
X101750000Y-58442500D03*
%TO.N,k13*%
X104900000Y-56313293D03*
X105400000Y-58449999D03*
%TO.N,k14*%
X108350000Y-56313293D03*
X108950000Y-58450000D03*
%TO.N,k15*%
X111750000Y-56250000D03*
X112300000Y-58450000D03*
%TO.N,k4*%
X73400000Y-58600000D03*
X73350000Y-56435000D03*
%TO.N,h*%
X80650000Y-61800000D03*
%TO.N,k3*%
X72000000Y-58501132D03*
X72450000Y-56250000D03*
X70200000Y-58449999D03*
X69750000Y-56400000D03*
X69700000Y-52925000D03*
%TO.N,k2*%
X66263866Y-58449999D03*
X66158949Y-52925000D03*
X66389216Y-56356506D03*
X68950000Y-56250000D03*
%TO.N,k1*%
X61950000Y-58200000D03*
X62100000Y-53500000D03*
X62500000Y-56250000D03*
X65600000Y-56225581D03*
%TO.N,h*%
X66550000Y-60450000D03*
X70050000Y-60425000D03*
X73450000Y-60425000D03*
X77100000Y-60525000D03*
X80500000Y-60575000D03*
X84000000Y-60575000D03*
X87600000Y-60575000D03*
X91050000Y-60625000D03*
X94550000Y-60575000D03*
X98100000Y-60575000D03*
X101500000Y-60650000D03*
X105100000Y-60700000D03*
X108500000Y-60575000D03*
X112150000Y-60800000D03*
X115450000Y-60800000D03*
%TO.N,d*%
X113400000Y-59950000D03*
X109900000Y-59950000D03*
X106400000Y-59950000D03*
X102950000Y-59900000D03*
X99450000Y-59950000D03*
X95950000Y-59950000D03*
X92400000Y-59950000D03*
X88950000Y-60000000D03*
X85400000Y-59950000D03*
X81900000Y-59950000D03*
X78350000Y-59950000D03*
X74900000Y-59900000D03*
X71450000Y-59800000D03*
X67850000Y-59800000D03*
X64250000Y-59800000D03*
%TO.N,c*%
X64366549Y-57824999D03*
X67868326Y-57825000D03*
X71372061Y-57824999D03*
X74868327Y-57825000D03*
X78386550Y-57825000D03*
X81918326Y-57825000D03*
X85437119Y-57774999D03*
X88918327Y-57825000D03*
X92448537Y-57774999D03*
X95937119Y-57824999D03*
X99452667Y-57799999D03*
X102900000Y-57817500D03*
X106448537Y-57824999D03*
X109948538Y-57825000D03*
X113450000Y-57300000D03*
%TO.N,e*%
X112450000Y-57200000D03*
X108950000Y-57200000D03*
X105500000Y-57200000D03*
X101995554Y-57192500D03*
X98450000Y-57175000D03*
X94950000Y-57200000D03*
X91500000Y-57150000D03*
X88050000Y-57200000D03*
X84500000Y-57150000D03*
X80950000Y-57200000D03*
X77450000Y-57200000D03*
X73900000Y-57200000D03*
X70450000Y-57200000D03*
X66900000Y-57200000D03*
X63400000Y-57200000D03*
%TO.N,g*%
X113382369Y-55678134D03*
X109880001Y-55599122D03*
X106383466Y-55688293D03*
X102880001Y-55599122D03*
X99380001Y-55609115D03*
X95880415Y-55627394D03*
X92380001Y-55522457D03*
X88880001Y-55526222D03*
X85380001Y-55541115D03*
X81880689Y-55588261D03*
X78351344Y-55593660D03*
X74837863Y-55650352D03*
X71330189Y-55585770D03*
X67831477Y-55600429D03*
X64331901Y-55600581D03*
%TO.N,b*%
X114280000Y-53650000D03*
X110800000Y-53600000D03*
X107300000Y-53550000D03*
X103800000Y-53550000D03*
X100280000Y-53609753D03*
X96850000Y-53550000D03*
X93300000Y-53550000D03*
X89800000Y-53550000D03*
X86280000Y-53550000D03*
X82850000Y-53550000D03*
X79300000Y-53600000D03*
X75750000Y-53600000D03*
X72450000Y-53550000D03*
X68850000Y-53550000D03*
X65400000Y-53550000D03*
%TO.N,f*%
X113000000Y-54350000D03*
X109509979Y-54304795D03*
X106000000Y-54300000D03*
X102460173Y-54322511D03*
X99000000Y-54300000D03*
X95500000Y-54300000D03*
X92021191Y-54261781D03*
X88474484Y-54246866D03*
X84996974Y-54227753D03*
X81545672Y-54258160D03*
X78016987Y-54253855D03*
X74450000Y-54400000D03*
X70941949Y-54246053D03*
X67424312Y-54246968D03*
X63850000Y-54400000D03*
%TD*%
D15*
%TO.N,k4*%
X73400000Y-58600000D02*
X73905000Y-59105000D01*
X73400000Y-58600000D02*
X73400000Y-58400000D01*
X73400000Y-58400000D02*
X73200000Y-58200000D01*
%TO.N,b*%
X107200000Y-54497500D02*
X107200000Y-53650000D01*
X107200000Y-53650000D02*
X107300000Y-53550000D01*
%TO.N,a*%
X67950000Y-52800000D02*
X67950000Y-53490000D01*
X67950000Y-53490000D02*
X67935000Y-53505000D01*
%TO.N,k4*%
X74050000Y-61850000D02*
X74500000Y-62300000D01*
X74500000Y-62300000D02*
X76300000Y-62300000D01*
%TO.N,k5*%
X87000000Y-63013884D02*
X86293058Y-62306942D01*
X87000000Y-63400000D02*
X87000000Y-63013884D01*
%TO.N,k3*%
X69250000Y-64300000D02*
X69150000Y-64200000D01*
X83150000Y-64300000D02*
X69250000Y-64300000D01*
X84460000Y-63400000D02*
X83560000Y-64300000D01*
X83560000Y-64300000D02*
X83150000Y-64300000D01*
%TO.N,k4*%
X83013604Y-61200000D02*
X81850000Y-61200000D01*
X83250000Y-61436396D02*
X83013604Y-61200000D01*
X85000000Y-62670000D02*
X85000000Y-61700000D01*
X85730000Y-63400000D02*
X85000000Y-62670000D01*
X85000000Y-61700000D02*
X83513604Y-61700000D01*
X83513604Y-61700000D02*
X83250000Y-61436396D01*
%TO.N,k6*%
X88270000Y-63400000D02*
X86120000Y-61250000D01*
X86120000Y-61250000D02*
X83700000Y-61250000D01*
X83700000Y-61250000D02*
X83250000Y-60800000D01*
X83250000Y-60800000D02*
X83250000Y-60600000D01*
X83250000Y-60600000D02*
X83200000Y-60550000D01*
X83200000Y-60550000D02*
X83200000Y-60050000D01*
%TO.N,k7*%
X89540000Y-63400000D02*
X86700000Y-60560000D01*
X86700000Y-60560000D02*
X86700000Y-60045000D01*
%TO.N,k8*%
X90810000Y-63400000D02*
X90200000Y-62790000D01*
X90200000Y-62790000D02*
X90200000Y-60050000D01*
%TO.N,k9*%
X92080000Y-63400000D02*
X92080000Y-61687500D01*
X92080000Y-61687500D02*
X93700000Y-60067500D01*
%TO.N,k10*%
X93350000Y-63400000D02*
X96175000Y-60575000D01*
X96175000Y-60575000D02*
X96720000Y-60575000D01*
X96720000Y-60575000D02*
X97200000Y-60095000D01*
%TO.N,k11*%
X100500000Y-61200000D02*
X100700000Y-61000000D01*
X96820000Y-61200000D02*
X100500000Y-61200000D01*
X94620000Y-63400000D02*
X96820000Y-61200000D01*
X100700000Y-61000000D02*
X100700000Y-60100000D01*
%TO.N,k12*%
X95890000Y-63400000D02*
X97640000Y-61650000D01*
X97640000Y-61650000D02*
X104150000Y-61650000D01*
X104150000Y-61650000D02*
X104350000Y-61450000D01*
X104350000Y-61450000D02*
X104200000Y-61300000D01*
X104200000Y-61300000D02*
X104200000Y-60117500D01*
%TO.N,k13*%
X98435000Y-62125000D02*
X107650000Y-62125000D01*
X97160000Y-63400000D02*
X98435000Y-62125000D01*
X107650000Y-62125000D02*
X107700000Y-62075000D01*
X107700000Y-62075000D02*
X107700000Y-60117500D01*
%TO.N,k14*%
X98430000Y-63400000D02*
X99255000Y-62575000D01*
X111075000Y-62575000D02*
X111200000Y-62450000D01*
X99255000Y-62575000D02*
X111075000Y-62575000D01*
X111200000Y-62450000D02*
X111200000Y-60117500D01*
%TO.N,k15*%
X114900000Y-58250000D02*
X114217500Y-58250000D01*
X114217500Y-58250000D02*
X114200000Y-58267500D01*
X114350000Y-63400000D02*
X114450000Y-63300000D01*
X99700000Y-63400000D02*
X114350000Y-63400000D01*
%TO.N,a*%
X109985000Y-53572500D02*
X109985000Y-53252501D01*
X109985000Y-53252501D02*
X110962501Y-52275000D01*
X110962501Y-52275000D02*
X112425000Y-52275000D01*
X112425000Y-52275000D02*
X113485000Y-53335000D01*
X113485000Y-53335000D02*
X113485000Y-53572500D01*
X106485000Y-53572500D02*
X106485000Y-53252501D01*
X106485000Y-53252501D02*
X107462501Y-52275000D01*
X109985000Y-53550196D02*
X109985000Y-53572500D01*
X107462501Y-52275000D02*
X108775000Y-52275000D01*
X108775000Y-52275000D02*
X109359804Y-52859804D01*
X109359804Y-52859804D02*
X109359804Y-52925000D01*
X109359804Y-52925000D02*
X109985000Y-53550196D01*
X102985000Y-53572500D02*
X102985000Y-53252501D01*
X102985000Y-53252501D02*
X103937501Y-52300000D01*
X103937501Y-52300000D02*
X105300000Y-52300000D01*
X105300000Y-52300000D02*
X106485000Y-53485000D01*
X106485000Y-53485000D02*
X106485000Y-53572500D01*
X99485000Y-53235001D02*
X100360248Y-52359753D01*
X100360248Y-52359753D02*
X101794557Y-52359753D01*
X101794557Y-52359753D02*
X102985000Y-53550196D01*
X102985000Y-53550196D02*
X102985000Y-53572500D01*
X95985000Y-53230001D02*
X96990001Y-52225000D01*
X96990001Y-52225000D02*
X98474999Y-52225000D01*
X98474999Y-52225000D02*
X99485000Y-53235001D01*
X92485000Y-53522500D02*
X92485000Y-53202501D01*
X92485000Y-53202501D02*
X93512501Y-52175000D01*
X93512501Y-52175000D02*
X94929999Y-52175000D01*
X94929999Y-52175000D02*
X95985000Y-53230001D01*
X88985000Y-53185001D02*
X89945001Y-52225000D01*
X89945001Y-52225000D02*
X91209804Y-52225000D01*
X91209804Y-52225000D02*
X92485000Y-53500196D01*
X92485000Y-53500196D02*
X92485000Y-53522500D01*
X85485000Y-53500000D02*
X85485000Y-53461116D01*
X85485000Y-53461116D02*
X86771116Y-52175000D01*
X86771116Y-52175000D02*
X87974999Y-52175000D01*
X87974999Y-52175000D02*
X88985000Y-53185001D01*
X81985000Y-53505000D02*
X82011116Y-53505000D01*
X82011116Y-53505000D02*
X83341116Y-52175000D01*
X85485000Y-53180001D02*
X85485000Y-53500000D01*
X83341116Y-52175000D02*
X84479999Y-52175000D01*
X84479999Y-52175000D02*
X85485000Y-53180001D01*
X78455000Y-53500000D02*
X79680000Y-52275000D01*
X79680000Y-52275000D02*
X81125000Y-52275000D01*
X81125000Y-52275000D02*
X81985000Y-53135000D01*
X81985000Y-53135000D02*
X81985000Y-53505000D01*
X74935000Y-53505000D02*
X76115000Y-52325000D01*
X76115000Y-52325000D02*
X77625000Y-52325000D01*
X77625000Y-52325000D02*
X78455000Y-53155000D01*
X78455000Y-53155000D02*
X78455000Y-53500000D01*
X71435000Y-53515000D02*
X72775000Y-52175000D01*
X72775000Y-52175000D02*
X73924999Y-52175000D01*
X73924999Y-52175000D02*
X74935000Y-53185001D01*
X74935000Y-53185001D02*
X74935000Y-53505000D01*
X67935000Y-53505000D02*
X69140000Y-52300000D01*
X69140000Y-52300000D02*
X70800000Y-52300000D01*
X70800000Y-52300000D02*
X71435000Y-52935000D01*
X71435000Y-52935000D02*
X71435000Y-53515000D01*
%TO.N,k4*%
X73450000Y-52800000D02*
X73450000Y-52990000D01*
X73450000Y-52990000D02*
X73965000Y-53505000D01*
%TO.N,k5*%
X76900000Y-52950000D02*
X76935000Y-52950000D01*
X76935000Y-52950000D02*
X77485000Y-53500000D01*
%TO.N,k6*%
X80500000Y-52900000D02*
X80500000Y-52990000D01*
X80500000Y-52990000D02*
X81015000Y-53505000D01*
%TO.N,k7*%
X84050000Y-52800000D02*
X84050000Y-53035000D01*
X84050000Y-53035000D02*
X84515000Y-53500000D01*
%TO.N,k8*%
X87400000Y-52800000D02*
X87400000Y-52890000D01*
X87400000Y-52890000D02*
X88015000Y-53505000D01*
%TO.N,k9*%
X90950000Y-52850000D02*
X90950000Y-52957500D01*
X90950000Y-52957500D02*
X91515000Y-53522500D01*
%TO.N,k10*%
X94550000Y-52800000D02*
X94550000Y-53085000D01*
X94550000Y-53085000D02*
X95015000Y-53550000D01*
%TO.N,k11*%
X98100000Y-52850000D02*
X98100000Y-53140000D01*
X98100000Y-53140000D02*
X98515000Y-53555000D01*
%TO.N,k12*%
X101500000Y-52984753D02*
X101500000Y-53057500D01*
X101500000Y-53057500D02*
X102015000Y-53572500D01*
%TO.N,k13*%
X105000000Y-52925000D02*
X105000000Y-53057500D01*
X105000000Y-53057500D02*
X105515000Y-53572500D01*
%TO.N,k14*%
X108500000Y-52900000D02*
X108500000Y-53057500D01*
X108500000Y-53057500D02*
X109015000Y-53572500D01*
%TO.N,k15*%
X111900000Y-52957500D02*
X112515000Y-53572500D01*
X111900000Y-52900000D02*
X111900000Y-52957500D01*
%TO.N,k5*%
X77475000Y-56300000D02*
X76774648Y-56300000D01*
X76774648Y-56300000D02*
X76750000Y-56275352D01*
X76750000Y-56275352D02*
X76750000Y-55415000D01*
X76750000Y-55415000D02*
X76770000Y-55395000D01*
X77400000Y-58450000D02*
X78915000Y-58450000D01*
X76720000Y-58195000D02*
X77145000Y-58195000D01*
X77145000Y-58195000D02*
X77400000Y-58450000D01*
%TO.N,k6*%
X81005000Y-56305000D02*
X80286340Y-56305000D01*
X80286340Y-56305000D02*
X80200000Y-56218660D01*
X80200000Y-55500000D02*
X80300000Y-55400000D01*
X80200000Y-56218660D02*
X80200000Y-55500000D01*
X80700000Y-58200000D02*
X80950000Y-58450000D01*
X80250000Y-58200000D02*
X80700000Y-58200000D01*
%TO.N,k7*%
X84505000Y-56300000D02*
X83936739Y-56300000D01*
X83936739Y-56300000D02*
X83850000Y-56213261D01*
X83850000Y-56213261D02*
X83850000Y-55445000D01*
X83850000Y-55445000D02*
X83800000Y-55395000D01*
X84045001Y-58195000D02*
X84250000Y-58399999D01*
X83750000Y-58195000D02*
X84045001Y-58195000D01*
%TO.N,k8*%
X88005000Y-56305000D02*
X87388885Y-56305000D01*
X87388885Y-56305000D02*
X87250000Y-56166115D01*
X87250000Y-55450000D02*
X87300000Y-55400000D01*
X87250000Y-56166115D02*
X87250000Y-55450000D01*
X87650000Y-58200000D02*
X87900000Y-58450000D01*
X87250000Y-58200000D02*
X87650000Y-58200000D01*
%TO.N,k9*%
X91505000Y-56322500D02*
X90822500Y-56322500D01*
X90822500Y-56322500D02*
X90700000Y-56200000D01*
X90700000Y-56200000D02*
X90700000Y-55517500D01*
X90700000Y-55517500D02*
X90800000Y-55417500D01*
X91550000Y-58399999D02*
X93017501Y-58399999D01*
X91367501Y-58217500D02*
X91550000Y-58399999D01*
X90750000Y-58217500D02*
X91367501Y-58217500D01*
%TO.N,k10*%
X95005000Y-56350000D02*
X94450000Y-56350000D01*
X94450000Y-56350000D02*
X94250000Y-56150000D01*
X94250000Y-56150000D02*
X94250000Y-55495000D01*
X94250000Y-55495000D02*
X94300000Y-55445000D01*
X94900000Y-58449999D02*
X96495001Y-58449999D01*
X94250000Y-58245000D02*
X94695001Y-58245000D01*
X94695001Y-58245000D02*
X94900000Y-58449999D01*
%TO.N,k11*%
X98505000Y-56355000D02*
X97952606Y-56355000D01*
X97952606Y-56355000D02*
X97850000Y-56252394D01*
X97850000Y-55500000D02*
X97800000Y-55450000D01*
X97850000Y-56252394D02*
X97850000Y-55500000D01*
X98350000Y-58424999D02*
X100025001Y-58424999D01*
X97750000Y-58250000D02*
X98175001Y-58250000D01*
X98175001Y-58250000D02*
X98350000Y-58424999D01*
%TO.N,k12*%
X102005000Y-56372500D02*
X101538385Y-56372500D01*
X101538385Y-56372500D02*
X101400000Y-56234115D01*
X101400000Y-56234115D02*
X101400000Y-55567500D01*
X101400000Y-55567500D02*
X101300000Y-55467500D01*
X101575000Y-58267500D02*
X101750000Y-58442500D01*
X101250000Y-58267500D02*
X101575000Y-58267500D01*
%TO.N,k13*%
X105505000Y-56372500D02*
X104959207Y-56372500D01*
X104959207Y-56372500D02*
X104900000Y-56313293D01*
X104900000Y-56313293D02*
X104900000Y-55567500D01*
X104900000Y-55567500D02*
X104800000Y-55467500D01*
X105400000Y-58449999D02*
X107017501Y-58449999D01*
X104750000Y-58267500D02*
X105217501Y-58267500D01*
X105217501Y-58267500D02*
X105400000Y-58449999D01*
%TO.N,k14*%
X109005000Y-56372500D02*
X108409207Y-56372500D01*
X108409207Y-56372500D02*
X108350000Y-56313293D01*
X108350000Y-55517500D02*
X108300000Y-55467500D01*
X108350000Y-56313293D02*
X108350000Y-55517500D01*
X108767500Y-58267500D02*
X108950000Y-58450000D01*
X108250000Y-58267500D02*
X108767500Y-58267500D01*
%TO.N,k15*%
X112505000Y-56372500D02*
X111872500Y-56372500D01*
X111872500Y-56372500D02*
X111750000Y-56250000D01*
X111750000Y-55517500D02*
X111800000Y-55467500D01*
X111750000Y-56250000D02*
X111750000Y-55517500D01*
X111750000Y-58267500D02*
X112117500Y-58267500D01*
X112117500Y-58267500D02*
X112300000Y-58450000D01*
X114200000Y-58267500D02*
X114055000Y-58412500D01*
X114055000Y-58412500D02*
X114055000Y-59705000D01*
X114055000Y-59705000D02*
X114467500Y-60117500D01*
X114467500Y-60117500D02*
X114700000Y-60117500D01*
X111750000Y-58267500D02*
X114200000Y-58267500D01*
X111750000Y-58267500D02*
X111750000Y-58467500D01*
X111750000Y-58467500D02*
X112455000Y-59172500D01*
%TO.N,k14*%
X110700000Y-58267500D02*
X110555000Y-58412500D01*
X110555000Y-58412500D02*
X110555000Y-59792499D01*
X110555000Y-59792499D02*
X110880001Y-60117500D01*
X110880001Y-60117500D02*
X111200000Y-60117500D01*
X108250000Y-58267500D02*
X108250000Y-58467500D01*
X108250000Y-58467500D02*
X108955000Y-59172500D01*
X108250000Y-58267500D02*
X108432500Y-58450000D01*
X110517500Y-58450000D02*
X110700000Y-58267500D01*
X108432500Y-58450000D02*
X110517500Y-58450000D01*
%TO.N,k13*%
X107200000Y-58267500D02*
X107055000Y-58412500D01*
X107055000Y-58412500D02*
X107055000Y-59555000D01*
X107055000Y-59555000D02*
X107617500Y-60117500D01*
X107617500Y-60117500D02*
X107700000Y-60117500D01*
X104750000Y-58267500D02*
X104750000Y-58467500D01*
X104750000Y-58467500D02*
X105455000Y-59172500D01*
X107017501Y-58449999D02*
X107200000Y-58267500D01*
%TO.N,k12*%
X103700000Y-58267500D02*
X103555000Y-58412500D01*
X103555000Y-58412500D02*
X103555000Y-59494804D01*
X103555000Y-59494804D02*
X104177696Y-60117500D01*
X104177696Y-60117500D02*
X104200000Y-60117500D01*
X101250000Y-58267500D02*
X101250000Y-58467500D01*
X101250000Y-58467500D02*
X101955000Y-59172500D01*
X101250000Y-58267500D02*
X101425000Y-58442500D01*
X101425000Y-58442500D02*
X103525000Y-58442500D01*
X103525000Y-58442500D02*
X103700000Y-58267500D01*
%TO.N,k11*%
X100200000Y-58250000D02*
X100055000Y-58395000D01*
X100055000Y-58395000D02*
X100055000Y-59774999D01*
X100055000Y-59774999D02*
X100380001Y-60100000D01*
X100380001Y-60100000D02*
X100700000Y-60100000D01*
X97750000Y-58250000D02*
X97750000Y-58450000D01*
X97750000Y-58450000D02*
X98455000Y-59155000D01*
X100025001Y-58424999D02*
X100200000Y-58250000D01*
%TO.N,k10*%
X96700000Y-58245000D02*
X96555000Y-58390000D01*
X96555000Y-58390000D02*
X96555000Y-59769999D01*
X96555000Y-59769999D02*
X96880001Y-60095000D01*
X96880001Y-60095000D02*
X97200000Y-60095000D01*
X94250000Y-58245000D02*
X94250000Y-58445000D01*
X94250000Y-58445000D02*
X94955000Y-59150000D01*
X96495001Y-58449999D02*
X96700000Y-58245000D01*
%TO.N,k9*%
X93200000Y-58217500D02*
X93055000Y-58362500D01*
X93055000Y-58362500D02*
X93055000Y-59655000D01*
X93055000Y-59655000D02*
X93467500Y-60067500D01*
X93467500Y-60067500D02*
X93700000Y-60067500D01*
X93017501Y-58399999D02*
X93200000Y-58217500D01*
X90750000Y-58217500D02*
X90750000Y-58417500D01*
X90750000Y-58417500D02*
X91455000Y-59122500D01*
%TO.N,k8*%
X89700000Y-58200000D02*
X89555000Y-58345000D01*
X89555000Y-58345000D02*
X89555000Y-59724999D01*
X89555000Y-59724999D02*
X89880001Y-60050000D01*
X89880001Y-60050000D02*
X90200000Y-60050000D01*
X87250000Y-58200000D02*
X87250000Y-58400000D01*
X87250000Y-58400000D02*
X87955000Y-59105000D01*
X87250000Y-58200000D02*
X87500000Y-58450000D01*
X87500000Y-58450000D02*
X89450000Y-58450000D01*
X89450000Y-58450000D02*
X89700000Y-58200000D01*
%TO.N,k7*%
X86200000Y-58195000D02*
X86055000Y-58340000D01*
X86055000Y-58340000D02*
X86055000Y-59422304D01*
X86055000Y-59422304D02*
X86677696Y-60045000D01*
X86677696Y-60045000D02*
X86700000Y-60045000D01*
X83750000Y-58195000D02*
X83750000Y-58395000D01*
X83750000Y-58395000D02*
X84455000Y-59100000D01*
X83750000Y-58195000D02*
X83954999Y-58399999D01*
X83954999Y-58399999D02*
X85995001Y-58399999D01*
X85995001Y-58399999D02*
X86200000Y-58195000D01*
%TO.N,k6*%
X82700000Y-58200000D02*
X82555000Y-58345000D01*
X82555000Y-58345000D02*
X82555000Y-59427304D01*
X82555000Y-59427304D02*
X83177696Y-60050000D01*
X83177696Y-60050000D02*
X83200000Y-60050000D01*
X80250000Y-58200000D02*
X80500000Y-58450000D01*
X80500000Y-58450000D02*
X82450000Y-58450000D01*
X82450000Y-58450000D02*
X82700000Y-58200000D01*
X80250000Y-58200000D02*
X80250000Y-58400000D01*
X80250000Y-58400000D02*
X80955000Y-59105000D01*
%TO.N,k5*%
X76720000Y-58195000D02*
X76720000Y-58395000D01*
X76720000Y-58395000D02*
X77425000Y-59100000D01*
X79170000Y-58195000D02*
X79025000Y-58340000D01*
X79025000Y-58340000D02*
X79025000Y-59575000D01*
X79025000Y-59575000D02*
X79495000Y-60045000D01*
X79495000Y-60045000D02*
X79670000Y-60045000D01*
X78915000Y-58450000D02*
X79170000Y-58195000D01*
%TO.N,k4*%
X75650000Y-58200000D02*
X75505000Y-58345000D01*
X75505000Y-58345000D02*
X75505000Y-59427304D01*
X75505000Y-59427304D02*
X76127696Y-60050000D01*
X76127696Y-60050000D02*
X76150000Y-60050000D01*
X73905000Y-59105000D02*
X73905000Y-58785001D01*
X73905000Y-58785001D02*
X74240001Y-58450000D01*
X74240001Y-58450000D02*
X75400000Y-58450000D01*
X75400000Y-58450000D02*
X75650000Y-58200000D01*
%TO.N,k3*%
X72150000Y-55410000D02*
X72127696Y-55410000D01*
X69840000Y-55410000D02*
X69750000Y-55410000D01*
X72127696Y-55410000D02*
X71667696Y-54950000D01*
X71667696Y-54950000D02*
X70300000Y-54950000D01*
X70300000Y-54950000D02*
X69840000Y-55410000D01*
%TO.N,f*%
X70941949Y-54246053D02*
X69943947Y-54246053D01*
X69943947Y-54246053D02*
X69750000Y-54440000D01*
%TO.N,k5*%
X79170000Y-55395000D02*
X79147696Y-55395000D01*
X79147696Y-55395000D02*
X78702696Y-54950000D01*
X78702696Y-54950000D02*
X77237304Y-54950000D01*
X77237304Y-54950000D02*
X76792304Y-55395000D01*
X76792304Y-55395000D02*
X76770000Y-55395000D01*
%TO.N,f*%
X78016987Y-54253855D02*
X76941145Y-54253855D01*
X76941145Y-54253855D02*
X76770000Y-54425000D01*
%TO.N,k6*%
X82700000Y-55400000D02*
X82576312Y-55400000D01*
X82576312Y-55400000D02*
X82059472Y-54883160D01*
X82059472Y-54883160D02*
X81050856Y-54883160D01*
X81050856Y-54883160D02*
X80534016Y-55400000D01*
X80534016Y-55400000D02*
X80300000Y-55400000D01*
%TO.N,f*%
X81545672Y-54258160D02*
X80471840Y-54258160D01*
X80471840Y-54258160D02*
X80300000Y-54430000D01*
%TO.N,k7*%
X86200000Y-55395000D02*
X86170000Y-55395000D01*
X86170000Y-55395000D02*
X85675000Y-54900000D01*
X84005000Y-55395000D02*
X83800000Y-55395000D01*
X85675000Y-54900000D02*
X84500000Y-54900000D01*
X84500000Y-54900000D02*
X84005000Y-55395000D01*
X86200000Y-55395000D02*
X86245000Y-55395000D01*
X86245000Y-55395000D02*
X86250000Y-55400000D01*
%TO.N,f*%
X84996974Y-54227753D02*
X83997247Y-54227753D01*
X83997247Y-54227753D02*
X83800000Y-54425000D01*
%TO.N,k8*%
X89700000Y-55400000D02*
X89637663Y-55400000D01*
X89637663Y-55400000D02*
X89138885Y-54901222D01*
X89138885Y-54901222D02*
X87848778Y-54901222D01*
X87848778Y-54901222D02*
X87350000Y-55400000D01*
X87350000Y-55400000D02*
X87300000Y-55400000D01*
%TO.N,f*%
X88474484Y-54246866D02*
X87483134Y-54246866D01*
X87483134Y-54246866D02*
X87300000Y-54430000D01*
%TO.N,k9*%
X93200000Y-55417500D02*
X93158928Y-55417500D01*
X93158928Y-55417500D02*
X92638885Y-54897457D01*
X92638885Y-54897457D02*
X91602543Y-54897457D01*
X91082500Y-55417500D02*
X90800000Y-55417500D01*
X91602543Y-54897457D02*
X91082500Y-55417500D01*
%TO.N,f*%
X92021191Y-54261781D02*
X90985719Y-54261781D01*
X90985719Y-54261781D02*
X90800000Y-54447500D01*
%TO.N,k10*%
X96700000Y-55445000D02*
X96581905Y-55445000D01*
X96581905Y-55445000D02*
X96139299Y-55002394D01*
X94405000Y-55445000D02*
X94300000Y-55445000D01*
X96139299Y-55002394D02*
X94847606Y-55002394D01*
X94847606Y-55002394D02*
X94405000Y-55445000D01*
%TO.N,k11*%
X100200000Y-55450000D02*
X100104770Y-55450000D01*
X100104770Y-55450000D02*
X99615922Y-54961152D01*
X99615922Y-54961152D02*
X98311152Y-54961152D01*
X98311152Y-54961152D02*
X97822304Y-55450000D01*
X97822304Y-55450000D02*
X97800000Y-55450000D01*
%TO.N,k12*%
X103700000Y-55467500D02*
X103632263Y-55467500D01*
X103632263Y-55467500D02*
X103138885Y-54974122D01*
X103138885Y-54974122D02*
X101875878Y-54974122D01*
X101875878Y-54974122D02*
X101382500Y-55467500D01*
X101382500Y-55467500D02*
X101300000Y-55467500D01*
%TO.N,k13*%
X107200000Y-55467500D02*
X106795793Y-55063293D01*
X106795793Y-55063293D02*
X105204207Y-55063293D01*
X105204207Y-55063293D02*
X104800000Y-55467500D01*
%TO.N,k14*%
X108300000Y-55467500D02*
X109127739Y-55467500D01*
X109127739Y-55467500D02*
X109621117Y-54974122D01*
X109621117Y-54974122D02*
X110138885Y-54974122D01*
X110138885Y-54974122D02*
X110632263Y-55467500D01*
X110632263Y-55467500D02*
X110700000Y-55467500D01*
%TO.N,k15*%
X113641253Y-55053134D02*
X114095000Y-55506881D01*
X112214366Y-55053134D02*
X113641253Y-55053134D01*
X111800000Y-55467500D02*
X112214366Y-55053134D01*
%TO.N,k14*%
X108300000Y-55467500D02*
X108300000Y-55667500D01*
X108300000Y-55667500D02*
X109005000Y-56372500D01*
%TO.N,k13*%
X104800000Y-55467500D02*
X104800000Y-55667500D01*
X104800000Y-55667500D02*
X105505000Y-56372500D01*
%TO.N,k12*%
X101300000Y-55467500D02*
X101300000Y-55667500D01*
X101300000Y-55667500D02*
X102005000Y-56372500D01*
%TO.N,k11*%
X97800000Y-55450000D02*
X97800000Y-55650000D01*
X97800000Y-55650000D02*
X98505000Y-56355000D01*
%TO.N,k10*%
X94300000Y-55445000D02*
X94300000Y-55645000D01*
X94300000Y-55645000D02*
X95005000Y-56350000D01*
%TO.N,k9*%
X90800000Y-55417500D02*
X90800000Y-55617500D01*
X90800000Y-55617500D02*
X91505000Y-56322500D01*
%TO.N,k8*%
X87300000Y-55400000D02*
X87300000Y-55600000D01*
X87300000Y-55600000D02*
X88005000Y-56305000D01*
%TO.N,k7*%
X83800000Y-55395000D02*
X83800000Y-55595000D01*
X83800000Y-55595000D02*
X84505000Y-56300000D01*
%TO.N,k6*%
X80300000Y-55400000D02*
X80300000Y-55600000D01*
X80300000Y-55600000D02*
X81005000Y-56305000D01*
%TO.N,k5*%
X76770000Y-55395000D02*
X76770000Y-55595000D01*
X76770000Y-55595000D02*
X77475000Y-56300000D01*
%TO.N,k4*%
X73480000Y-56305000D02*
X73350000Y-56435000D01*
X73955000Y-56305000D02*
X73480000Y-56305000D01*
X73250000Y-55400000D02*
X73250000Y-55600000D01*
X73250000Y-55600000D02*
X73955000Y-56305000D01*
X73250000Y-55400000D02*
X73624648Y-55025352D01*
X73624648Y-55025352D02*
X75275352Y-55025352D01*
X75275352Y-55025352D02*
X75650000Y-55400000D01*
%TO.N,a*%
X71450000Y-53500000D02*
X71435000Y-53515000D01*
%TO.N,k3*%
X72150000Y-55950000D02*
X72450000Y-56250000D01*
X72150000Y-55410000D02*
X72150000Y-55950000D01*
X70200000Y-58449999D02*
X71910001Y-58449999D01*
X71910001Y-58449999D02*
X72150000Y-58210000D01*
X70200000Y-58449999D02*
X69939999Y-58449999D01*
X69939999Y-58449999D02*
X69700000Y-58210000D01*
X70200000Y-58449999D02*
X70200000Y-58910000D01*
X70200000Y-58910000D02*
X70405000Y-59115000D01*
X69835000Y-56315000D02*
X69750000Y-56400000D01*
X70455000Y-56315000D02*
X69835000Y-56315000D01*
X69750000Y-55410000D02*
X69750000Y-55610000D01*
X69750000Y-55610000D02*
X70455000Y-56315000D01*
X70290000Y-53515000D02*
X69700000Y-52925000D01*
X70465000Y-53515000D02*
X70290000Y-53515000D01*
%TO.N,a*%
X64435000Y-53500000D02*
X65635000Y-52300000D01*
X65635000Y-52300000D02*
X66752304Y-52300000D01*
X66752304Y-52300000D02*
X67935000Y-53482696D01*
X67935000Y-53482696D02*
X67935000Y-53505000D01*
%TO.N,k2*%
X66738949Y-53505000D02*
X66158949Y-52925000D01*
X66965000Y-53505000D02*
X66738949Y-53505000D01*
X68650000Y-55400000D02*
X68650000Y-55950000D01*
X68650000Y-55950000D02*
X68950000Y-56250000D01*
X66389216Y-56356506D02*
X66903494Y-56356506D01*
X66903494Y-56356506D02*
X66955000Y-56305000D01*
X68650000Y-55400000D02*
X68615000Y-55400000D01*
X68615000Y-55400000D02*
X68176152Y-54961152D01*
X68176152Y-54961152D02*
X66711152Y-54961152D01*
X66711152Y-54961152D02*
X66272304Y-55400000D01*
X66272304Y-55400000D02*
X66250000Y-55400000D01*
%TO.N,f*%
X66433032Y-54246968D02*
X66250000Y-54430000D01*
X67424312Y-54246968D02*
X66433032Y-54246968D01*
%TO.N,k2*%
X66955000Y-56305000D02*
X66955000Y-56105000D01*
X66955000Y-56105000D02*
X66250000Y-55400000D01*
X66200000Y-58200000D02*
X66450000Y-58450000D01*
X66450000Y-58450000D02*
X68400000Y-58450000D01*
X68400000Y-58450000D02*
X68650000Y-58200000D01*
X66200000Y-58200000D02*
X66200000Y-58400000D01*
X66200000Y-58400000D02*
X66905000Y-59105000D01*
%TO.N,k1*%
X62700000Y-58195000D02*
X62954999Y-58449999D01*
X62954999Y-58449999D02*
X64895001Y-58449999D01*
X64895001Y-58449999D02*
X65150000Y-58195000D01*
X62700000Y-58195000D02*
X62700000Y-58395000D01*
X62700000Y-58395000D02*
X63405000Y-59100000D01*
%TO.N,k3*%
X72150000Y-58210000D02*
X72005000Y-58355000D01*
X72005000Y-58355000D02*
X72005000Y-59437304D01*
X72005000Y-59437304D02*
X72627696Y-60060000D01*
X72627696Y-60060000D02*
X72650000Y-60060000D01*
%TO.N,k2*%
X68650000Y-58200000D02*
X68505000Y-58345000D01*
X68505000Y-58345000D02*
X68505000Y-59455000D01*
X68505000Y-59455000D02*
X69100000Y-60050000D01*
X69100000Y-60050000D02*
X69150000Y-60050000D01*
%TO.N,k1*%
X65150000Y-58195000D02*
X65005000Y-58340000D01*
X65005000Y-58340000D02*
X65005000Y-59422304D01*
X65005000Y-59422304D02*
X65627696Y-60045000D01*
X65627696Y-60045000D02*
X65650000Y-60045000D01*
X61955000Y-58195000D02*
X61950000Y-58200000D01*
X62700000Y-58195000D02*
X61955000Y-58195000D01*
X63405000Y-56250000D02*
X63455000Y-56300000D01*
X65150000Y-55395000D02*
X65150000Y-55775581D01*
X65150000Y-55775581D02*
X65600000Y-56225581D01*
X62500000Y-56250000D02*
X63405000Y-56250000D01*
X62750000Y-55395000D02*
X62750000Y-55595000D01*
X62750000Y-55595000D02*
X63455000Y-56300000D01*
%TO.N,h*%
X65672304Y-59075000D02*
X65650000Y-59075000D01*
X66550000Y-60450000D02*
X66550000Y-59952696D01*
X66550000Y-59952696D02*
X65672304Y-59075000D01*
X70050000Y-59957696D02*
X69172304Y-59080000D01*
X70050000Y-60425000D02*
X70050000Y-59957696D01*
X69172304Y-59080000D02*
X69150000Y-59080000D01*
X72672304Y-59090000D02*
X72650000Y-59090000D01*
X73450000Y-60425000D02*
X73450000Y-59867696D01*
X73450000Y-59867696D02*
X72672304Y-59090000D01*
X77000000Y-60425000D02*
X77000000Y-59907696D01*
X77100000Y-60525000D02*
X77000000Y-60425000D01*
X77000000Y-59907696D02*
X76172304Y-59080000D01*
X76172304Y-59080000D02*
X76150000Y-59080000D01*
X80500000Y-60575000D02*
X80500000Y-59882696D01*
X80500000Y-59882696D02*
X79692304Y-59075000D01*
X79692304Y-59075000D02*
X79670000Y-59075000D01*
X84000000Y-60575000D02*
X84000000Y-59857696D01*
X84000000Y-59857696D02*
X83222304Y-59080000D01*
X83222304Y-59080000D02*
X83200000Y-59080000D01*
X87600000Y-60575000D02*
X87600000Y-59952696D01*
X87600000Y-59952696D02*
X86722304Y-59075000D01*
X86722304Y-59075000D02*
X86700000Y-59075000D01*
X91050000Y-60625000D02*
X91050000Y-59907696D01*
X91050000Y-59907696D02*
X90222304Y-59080000D01*
X90222304Y-59080000D02*
X90200000Y-59080000D01*
X94550000Y-60575000D02*
X94550000Y-59737304D01*
X94550000Y-59737304D02*
X93910196Y-59097500D01*
X93910196Y-59097500D02*
X93700000Y-59097500D01*
X98100000Y-60575000D02*
X98100000Y-60002696D01*
X98100000Y-60002696D02*
X97222304Y-59125000D01*
X97222304Y-59125000D02*
X97200000Y-59125000D01*
X101500000Y-60650000D02*
X101500000Y-59907696D01*
X101500000Y-59907696D02*
X100722304Y-59130000D01*
X100722304Y-59130000D02*
X100700000Y-59130000D01*
X104845000Y-59472501D02*
X104519999Y-59147500D01*
X104519999Y-59147500D02*
X104200000Y-59147500D01*
X105100000Y-60700000D02*
X104845000Y-60445000D01*
X104845000Y-60445000D02*
X104845000Y-59472501D01*
X107722304Y-59147500D02*
X107700000Y-59147500D01*
X108500000Y-60575000D02*
X108500000Y-59925196D01*
X108500000Y-59925196D02*
X107722304Y-59147500D01*
X114700000Y-59147500D02*
X115019999Y-59147500D01*
X115019999Y-59147500D02*
X115450000Y-59577501D01*
X115450000Y-59577501D02*
X115450000Y-60800000D01*
X112150000Y-60800000D02*
X112150000Y-60075196D01*
X112150000Y-60075196D02*
X111222304Y-59147500D01*
X111222304Y-59147500D02*
X111200000Y-59147500D01*
%TO.N,d*%
X109925000Y-59172500D02*
X109925000Y-59925000D01*
X109925000Y-59925000D02*
X109900000Y-59950000D01*
X113400000Y-59950000D02*
X113400000Y-59197500D01*
X113400000Y-59197500D02*
X113425000Y-59172500D01*
X106400000Y-59950000D02*
X106400000Y-59197500D01*
X106400000Y-59197500D02*
X106425000Y-59172500D01*
X99450000Y-59180000D02*
X99425000Y-59155000D01*
X99450000Y-59950000D02*
X99450000Y-59180000D01*
X95950000Y-59175000D02*
X95925000Y-59150000D01*
X95950000Y-59950000D02*
X95950000Y-59175000D01*
X92400000Y-59950000D02*
X92400000Y-59147500D01*
X92400000Y-59147500D02*
X92425000Y-59122500D01*
X88950000Y-60000000D02*
X88950000Y-59130000D01*
X88950000Y-59130000D02*
X88925000Y-59105000D01*
X85400000Y-59950000D02*
X85400000Y-59125000D01*
X85400000Y-59125000D02*
X85425000Y-59100000D01*
X81900000Y-59950000D02*
X81900000Y-59130000D01*
X81900000Y-59130000D02*
X81925000Y-59105000D01*
X78350000Y-59145000D02*
X78395000Y-59100000D01*
X78350000Y-59950000D02*
X78350000Y-59145000D01*
X74900000Y-59900000D02*
X74900000Y-59130000D01*
X74900000Y-59130000D02*
X74875000Y-59105000D01*
X71450000Y-59800000D02*
X71450000Y-59190000D01*
X71450000Y-59190000D02*
X71375000Y-59115000D01*
X67850000Y-59800000D02*
X67850000Y-59130000D01*
X64375000Y-59100000D02*
X64375000Y-59675000D01*
X64375000Y-59675000D02*
X64250000Y-59800000D01*
X67850000Y-59130000D02*
X67875000Y-59105000D01*
%TO.N,c*%
X64366549Y-57824999D02*
X64966548Y-57225000D01*
X64966548Y-57225000D02*
X65150000Y-57225000D01*
X67868326Y-57825000D02*
X68463326Y-57230000D01*
X68463326Y-57230000D02*
X68650000Y-57230000D01*
X71372061Y-57824999D02*
X71957060Y-57240000D01*
X71957060Y-57240000D02*
X72150000Y-57240000D01*
X75463327Y-57230000D02*
X75650000Y-57230000D01*
X74868327Y-57825000D02*
X75463327Y-57230000D01*
X78386550Y-57825000D02*
X78986550Y-57225000D01*
X78986550Y-57225000D02*
X79170000Y-57225000D01*
X81918326Y-57825000D02*
X82513326Y-57230000D01*
X82513326Y-57230000D02*
X82700000Y-57230000D01*
X85437119Y-57774999D02*
X85987118Y-57225000D01*
X85987118Y-57225000D02*
X86200000Y-57225000D01*
X89513327Y-57230000D02*
X89700000Y-57230000D01*
X88918327Y-57825000D02*
X89513327Y-57230000D01*
X92448537Y-57774999D02*
X92976036Y-57247500D01*
X92976036Y-57247500D02*
X93200000Y-57247500D01*
X95937119Y-57824999D02*
X96487118Y-57275000D01*
X96487118Y-57275000D02*
X96700000Y-57275000D01*
X99972666Y-57280000D02*
X100200000Y-57280000D01*
X99452667Y-57799999D02*
X99972666Y-57280000D01*
X102900000Y-57817500D02*
X103420000Y-57297500D01*
X103420000Y-57297500D02*
X103700000Y-57297500D01*
X106448537Y-57824999D02*
X106976036Y-57297500D01*
X106976036Y-57297500D02*
X107200000Y-57297500D01*
X114200000Y-57297500D02*
X113452500Y-57297500D01*
X110476038Y-57297500D02*
X110700000Y-57297500D01*
X113452500Y-57297500D02*
X113450000Y-57300000D01*
X109948538Y-57825000D02*
X110476038Y-57297500D01*
%TO.N,e*%
X111847500Y-57200000D02*
X111750000Y-57297500D01*
X112450000Y-57200000D02*
X111847500Y-57200000D01*
X108950000Y-57200000D02*
X108347500Y-57200000D01*
X108347500Y-57200000D02*
X108250000Y-57297500D01*
X105500000Y-57200000D02*
X104847500Y-57200000D01*
X104847500Y-57200000D02*
X104750000Y-57297500D01*
X101995554Y-57192500D02*
X101355000Y-57192500D01*
X101355000Y-57192500D02*
X101250000Y-57297500D01*
X98450000Y-57175000D02*
X97855000Y-57175000D01*
X97855000Y-57175000D02*
X97750000Y-57280000D01*
X94950000Y-57200000D02*
X94325000Y-57200000D01*
X94325000Y-57200000D02*
X94250000Y-57275000D01*
X90847500Y-57150000D02*
X90750000Y-57247500D01*
X91500000Y-57150000D02*
X90847500Y-57150000D01*
X88050000Y-57200000D02*
X87280000Y-57200000D01*
X87280000Y-57200000D02*
X87250000Y-57230000D01*
X84500000Y-57150000D02*
X83825000Y-57150000D01*
X83825000Y-57150000D02*
X83750000Y-57225000D01*
X80280000Y-57200000D02*
X80250000Y-57230000D01*
X80950000Y-57200000D02*
X80280000Y-57200000D01*
X77450000Y-57200000D02*
X76745000Y-57200000D01*
X76745000Y-57200000D02*
X76720000Y-57225000D01*
X73900000Y-57200000D02*
X73230000Y-57200000D01*
X73230000Y-57200000D02*
X73200000Y-57230000D01*
X70450000Y-57200000D02*
X69740000Y-57200000D01*
X69740000Y-57200000D02*
X69700000Y-57240000D01*
X66900000Y-57200000D02*
X66230000Y-57200000D01*
X62700000Y-57225000D02*
X63375000Y-57225000D01*
X63375000Y-57225000D02*
X63400000Y-57200000D01*
X66230000Y-57200000D02*
X66200000Y-57230000D01*
%TO.N,g*%
X113382369Y-55678134D02*
X113382369Y-56279869D01*
X113382369Y-56279869D02*
X113475000Y-56372500D01*
X109880001Y-55599122D02*
X109880001Y-56277501D01*
X109880001Y-56277501D02*
X109975000Y-56372500D01*
X106383466Y-56280966D02*
X106475000Y-56372500D01*
X106383466Y-55688293D02*
X106383466Y-56280966D01*
X102880001Y-55599122D02*
X102880001Y-56277501D01*
X102880001Y-56277501D02*
X102975000Y-56372500D01*
X99380001Y-55609115D02*
X99380001Y-56260001D01*
X99380001Y-56260001D02*
X99475000Y-56355000D01*
X95880415Y-55627394D02*
X95880415Y-56255415D01*
X95880415Y-56255415D02*
X95975000Y-56350000D01*
X92380001Y-55522457D02*
X92380001Y-56227501D01*
X92380001Y-56227501D02*
X92475000Y-56322500D01*
X88880001Y-56210001D02*
X88975000Y-56305000D01*
X88880001Y-55526222D02*
X88880001Y-56210001D01*
X85380001Y-55541115D02*
X85380001Y-56205001D01*
X85380001Y-56205001D02*
X85475000Y-56300000D01*
X81880689Y-55588261D02*
X81880689Y-56210689D01*
X81880689Y-56210689D02*
X81975000Y-56305000D01*
X78351344Y-55593660D02*
X78351344Y-56206344D01*
X78351344Y-56206344D02*
X78445000Y-56300000D01*
X74837863Y-55650352D02*
X74837863Y-56217863D01*
X74837863Y-56217863D02*
X74925000Y-56305000D01*
X71330189Y-55585770D02*
X71330189Y-56220189D01*
X71330189Y-56220189D02*
X71425000Y-56315000D01*
X67831477Y-56211477D02*
X67925000Y-56305000D01*
X64425000Y-56300000D02*
X64425000Y-55693680D01*
X64425000Y-55693680D02*
X64331901Y-55600581D01*
X67831477Y-55600429D02*
X67831477Y-56211477D01*
%TO.N,a*%
X99485000Y-53555000D02*
X99485000Y-53235001D01*
X95985000Y-53550000D02*
X95985000Y-53230001D01*
X88985000Y-53505000D02*
X88985000Y-53185001D01*
%TO.N,b*%
X110800000Y-53600000D02*
X110800000Y-54397500D01*
X110800000Y-54397500D02*
X110700000Y-54497500D01*
X114280000Y-53650000D02*
X114280000Y-54417500D01*
X114280000Y-54417500D02*
X114200000Y-54497500D01*
X103800000Y-53550000D02*
X103800000Y-54397500D01*
X103800000Y-54397500D02*
X103700000Y-54497500D01*
X100280000Y-53609753D02*
X100280000Y-54400000D01*
X100280000Y-54400000D02*
X100200000Y-54480000D01*
X96850000Y-53550000D02*
X96850000Y-54325000D01*
X96850000Y-54325000D02*
X96700000Y-54475000D01*
X93300000Y-53550000D02*
X93300000Y-54347500D01*
X93300000Y-54347500D02*
X93200000Y-54447500D01*
X89800000Y-53550000D02*
X89800000Y-54330000D01*
X89800000Y-54330000D02*
X89700000Y-54430000D01*
X86280000Y-53550000D02*
X86280000Y-54345000D01*
X86280000Y-54345000D02*
X86200000Y-54425000D01*
X82850000Y-53550000D02*
X82850000Y-54280000D01*
X82850000Y-54280000D02*
X82700000Y-54430000D01*
X79300000Y-53600000D02*
X79300000Y-54295000D01*
X79300000Y-54295000D02*
X79170000Y-54425000D01*
X75750000Y-53600000D02*
X75750000Y-54330000D01*
X75750000Y-54330000D02*
X75650000Y-54430000D01*
X72450000Y-53550000D02*
X72450000Y-54140000D01*
X72450000Y-54140000D02*
X72150000Y-54440000D01*
X65150000Y-54425000D02*
X65150000Y-53800000D01*
X65150000Y-53800000D02*
X65400000Y-53550000D01*
X68850000Y-53550000D02*
X68850000Y-54230000D01*
X68850000Y-54230000D02*
X68650000Y-54430000D01*
%TO.N,f*%
X113000000Y-54350000D02*
X111947500Y-54350000D01*
X111947500Y-54350000D02*
X111800000Y-54497500D01*
X108492705Y-54304795D02*
X108300000Y-54497500D01*
X109509979Y-54304795D02*
X108492705Y-54304795D01*
X106000000Y-54300000D02*
X104997500Y-54300000D01*
X104997500Y-54300000D02*
X104800000Y-54497500D01*
X102460173Y-54322511D02*
X101474989Y-54322511D01*
X101474989Y-54322511D02*
X101300000Y-54497500D01*
X99000000Y-54300000D02*
X97980000Y-54300000D01*
X97980000Y-54300000D02*
X97800000Y-54480000D01*
X95500000Y-54300000D02*
X94475000Y-54300000D01*
X94475000Y-54300000D02*
X94300000Y-54475000D01*
X74450000Y-54400000D02*
X73280000Y-54400000D01*
X73280000Y-54400000D02*
X73250000Y-54430000D01*
X62750000Y-54425000D02*
X63825000Y-54425000D01*
X63825000Y-54425000D02*
X63850000Y-54400000D01*
%TO.N,d*%
X102950000Y-59197500D02*
X102925000Y-59172500D01*
X102950000Y-59900000D02*
X102950000Y-59197500D01*
%TO.N,k1*%
X63465000Y-53500000D02*
X62100000Y-53500000D01*
%TD*%
M02*
