%TF.GenerationSoftware,KiCad,Pcbnew,8.0.8-2.fc41*%
%TF.CreationDate,2025-02-01T06:38:30+00:00*%
%TF.ProjectId,small_led_a,736d616c-6c5f-46c6-9564-5f612e6b6963,rev?*%
%TF.SameCoordinates,Original*%
%TF.FileFunction,Copper,L4,Bot*%
%TF.FilePolarity,Positive*%
%FSLAX46Y46*%
G04 Gerber Fmt 4.6, Leading zero omitted, Abs format (unit mm)*
G04 Created by KiCad (PCBNEW 8.0.8-2.fc41) date 2025-02-01 06:38:30*
%MOMM*%
%LPD*%
G01*
G04 APERTURE LIST*
%TA.AperFunction,ComponentPad*%
%ADD10R,1.000000X1.000000*%
%TD*%
%TA.AperFunction,ComponentPad*%
%ADD11O,1.000000X1.000000*%
%TD*%
%TA.AperFunction,ViaPad*%
%ADD12C,0.600000*%
%TD*%
%TA.AperFunction,Conductor*%
%ADD13C,0.250000*%
%TD*%
G04 APERTURE END LIST*
D10*
%TO.P,J1,1,Pin_1*%
%TO.N,a*%
X71760000Y-63400000D03*
D11*
%TO.P,J1,2,Pin_2*%
%TO.N,b*%
X73030000Y-63400000D03*
%TO.P,J1,3,Pin_3*%
%TO.N,c*%
X74300000Y-63400000D03*
%TO.P,J1,4,Pin_4*%
%TO.N,d*%
X75570000Y-63400000D03*
%TO.P,J1,5,Pin_5*%
%TO.N,e*%
X76840000Y-63400000D03*
%TO.P,J1,6,Pin_6*%
%TO.N,f*%
X78110000Y-63400000D03*
%TO.P,J1,7,Pin_7*%
%TO.N,g*%
X79380000Y-63400000D03*
%TO.P,J1,8,Pin_8*%
%TO.N,h*%
X80650000Y-63400000D03*
%TO.P,J1,9,Pin_9*%
%TO.N,k1*%
X81920000Y-63400000D03*
%TO.P,J1,10,Pin_10*%
%TO.N,k2*%
X83190000Y-63400000D03*
%TO.P,J1,11,Pin_11*%
%TO.N,k3*%
X84460000Y-63400000D03*
%TO.P,J1,12,Pin_12*%
%TO.N,k4*%
X85730000Y-63400000D03*
%TO.P,J1,13,Pin_13*%
%TO.N,k5*%
X87000000Y-63400000D03*
%TO.P,J1,14,Pin_14*%
%TO.N,k6*%
X88270000Y-63400000D03*
%TO.P,J1,15,Pin_15*%
%TO.N,k7*%
X89540000Y-63400000D03*
%TO.P,J1,16,Pin_16*%
%TO.N,k8*%
X90810000Y-63400000D03*
%TO.P,J1,17,Pin_17*%
%TO.N,k9*%
X92080000Y-63400000D03*
%TO.P,J1,18,Pin_18*%
%TO.N,k10*%
X93350000Y-63400000D03*
%TO.P,J1,19,Pin_19*%
%TO.N,k11*%
X94620000Y-63400000D03*
%TO.P,J1,20,Pin_20*%
%TO.N,k12*%
X95890000Y-63400000D03*
%TO.P,J1,21,Pin_21*%
%TO.N,k13*%
X97160000Y-63400000D03*
%TO.P,J1,22,Pin_22*%
%TO.N,k14*%
X98430000Y-63400000D03*
%TO.P,J1,23,Pin_23*%
%TO.N,k15*%
X99700000Y-63400000D03*
%TD*%
D12*
%TO.N,a*%
X67950000Y-52800000D03*
%TO.N,b*%
X71000000Y-61050000D03*
%TO.N,k4*%
X74050000Y-61850000D03*
%TO.N,e*%
X75850000Y-61250000D03*
%TO.N,f*%
X78050000Y-61300000D03*
%TO.N,g*%
X79250000Y-61450000D03*
%TO.N,k1*%
X62600000Y-63650000D03*
%TO.N,k2*%
X82550000Y-62150000D03*
%TO.N,k5*%
X86293058Y-62306942D03*
%TO.N,k3*%
X69150000Y-64200000D03*
%TO.N,k4*%
X76300000Y-62300000D03*
X81850000Y-61200000D03*
%TO.N,k15*%
X114900000Y-58250000D03*
X114450000Y-63300000D03*
%TO.N,k4*%
X73450000Y-52800000D03*
%TO.N,k5*%
X76900000Y-52950000D03*
%TO.N,k6*%
X80500000Y-52900000D03*
%TO.N,k7*%
X84050000Y-52800000D03*
%TO.N,k8*%
X87400000Y-52800000D03*
%TO.N,k9*%
X90950000Y-52850000D03*
%TO.N,k10*%
X94550000Y-52800000D03*
%TO.N,k11*%
X98100000Y-52850000D03*
%TO.N,k12*%
X101500000Y-52984753D03*
%TO.N,k13*%
X105000000Y-52925000D03*
%TO.N,k14*%
X108500000Y-52900000D03*
%TO.N,k15*%
X111900000Y-52900000D03*
%TO.N,k5*%
X76750000Y-56275352D03*
X77400000Y-58450000D03*
%TO.N,k6*%
X80200000Y-56218660D03*
X80950000Y-58450000D03*
%TO.N,k7*%
X83850000Y-56213261D03*
X84250000Y-58399999D03*
%TO.N,k8*%
X87250000Y-56166115D03*
X87900000Y-58450000D03*
%TO.N,k9*%
X90700000Y-56200000D03*
X91550000Y-58399999D03*
%TO.N,k10*%
X94250000Y-56150000D03*
X94900000Y-58449999D03*
%TO.N,k11*%
X97850000Y-56252394D03*
X98350000Y-58424999D03*
%TO.N,k12*%
X101400000Y-56234115D03*
X101750000Y-58442500D03*
%TO.N,k13*%
X104900000Y-56313293D03*
X105400000Y-58449999D03*
%TO.N,k14*%
X108350000Y-56313293D03*
X108950000Y-58450000D03*
%TO.N,k15*%
X111750000Y-56250000D03*
X112300000Y-58450000D03*
%TO.N,k4*%
X73400000Y-58600000D03*
X73350000Y-56435000D03*
%TO.N,h*%
X80650000Y-61800000D03*
%TO.N,k3*%
X72000000Y-58501132D03*
X72450000Y-56250000D03*
X70200000Y-58449999D03*
X69750000Y-56400000D03*
X69700000Y-52925000D03*
%TO.N,k2*%
X66263866Y-58449999D03*
X66158949Y-52925000D03*
X66389216Y-56356506D03*
X68950000Y-56250000D03*
%TO.N,k1*%
X61950000Y-58200000D03*
X62100000Y-53500000D03*
X62500000Y-56250000D03*
X65600000Y-56225581D03*
%TO.N,h*%
X66550000Y-60450000D03*
X70050000Y-60425000D03*
X73450000Y-60425000D03*
X77100000Y-60525000D03*
X80500000Y-60575000D03*
X84000000Y-60575000D03*
X87600000Y-60575000D03*
X91050000Y-60625000D03*
X94550000Y-60575000D03*
X98100000Y-60575000D03*
X101500000Y-60650000D03*
X105100000Y-60700000D03*
X108500000Y-60575000D03*
X112150000Y-60800000D03*
X115450000Y-60800000D03*
%TO.N,d*%
X113400000Y-59950000D03*
X109900000Y-59950000D03*
X106400000Y-59950000D03*
X102950000Y-59900000D03*
X99450000Y-59950000D03*
X95950000Y-59950000D03*
X92400000Y-59950000D03*
X88950000Y-60000000D03*
X85400000Y-59950000D03*
X81900000Y-59950000D03*
X78350000Y-59950000D03*
X74900000Y-59900000D03*
X71450000Y-59800000D03*
X67850000Y-59800000D03*
X64250000Y-59800000D03*
%TO.N,c*%
X64366549Y-57824999D03*
X67868326Y-57825000D03*
X71372061Y-57824999D03*
X74868327Y-57825000D03*
X78386550Y-57825000D03*
X81918326Y-57825000D03*
X85437119Y-57774999D03*
X88918327Y-57825000D03*
X92448537Y-57774999D03*
X95937119Y-57824999D03*
X99452667Y-57799999D03*
X102900000Y-57817500D03*
X106448537Y-57824999D03*
X109948538Y-57825000D03*
X113450000Y-57300000D03*
%TO.N,e*%
X112450000Y-57200000D03*
X108950000Y-57200000D03*
X105500000Y-57200000D03*
X101995554Y-57192500D03*
X98450000Y-57175000D03*
X94950000Y-57200000D03*
X91500000Y-57150000D03*
X88050000Y-57200000D03*
X84500000Y-57150000D03*
X80950000Y-57200000D03*
X77450000Y-57200000D03*
X73900000Y-57200000D03*
X70450000Y-57200000D03*
X66900000Y-57200000D03*
X63400000Y-57200000D03*
%TO.N,g*%
X113382369Y-55678134D03*
X109880001Y-55599122D03*
X106383466Y-55688293D03*
X102880001Y-55599122D03*
X99380001Y-55609115D03*
X95880415Y-55627394D03*
X92380001Y-55522457D03*
X88880001Y-55526222D03*
X85380001Y-55541115D03*
X81880689Y-55588261D03*
X78351344Y-55593660D03*
X74837863Y-55650352D03*
X71330189Y-55585770D03*
X67831477Y-55600429D03*
X64331901Y-55600581D03*
%TO.N,b*%
X114280000Y-53650000D03*
X110800000Y-53600000D03*
X107300000Y-53550000D03*
X103800000Y-53550000D03*
X100280000Y-53609753D03*
X96850000Y-53550000D03*
X93300000Y-53550000D03*
X89800000Y-53550000D03*
X86280000Y-53550000D03*
X82850000Y-53550000D03*
X79300000Y-53600000D03*
X75750000Y-53600000D03*
X72450000Y-53550000D03*
X68850000Y-53550000D03*
X65400000Y-53550000D03*
%TO.N,f*%
X113000000Y-54350000D03*
X109509979Y-54304795D03*
X106000000Y-54300000D03*
X102460173Y-54322511D03*
X99000000Y-54300000D03*
X95500000Y-54300000D03*
X92021191Y-54261781D03*
X88474484Y-54246866D03*
X84996974Y-54227753D03*
X81545672Y-54258160D03*
X78016987Y-54253855D03*
X74450000Y-54400000D03*
X70941949Y-54246053D03*
X67424312Y-54246968D03*
X63850000Y-54400000D03*
%TD*%
D13*
%TO.N,f*%
X78110000Y-61360000D02*
X78050000Y-61300000D01*
X78110000Y-63400000D02*
X78110000Y-61360000D01*
%TO.N,g*%
X79380000Y-61580000D02*
X79250000Y-61450000D01*
X79380000Y-63400000D02*
X79380000Y-61580000D01*
%TO.N,k1*%
X62600000Y-63650000D02*
X62600000Y-58850000D01*
X62600000Y-58850000D02*
X61950000Y-58200000D01*
%TO.N,h*%
X80650000Y-61800000D02*
X80650000Y-63400000D01*
%TO.N,f*%
X67577344Y-54400000D02*
X67424312Y-54246968D01*
X70941949Y-54246053D02*
X71095896Y-54400000D01*
X70941949Y-54246053D02*
X70788002Y-54400000D01*
X70788002Y-54400000D02*
X67577344Y-54400000D01*
X71095896Y-54400000D02*
X74450000Y-54400000D01*
X78163132Y-54400000D02*
X81403832Y-54400000D01*
X78016987Y-54253855D02*
X78163132Y-54400000D01*
X81403832Y-54400000D02*
X81545672Y-54258160D01*
X74450000Y-54400000D02*
X77870842Y-54400000D01*
X77870842Y-54400000D02*
X78016987Y-54253855D01*
X81545672Y-54258160D02*
X81687512Y-54400000D01*
X81687512Y-54400000D02*
X84824727Y-54400000D01*
X84824727Y-54400000D02*
X84996974Y-54227753D01*
X84996974Y-54227753D02*
X85119221Y-54350000D01*
X85119221Y-54350000D02*
X88371350Y-54350000D01*
X88371350Y-54350000D02*
X88474484Y-54246866D01*
X88474484Y-54246866D02*
X88577618Y-54350000D01*
X88577618Y-54350000D02*
X91932972Y-54350000D01*
X91932972Y-54350000D02*
X92021191Y-54261781D01*
X92021191Y-54261781D02*
X92109410Y-54350000D01*
X92109410Y-54350000D02*
X95450000Y-54350000D01*
X95450000Y-54350000D02*
X95500000Y-54300000D01*
%TO.N,k2*%
X66445722Y-56300000D02*
X66389216Y-56356506D01*
X68900000Y-56300000D02*
X66445722Y-56300000D01*
X68950000Y-56250000D02*
X68900000Y-56300000D01*
%TO.N,f*%
X63850000Y-54400000D02*
X67271280Y-54400000D01*
X67271280Y-54400000D02*
X67424312Y-54246968D01*
%TO.N,k1*%
X61950000Y-56800000D02*
X62500000Y-56250000D01*
X61950000Y-58200000D02*
X61950000Y-56800000D01*
X62100000Y-53500000D02*
X62100000Y-55850000D01*
X62100000Y-55850000D02*
X62500000Y-56250000D01*
X62524419Y-56225581D02*
X62500000Y-56250000D01*
X65600000Y-56225581D02*
X62524419Y-56225581D01*
%TO.N,h*%
X66575000Y-60425000D02*
X66550000Y-60450000D01*
X70050000Y-60425000D02*
X66575000Y-60425000D01*
X73450000Y-60425000D02*
X70050000Y-60425000D01*
X73550000Y-60525000D02*
X73450000Y-60425000D01*
X77100000Y-60525000D02*
X73550000Y-60525000D01*
X77150000Y-60575000D02*
X77100000Y-60525000D01*
X80500000Y-60575000D02*
X77150000Y-60575000D01*
X84000000Y-60575000D02*
X80500000Y-60575000D01*
X87600000Y-60575000D02*
X84000000Y-60575000D01*
X87650000Y-60625000D02*
X87600000Y-60575000D01*
X91050000Y-60625000D02*
X87650000Y-60625000D01*
X91100000Y-60575000D02*
X91050000Y-60625000D01*
X94550000Y-60575000D02*
X91100000Y-60575000D01*
X98100000Y-60575000D02*
X94550000Y-60575000D01*
X98175000Y-60650000D02*
X98100000Y-60575000D01*
X101500000Y-60650000D02*
X98175000Y-60650000D01*
X101550000Y-60700000D02*
X101500000Y-60650000D01*
X105100000Y-60700000D02*
X101550000Y-60700000D01*
X105225000Y-60575000D02*
X105100000Y-60700000D01*
X108500000Y-60575000D02*
X105225000Y-60575000D01*
X108725000Y-60800000D02*
X108500000Y-60575000D01*
X112150000Y-60800000D02*
X108725000Y-60800000D01*
X115450000Y-60800000D02*
X112150000Y-60800000D01*
%TO.N,d*%
X109900000Y-59950000D02*
X113400000Y-59950000D01*
X106400000Y-59950000D02*
X109900000Y-59950000D01*
X95950000Y-59950000D02*
X99450000Y-59950000D01*
X92400000Y-59950000D02*
X95950000Y-59950000D01*
X92350000Y-60000000D02*
X92400000Y-59950000D01*
X88950000Y-60000000D02*
X92350000Y-60000000D01*
X88900000Y-59950000D02*
X88950000Y-60000000D01*
X85400000Y-59950000D02*
X88900000Y-59950000D01*
X81900000Y-59950000D02*
X85400000Y-59950000D01*
X78350000Y-59950000D02*
X81900000Y-59950000D01*
X78300000Y-59900000D02*
X78350000Y-59950000D01*
X74900000Y-59900000D02*
X78300000Y-59900000D01*
X74800000Y-59800000D02*
X74900000Y-59900000D01*
X71450000Y-59800000D02*
X74800000Y-59800000D01*
X67850000Y-59800000D02*
X71450000Y-59800000D01*
X64250000Y-59800000D02*
X67850000Y-59800000D01*
%TO.N,c*%
X64366550Y-57825000D02*
X64366549Y-57824999D01*
X67868326Y-57825000D02*
X64366550Y-57825000D01*
X67868327Y-57824999D02*
X67868326Y-57825000D01*
X71372061Y-57824999D02*
X67868327Y-57824999D01*
X71372062Y-57825000D02*
X71372061Y-57824999D01*
X74868327Y-57825000D02*
X71372062Y-57825000D01*
X78386550Y-57825000D02*
X74868327Y-57825000D01*
X81918326Y-57825000D02*
X78386550Y-57825000D01*
X81968327Y-57774999D02*
X81918326Y-57825000D01*
X85437119Y-57774999D02*
X81968327Y-57774999D01*
X85487120Y-57825000D02*
X85437119Y-57774999D01*
X88918327Y-57825000D02*
X85487120Y-57825000D01*
X88968328Y-57774999D02*
X88918327Y-57825000D01*
X92448537Y-57774999D02*
X88968328Y-57774999D01*
X92498537Y-57824999D02*
X92448537Y-57774999D01*
X95937119Y-57824999D02*
X92498537Y-57824999D01*
X95962119Y-57799999D02*
X95937119Y-57824999D01*
X99452667Y-57799999D02*
X95962119Y-57799999D01*
X99470168Y-57817500D02*
X99452667Y-57799999D01*
X102900000Y-57817500D02*
X99470168Y-57817500D01*
X102907499Y-57824999D02*
X102900000Y-57817500D01*
X106448537Y-57824999D02*
X102907499Y-57824999D01*
X106448538Y-57825000D02*
X106448537Y-57824999D01*
X109948538Y-57825000D02*
X106448538Y-57825000D01*
X113450000Y-57300000D02*
X112925000Y-57825000D01*
X112925000Y-57825000D02*
X109948538Y-57825000D01*
%TO.N,e*%
X108950000Y-57200000D02*
X112450000Y-57200000D01*
X105500000Y-57200000D02*
X108950000Y-57200000D01*
X105492500Y-57192500D02*
X105500000Y-57200000D01*
X101995554Y-57192500D02*
X105492500Y-57192500D01*
X101978054Y-57175000D02*
X101995554Y-57192500D01*
X98450000Y-57175000D02*
X101978054Y-57175000D01*
X98425000Y-57200000D02*
X98450000Y-57175000D01*
X94950000Y-57200000D02*
X98425000Y-57200000D01*
X94900000Y-57150000D02*
X94950000Y-57200000D01*
X91500000Y-57150000D02*
X94900000Y-57150000D01*
X91450000Y-57200000D02*
X91500000Y-57150000D01*
X88050000Y-57200000D02*
X91450000Y-57200000D01*
X88000000Y-57150000D02*
X88050000Y-57200000D01*
X84500000Y-57150000D02*
X88000000Y-57150000D01*
X84450000Y-57200000D02*
X84500000Y-57150000D01*
X80950000Y-57200000D02*
X84450000Y-57200000D01*
X77450000Y-57200000D02*
X80950000Y-57200000D01*
X73900000Y-57200000D02*
X77450000Y-57200000D01*
X70450000Y-57200000D02*
X73900000Y-57200000D01*
X66900000Y-57200000D02*
X70450000Y-57200000D01*
X63400000Y-57200000D02*
X66900000Y-57200000D01*
%TO.N,g*%
X113303357Y-55599122D02*
X113382369Y-55678134D01*
X109880001Y-55599122D02*
X113303357Y-55599122D01*
X109790830Y-55688293D02*
X109880001Y-55599122D01*
X106383466Y-55688293D02*
X109790830Y-55688293D01*
X103038293Y-55688293D02*
X106383466Y-55688293D01*
X102949122Y-55599122D02*
X103038293Y-55688293D01*
X102880001Y-55599122D02*
X102949122Y-55599122D01*
X102870008Y-55609115D02*
X102880001Y-55599122D01*
X99380001Y-55609115D02*
X102870008Y-55609115D01*
X99361722Y-55627394D02*
X99380001Y-55609115D01*
X95880415Y-55627394D02*
X99361722Y-55627394D01*
X95775478Y-55522457D02*
X95880415Y-55627394D01*
X92380001Y-55522457D02*
X95775478Y-55522457D01*
X92376236Y-55526222D02*
X92380001Y-55522457D01*
X88880001Y-55526222D02*
X92376236Y-55526222D01*
X88865108Y-55541115D02*
X88880001Y-55526222D01*
X85380001Y-55541115D02*
X88865108Y-55541115D01*
X85332855Y-55588261D02*
X85380001Y-55541115D01*
X81880689Y-55588261D02*
X85332855Y-55588261D01*
X81875290Y-55593660D02*
X81880689Y-55588261D01*
X78351344Y-55593660D02*
X81875290Y-55593660D01*
X78294652Y-55650352D02*
X78351344Y-55593660D01*
X74837863Y-55650352D02*
X78294652Y-55650352D01*
X74773281Y-55585770D02*
X74837863Y-55650352D01*
X71330189Y-55585770D02*
X74773281Y-55585770D01*
X71315530Y-55600429D02*
X71330189Y-55585770D01*
X67831477Y-55600429D02*
X71315530Y-55600429D01*
X67831325Y-55600581D02*
X67831477Y-55600429D01*
X64331901Y-55600581D02*
X67831325Y-55600581D01*
%TO.N,b*%
X114230000Y-53600000D02*
X114280000Y-53650000D01*
X110800000Y-53600000D02*
X114230000Y-53600000D01*
X110750000Y-53550000D02*
X110800000Y-53600000D01*
X107300000Y-53550000D02*
X110750000Y-53550000D01*
X103800000Y-53550000D02*
X107300000Y-53550000D01*
X103740247Y-53609753D02*
X103800000Y-53550000D01*
X100280000Y-53609753D02*
X103740247Y-53609753D01*
X100220247Y-53550000D02*
X100280000Y-53609753D01*
X96850000Y-53550000D02*
X100220247Y-53550000D01*
X93300000Y-53550000D02*
X96850000Y-53550000D01*
X89800000Y-53550000D02*
X93300000Y-53550000D01*
X86280000Y-53550000D02*
X89800000Y-53550000D01*
X82850000Y-53550000D02*
X86280000Y-53550000D01*
X82800000Y-53600000D02*
X82850000Y-53550000D01*
X79300000Y-53600000D02*
X82800000Y-53600000D01*
X75750000Y-53600000D02*
X79300000Y-53600000D01*
X75700000Y-53550000D02*
X75750000Y-53600000D01*
X72450000Y-53550000D02*
X75700000Y-53550000D01*
X68850000Y-53550000D02*
X72450000Y-53550000D01*
X65400000Y-53550000D02*
X68850000Y-53550000D01*
%TO.N,f*%
X112954795Y-54304795D02*
X113000000Y-54350000D01*
X109509979Y-54304795D02*
X112954795Y-54304795D01*
X109505184Y-54300000D02*
X109509979Y-54304795D01*
X106000000Y-54300000D02*
X109505184Y-54300000D01*
X105977489Y-54322511D02*
X106000000Y-54300000D01*
X102460173Y-54322511D02*
X105977489Y-54322511D01*
X102437662Y-54300000D02*
X102460173Y-54322511D01*
X99000000Y-54300000D02*
X102437662Y-54300000D01*
X95500000Y-54300000D02*
X99000000Y-54300000D01*
%TO.N,d*%
X102950000Y-59900000D02*
X106350000Y-59900000D01*
X106350000Y-59900000D02*
X106400000Y-59950000D01*
X102900000Y-59950000D02*
X102950000Y-59900000D01*
X99450000Y-59950000D02*
X102900000Y-59950000D01*
%TD*%
M02*
