%TF.GenerationSoftware,KiCad,Pcbnew,8.0.8-2.fc41*%
%TF.CreationDate,2025-02-01T06:38:31+00:00*%
%TF.ProjectId,small_led_a,736d616c-6c5f-46c6-9564-5f612e6b6963,rev?*%
%TF.SameCoordinates,Original*%
%TF.FileFunction,Legend,Top*%
%TF.FilePolarity,Positive*%
%FSLAX46Y46*%
G04 Gerber Fmt 4.6, Leading zero omitted, Abs format (unit mm)*
G04 Created by KiCad (PCBNEW 8.0.8-2.fc41) date 2025-02-01 06:38:31*
%MOMM*%
%LPD*%
G01*
G04 APERTURE LIST*
%ADD10C,0.150000*%
%ADD11C,0.100000*%
%ADD12C,0.120000*%
G04 APERTURE END LIST*
D10*
X69519819Y-63733333D02*
X70234104Y-63733333D01*
X70234104Y-63733333D02*
X70376961Y-63780952D01*
X70376961Y-63780952D02*
X70472200Y-63876190D01*
X70472200Y-63876190D02*
X70519819Y-64019047D01*
X70519819Y-64019047D02*
X70519819Y-64114285D01*
X70519819Y-62733333D02*
X70519819Y-63304761D01*
X70519819Y-63019047D02*
X69519819Y-63019047D01*
X69519819Y-63019047D02*
X69662676Y-63114285D01*
X69662676Y-63114285D02*
X69757914Y-63209523D01*
X69757914Y-63209523D02*
X69805533Y-63304761D01*
D11*
%TO.C,U15*%
X114750000Y-60722500D02*
G75*
G02*
X114650000Y-60722500I-50000J0D01*
G01*
X114650000Y-60722500D02*
G75*
G02*
X114750000Y-60722500I50000J0D01*
G01*
X114250000Y-58872500D02*
G75*
G02*
X114150000Y-58872500I-50000J0D01*
G01*
X114150000Y-58872500D02*
G75*
G02*
X114250000Y-58872500I50000J0D01*
G01*
X114250000Y-56072500D02*
G75*
G02*
X114150000Y-56072500I-50000J0D01*
G01*
X114150000Y-56072500D02*
G75*
G02*
X114250000Y-56072500I50000J0D01*
G01*
X111960000Y-53572500D02*
G75*
G02*
X111860000Y-53572500I-50000J0D01*
G01*
X111860000Y-53572500D02*
G75*
G02*
X111960000Y-53572500I50000J0D01*
G01*
X111950000Y-56372500D02*
G75*
G02*
X111850000Y-56372500I-50000J0D01*
G01*
X111850000Y-56372500D02*
G75*
G02*
X111950000Y-56372500I50000J0D01*
G01*
X111900000Y-59172500D02*
G75*
G02*
X111800000Y-59172500I-50000J0D01*
G01*
X111800000Y-59172500D02*
G75*
G02*
X111900000Y-59172500I50000J0D01*
G01*
X111850000Y-56072500D02*
G75*
G02*
X111750000Y-56072500I-50000J0D01*
G01*
X111750000Y-56072500D02*
G75*
G02*
X111850000Y-56072500I50000J0D01*
G01*
X111800000Y-58872500D02*
G75*
G02*
X111700000Y-58872500I-50000J0D01*
G01*
X111700000Y-58872500D02*
G75*
G02*
X111800000Y-58872500I50000J0D01*
G01*
%TO.C,U14*%
X108300000Y-58872500D02*
G75*
G02*
X108200000Y-58872500I-50000J0D01*
G01*
X108200000Y-58872500D02*
G75*
G02*
X108300000Y-58872500I50000J0D01*
G01*
X108350000Y-56072500D02*
G75*
G02*
X108250000Y-56072500I-50000J0D01*
G01*
X108250000Y-56072500D02*
G75*
G02*
X108350000Y-56072500I50000J0D01*
G01*
X108400000Y-59172500D02*
G75*
G02*
X108300000Y-59172500I-50000J0D01*
G01*
X108300000Y-59172500D02*
G75*
G02*
X108400000Y-59172500I50000J0D01*
G01*
X108450000Y-56372500D02*
G75*
G02*
X108350000Y-56372500I-50000J0D01*
G01*
X108350000Y-56372500D02*
G75*
G02*
X108450000Y-56372500I50000J0D01*
G01*
X108460000Y-53572500D02*
G75*
G02*
X108360000Y-53572500I-50000J0D01*
G01*
X108360000Y-53572500D02*
G75*
G02*
X108460000Y-53572500I50000J0D01*
G01*
X110750000Y-56072500D02*
G75*
G02*
X110650000Y-56072500I-50000J0D01*
G01*
X110650000Y-56072500D02*
G75*
G02*
X110750000Y-56072500I50000J0D01*
G01*
X110750000Y-58872500D02*
G75*
G02*
X110650000Y-58872500I-50000J0D01*
G01*
X110650000Y-58872500D02*
G75*
G02*
X110750000Y-58872500I50000J0D01*
G01*
X111250000Y-60722500D02*
G75*
G02*
X111150000Y-60722500I-50000J0D01*
G01*
X111150000Y-60722500D02*
G75*
G02*
X111250000Y-60722500I50000J0D01*
G01*
%TO.C,U13*%
X104800000Y-58872500D02*
G75*
G02*
X104700000Y-58872500I-50000J0D01*
G01*
X104700000Y-58872500D02*
G75*
G02*
X104800000Y-58872500I50000J0D01*
G01*
X104850000Y-56072500D02*
G75*
G02*
X104750000Y-56072500I-50000J0D01*
G01*
X104750000Y-56072500D02*
G75*
G02*
X104850000Y-56072500I50000J0D01*
G01*
X104900000Y-59172500D02*
G75*
G02*
X104800000Y-59172500I-50000J0D01*
G01*
X104800000Y-59172500D02*
G75*
G02*
X104900000Y-59172500I50000J0D01*
G01*
X104950000Y-56372500D02*
G75*
G02*
X104850000Y-56372500I-50000J0D01*
G01*
X104850000Y-56372500D02*
G75*
G02*
X104950000Y-56372500I50000J0D01*
G01*
X104960000Y-53572500D02*
G75*
G02*
X104860000Y-53572500I-50000J0D01*
G01*
X104860000Y-53572500D02*
G75*
G02*
X104960000Y-53572500I50000J0D01*
G01*
X107250000Y-56072500D02*
G75*
G02*
X107150000Y-56072500I-50000J0D01*
G01*
X107150000Y-56072500D02*
G75*
G02*
X107250000Y-56072500I50000J0D01*
G01*
X107250000Y-58872500D02*
G75*
G02*
X107150000Y-58872500I-50000J0D01*
G01*
X107150000Y-58872500D02*
G75*
G02*
X107250000Y-58872500I50000J0D01*
G01*
X107750000Y-60722500D02*
G75*
G02*
X107650000Y-60722500I-50000J0D01*
G01*
X107650000Y-60722500D02*
G75*
G02*
X107750000Y-60722500I50000J0D01*
G01*
%TO.C,U12*%
X101300000Y-58872500D02*
G75*
G02*
X101200000Y-58872500I-50000J0D01*
G01*
X101200000Y-58872500D02*
G75*
G02*
X101300000Y-58872500I50000J0D01*
G01*
X101350000Y-56072500D02*
G75*
G02*
X101250000Y-56072500I-50000J0D01*
G01*
X101250000Y-56072500D02*
G75*
G02*
X101350000Y-56072500I50000J0D01*
G01*
X101400000Y-59172500D02*
G75*
G02*
X101300000Y-59172500I-50000J0D01*
G01*
X101300000Y-59172500D02*
G75*
G02*
X101400000Y-59172500I50000J0D01*
G01*
X101450000Y-56372500D02*
G75*
G02*
X101350000Y-56372500I-50000J0D01*
G01*
X101350000Y-56372500D02*
G75*
G02*
X101450000Y-56372500I50000J0D01*
G01*
X101460000Y-53572500D02*
G75*
G02*
X101360000Y-53572500I-50000J0D01*
G01*
X101360000Y-53572500D02*
G75*
G02*
X101460000Y-53572500I50000J0D01*
G01*
X103750000Y-56072500D02*
G75*
G02*
X103650000Y-56072500I-50000J0D01*
G01*
X103650000Y-56072500D02*
G75*
G02*
X103750000Y-56072500I50000J0D01*
G01*
X103750000Y-58872500D02*
G75*
G02*
X103650000Y-58872500I-50000J0D01*
G01*
X103650000Y-58872500D02*
G75*
G02*
X103750000Y-58872500I50000J0D01*
G01*
X104250000Y-60722500D02*
G75*
G02*
X104150000Y-60722500I-50000J0D01*
G01*
X104150000Y-60722500D02*
G75*
G02*
X104250000Y-60722500I50000J0D01*
G01*
%TO.C,U11*%
X97800000Y-58855000D02*
G75*
G02*
X97700000Y-58855000I-50000J0D01*
G01*
X97700000Y-58855000D02*
G75*
G02*
X97800000Y-58855000I50000J0D01*
G01*
X97850000Y-56055000D02*
G75*
G02*
X97750000Y-56055000I-50000J0D01*
G01*
X97750000Y-56055000D02*
G75*
G02*
X97850000Y-56055000I50000J0D01*
G01*
X97900000Y-59155000D02*
G75*
G02*
X97800000Y-59155000I-50000J0D01*
G01*
X97800000Y-59155000D02*
G75*
G02*
X97900000Y-59155000I50000J0D01*
G01*
X97950000Y-56355000D02*
G75*
G02*
X97850000Y-56355000I-50000J0D01*
G01*
X97850000Y-56355000D02*
G75*
G02*
X97950000Y-56355000I50000J0D01*
G01*
X97960000Y-53555000D02*
G75*
G02*
X97860000Y-53555000I-50000J0D01*
G01*
X97860000Y-53555000D02*
G75*
G02*
X97960000Y-53555000I50000J0D01*
G01*
X100250000Y-56055000D02*
G75*
G02*
X100150000Y-56055000I-50000J0D01*
G01*
X100150000Y-56055000D02*
G75*
G02*
X100250000Y-56055000I50000J0D01*
G01*
X100250000Y-58855000D02*
G75*
G02*
X100150000Y-58855000I-50000J0D01*
G01*
X100150000Y-58855000D02*
G75*
G02*
X100250000Y-58855000I50000J0D01*
G01*
X100750000Y-60705000D02*
G75*
G02*
X100650000Y-60705000I-50000J0D01*
G01*
X100650000Y-60705000D02*
G75*
G02*
X100750000Y-60705000I50000J0D01*
G01*
%TO.C,U10*%
X97250000Y-60700000D02*
G75*
G02*
X97150000Y-60700000I-50000J0D01*
G01*
X97150000Y-60700000D02*
G75*
G02*
X97250000Y-60700000I50000J0D01*
G01*
X96750000Y-58850000D02*
G75*
G02*
X96650000Y-58850000I-50000J0D01*
G01*
X96650000Y-58850000D02*
G75*
G02*
X96750000Y-58850000I50000J0D01*
G01*
X96750000Y-56050000D02*
G75*
G02*
X96650000Y-56050000I-50000J0D01*
G01*
X96650000Y-56050000D02*
G75*
G02*
X96750000Y-56050000I50000J0D01*
G01*
X94460000Y-53550000D02*
G75*
G02*
X94360000Y-53550000I-50000J0D01*
G01*
X94360000Y-53550000D02*
G75*
G02*
X94460000Y-53550000I50000J0D01*
G01*
X94450000Y-56350000D02*
G75*
G02*
X94350000Y-56350000I-50000J0D01*
G01*
X94350000Y-56350000D02*
G75*
G02*
X94450000Y-56350000I50000J0D01*
G01*
X94400000Y-59150000D02*
G75*
G02*
X94300000Y-59150000I-50000J0D01*
G01*
X94300000Y-59150000D02*
G75*
G02*
X94400000Y-59150000I50000J0D01*
G01*
X94350000Y-56050000D02*
G75*
G02*
X94250000Y-56050000I-50000J0D01*
G01*
X94250000Y-56050000D02*
G75*
G02*
X94350000Y-56050000I50000J0D01*
G01*
X94300000Y-58850000D02*
G75*
G02*
X94200000Y-58850000I-50000J0D01*
G01*
X94200000Y-58850000D02*
G75*
G02*
X94300000Y-58850000I50000J0D01*
G01*
%TO.C,U9*%
X90800000Y-58822500D02*
G75*
G02*
X90700000Y-58822500I-50000J0D01*
G01*
X90700000Y-58822500D02*
G75*
G02*
X90800000Y-58822500I50000J0D01*
G01*
X90850000Y-56022500D02*
G75*
G02*
X90750000Y-56022500I-50000J0D01*
G01*
X90750000Y-56022500D02*
G75*
G02*
X90850000Y-56022500I50000J0D01*
G01*
X90900000Y-59122500D02*
G75*
G02*
X90800000Y-59122500I-50000J0D01*
G01*
X90800000Y-59122500D02*
G75*
G02*
X90900000Y-59122500I50000J0D01*
G01*
X90950000Y-56322500D02*
G75*
G02*
X90850000Y-56322500I-50000J0D01*
G01*
X90850000Y-56322500D02*
G75*
G02*
X90950000Y-56322500I50000J0D01*
G01*
X90960000Y-53522500D02*
G75*
G02*
X90860000Y-53522500I-50000J0D01*
G01*
X90860000Y-53522500D02*
G75*
G02*
X90960000Y-53522500I50000J0D01*
G01*
X93250000Y-56022500D02*
G75*
G02*
X93150000Y-56022500I-50000J0D01*
G01*
X93150000Y-56022500D02*
G75*
G02*
X93250000Y-56022500I50000J0D01*
G01*
X93250000Y-58822500D02*
G75*
G02*
X93150000Y-58822500I-50000J0D01*
G01*
X93150000Y-58822500D02*
G75*
G02*
X93250000Y-58822500I50000J0D01*
G01*
X93750000Y-60672500D02*
G75*
G02*
X93650000Y-60672500I-50000J0D01*
G01*
X93650000Y-60672500D02*
G75*
G02*
X93750000Y-60672500I50000J0D01*
G01*
%TO.C,U8*%
X87300000Y-58805000D02*
G75*
G02*
X87200000Y-58805000I-50000J0D01*
G01*
X87200000Y-58805000D02*
G75*
G02*
X87300000Y-58805000I50000J0D01*
G01*
X87350000Y-56005000D02*
G75*
G02*
X87250000Y-56005000I-50000J0D01*
G01*
X87250000Y-56005000D02*
G75*
G02*
X87350000Y-56005000I50000J0D01*
G01*
X87400000Y-59105000D02*
G75*
G02*
X87300000Y-59105000I-50000J0D01*
G01*
X87300000Y-59105000D02*
G75*
G02*
X87400000Y-59105000I50000J0D01*
G01*
X87450000Y-56305000D02*
G75*
G02*
X87350000Y-56305000I-50000J0D01*
G01*
X87350000Y-56305000D02*
G75*
G02*
X87450000Y-56305000I50000J0D01*
G01*
X87460000Y-53505000D02*
G75*
G02*
X87360000Y-53505000I-50000J0D01*
G01*
X87360000Y-53505000D02*
G75*
G02*
X87460000Y-53505000I50000J0D01*
G01*
X89750000Y-56005000D02*
G75*
G02*
X89650000Y-56005000I-50000J0D01*
G01*
X89650000Y-56005000D02*
G75*
G02*
X89750000Y-56005000I50000J0D01*
G01*
X89750000Y-58805000D02*
G75*
G02*
X89650000Y-58805000I-50000J0D01*
G01*
X89650000Y-58805000D02*
G75*
G02*
X89750000Y-58805000I50000J0D01*
G01*
X90250000Y-60655000D02*
G75*
G02*
X90150000Y-60655000I-50000J0D01*
G01*
X90150000Y-60655000D02*
G75*
G02*
X90250000Y-60655000I50000J0D01*
G01*
%TO.C,U3*%
X69750000Y-58815000D02*
G75*
G02*
X69650000Y-58815000I-50000J0D01*
G01*
X69650000Y-58815000D02*
G75*
G02*
X69750000Y-58815000I50000J0D01*
G01*
X69800000Y-56015000D02*
G75*
G02*
X69700000Y-56015000I-50000J0D01*
G01*
X69700000Y-56015000D02*
G75*
G02*
X69800000Y-56015000I50000J0D01*
G01*
X69850000Y-59115000D02*
G75*
G02*
X69750000Y-59115000I-50000J0D01*
G01*
X69750000Y-59115000D02*
G75*
G02*
X69850000Y-59115000I50000J0D01*
G01*
X69900000Y-56315000D02*
G75*
G02*
X69800000Y-56315000I-50000J0D01*
G01*
X69800000Y-56315000D02*
G75*
G02*
X69900000Y-56315000I50000J0D01*
G01*
X69910000Y-53515000D02*
G75*
G02*
X69810000Y-53515000I-50000J0D01*
G01*
X69810000Y-53515000D02*
G75*
G02*
X69910000Y-53515000I50000J0D01*
G01*
X72200000Y-56015000D02*
G75*
G02*
X72100000Y-56015000I-50000J0D01*
G01*
X72100000Y-56015000D02*
G75*
G02*
X72200000Y-56015000I50000J0D01*
G01*
X72200000Y-58815000D02*
G75*
G02*
X72100000Y-58815000I-50000J0D01*
G01*
X72100000Y-58815000D02*
G75*
G02*
X72200000Y-58815000I50000J0D01*
G01*
X72700000Y-60665000D02*
G75*
G02*
X72600000Y-60665000I-50000J0D01*
G01*
X72600000Y-60665000D02*
G75*
G02*
X72700000Y-60665000I50000J0D01*
G01*
%TO.C,U2*%
X66250000Y-58805000D02*
G75*
G02*
X66150000Y-58805000I-50000J0D01*
G01*
X66150000Y-58805000D02*
G75*
G02*
X66250000Y-58805000I50000J0D01*
G01*
X66300000Y-56005000D02*
G75*
G02*
X66200000Y-56005000I-50000J0D01*
G01*
X66200000Y-56005000D02*
G75*
G02*
X66300000Y-56005000I50000J0D01*
G01*
X66350000Y-59105000D02*
G75*
G02*
X66250000Y-59105000I-50000J0D01*
G01*
X66250000Y-59105000D02*
G75*
G02*
X66350000Y-59105000I50000J0D01*
G01*
X66400000Y-56305000D02*
G75*
G02*
X66300000Y-56305000I-50000J0D01*
G01*
X66300000Y-56305000D02*
G75*
G02*
X66400000Y-56305000I50000J0D01*
G01*
X66410000Y-53505000D02*
G75*
G02*
X66310000Y-53505000I-50000J0D01*
G01*
X66310000Y-53505000D02*
G75*
G02*
X66410000Y-53505000I50000J0D01*
G01*
X68700000Y-56005000D02*
G75*
G02*
X68600000Y-56005000I-50000J0D01*
G01*
X68600000Y-56005000D02*
G75*
G02*
X68700000Y-56005000I50000J0D01*
G01*
X68700000Y-58805000D02*
G75*
G02*
X68600000Y-58805000I-50000J0D01*
G01*
X68600000Y-58805000D02*
G75*
G02*
X68700000Y-58805000I50000J0D01*
G01*
X69200000Y-60655000D02*
G75*
G02*
X69100000Y-60655000I-50000J0D01*
G01*
X69100000Y-60655000D02*
G75*
G02*
X69200000Y-60655000I50000J0D01*
G01*
%TO.C,U1*%
X62750000Y-58800000D02*
G75*
G02*
X62650000Y-58800000I-50000J0D01*
G01*
X62650000Y-58800000D02*
G75*
G02*
X62750000Y-58800000I50000J0D01*
G01*
X62800000Y-56000000D02*
G75*
G02*
X62700000Y-56000000I-50000J0D01*
G01*
X62700000Y-56000000D02*
G75*
G02*
X62800000Y-56000000I50000J0D01*
G01*
X62850000Y-59100000D02*
G75*
G02*
X62750000Y-59100000I-50000J0D01*
G01*
X62750000Y-59100000D02*
G75*
G02*
X62850000Y-59100000I50000J0D01*
G01*
X62900000Y-56300000D02*
G75*
G02*
X62800000Y-56300000I-50000J0D01*
G01*
X62800000Y-56300000D02*
G75*
G02*
X62900000Y-56300000I50000J0D01*
G01*
X62910000Y-53500000D02*
G75*
G02*
X62810000Y-53500000I-50000J0D01*
G01*
X62810000Y-53500000D02*
G75*
G02*
X62910000Y-53500000I50000J0D01*
G01*
X65200000Y-56000000D02*
G75*
G02*
X65100000Y-56000000I-50000J0D01*
G01*
X65100000Y-56000000D02*
G75*
G02*
X65200000Y-56000000I50000J0D01*
G01*
X65200000Y-58800000D02*
G75*
G02*
X65100000Y-58800000I-50000J0D01*
G01*
X65100000Y-58800000D02*
G75*
G02*
X65200000Y-58800000I50000J0D01*
G01*
X65700000Y-60650000D02*
G75*
G02*
X65600000Y-60650000I-50000J0D01*
G01*
X65600000Y-60650000D02*
G75*
G02*
X65700000Y-60650000I50000J0D01*
G01*
%TO.C,U5*%
X76770000Y-58800000D02*
G75*
G02*
X76670000Y-58800000I-50000J0D01*
G01*
X76670000Y-58800000D02*
G75*
G02*
X76770000Y-58800000I50000J0D01*
G01*
X76820000Y-56000000D02*
G75*
G02*
X76720000Y-56000000I-50000J0D01*
G01*
X76720000Y-56000000D02*
G75*
G02*
X76820000Y-56000000I50000J0D01*
G01*
X76870000Y-59100000D02*
G75*
G02*
X76770000Y-59100000I-50000J0D01*
G01*
X76770000Y-59100000D02*
G75*
G02*
X76870000Y-59100000I50000J0D01*
G01*
X76920000Y-56300000D02*
G75*
G02*
X76820000Y-56300000I-50000J0D01*
G01*
X76820000Y-56300000D02*
G75*
G02*
X76920000Y-56300000I50000J0D01*
G01*
X76930000Y-53500000D02*
G75*
G02*
X76830000Y-53500000I-50000J0D01*
G01*
X76830000Y-53500000D02*
G75*
G02*
X76930000Y-53500000I50000J0D01*
G01*
X79220000Y-56000000D02*
G75*
G02*
X79120000Y-56000000I-50000J0D01*
G01*
X79120000Y-56000000D02*
G75*
G02*
X79220000Y-56000000I50000J0D01*
G01*
X79220000Y-58800000D02*
G75*
G02*
X79120000Y-58800000I-50000J0D01*
G01*
X79120000Y-58800000D02*
G75*
G02*
X79220000Y-58800000I50000J0D01*
G01*
X79720000Y-60650000D02*
G75*
G02*
X79620000Y-60650000I-50000J0D01*
G01*
X79620000Y-60650000D02*
G75*
G02*
X79720000Y-60650000I50000J0D01*
G01*
%TO.C,U7*%
X83800000Y-58800000D02*
G75*
G02*
X83700000Y-58800000I-50000J0D01*
G01*
X83700000Y-58800000D02*
G75*
G02*
X83800000Y-58800000I50000J0D01*
G01*
X83850000Y-56000000D02*
G75*
G02*
X83750000Y-56000000I-50000J0D01*
G01*
X83750000Y-56000000D02*
G75*
G02*
X83850000Y-56000000I50000J0D01*
G01*
X83900000Y-59100000D02*
G75*
G02*
X83800000Y-59100000I-50000J0D01*
G01*
X83800000Y-59100000D02*
G75*
G02*
X83900000Y-59100000I50000J0D01*
G01*
X83950000Y-56300000D02*
G75*
G02*
X83850000Y-56300000I-50000J0D01*
G01*
X83850000Y-56300000D02*
G75*
G02*
X83950000Y-56300000I50000J0D01*
G01*
X83960000Y-53500000D02*
G75*
G02*
X83860000Y-53500000I-50000J0D01*
G01*
X83860000Y-53500000D02*
G75*
G02*
X83960000Y-53500000I50000J0D01*
G01*
X86250000Y-56000000D02*
G75*
G02*
X86150000Y-56000000I-50000J0D01*
G01*
X86150000Y-56000000D02*
G75*
G02*
X86250000Y-56000000I50000J0D01*
G01*
X86250000Y-58800000D02*
G75*
G02*
X86150000Y-58800000I-50000J0D01*
G01*
X86150000Y-58800000D02*
G75*
G02*
X86250000Y-58800000I50000J0D01*
G01*
X86750000Y-60650000D02*
G75*
G02*
X86650000Y-60650000I-50000J0D01*
G01*
X86650000Y-60650000D02*
G75*
G02*
X86750000Y-60650000I50000J0D01*
G01*
%TO.C,U4*%
X73250000Y-58805000D02*
G75*
G02*
X73150000Y-58805000I-50000J0D01*
G01*
X73150000Y-58805000D02*
G75*
G02*
X73250000Y-58805000I50000J0D01*
G01*
X73300000Y-56005000D02*
G75*
G02*
X73200000Y-56005000I-50000J0D01*
G01*
X73200000Y-56005000D02*
G75*
G02*
X73300000Y-56005000I50000J0D01*
G01*
X73350000Y-59105000D02*
G75*
G02*
X73250000Y-59105000I-50000J0D01*
G01*
X73250000Y-59105000D02*
G75*
G02*
X73350000Y-59105000I50000J0D01*
G01*
X73400000Y-56305000D02*
G75*
G02*
X73300000Y-56305000I-50000J0D01*
G01*
X73300000Y-56305000D02*
G75*
G02*
X73400000Y-56305000I50000J0D01*
G01*
X73410000Y-53505000D02*
G75*
G02*
X73310000Y-53505000I-50000J0D01*
G01*
X73310000Y-53505000D02*
G75*
G02*
X73410000Y-53505000I50000J0D01*
G01*
X75700000Y-56005000D02*
G75*
G02*
X75600000Y-56005000I-50000J0D01*
G01*
X75600000Y-56005000D02*
G75*
G02*
X75700000Y-56005000I50000J0D01*
G01*
X75700000Y-58805000D02*
G75*
G02*
X75600000Y-58805000I-50000J0D01*
G01*
X75600000Y-58805000D02*
G75*
G02*
X75700000Y-58805000I50000J0D01*
G01*
X76200000Y-60655000D02*
G75*
G02*
X76100000Y-60655000I-50000J0D01*
G01*
X76100000Y-60655000D02*
G75*
G02*
X76200000Y-60655000I50000J0D01*
G01*
%TO.C,U6*%
X80300000Y-58805000D02*
G75*
G02*
X80200000Y-58805000I-50000J0D01*
G01*
X80200000Y-58805000D02*
G75*
G02*
X80300000Y-58805000I50000J0D01*
G01*
X80350000Y-56005000D02*
G75*
G02*
X80250000Y-56005000I-50000J0D01*
G01*
X80250000Y-56005000D02*
G75*
G02*
X80350000Y-56005000I50000J0D01*
G01*
X80400000Y-59105000D02*
G75*
G02*
X80300000Y-59105000I-50000J0D01*
G01*
X80300000Y-59105000D02*
G75*
G02*
X80400000Y-59105000I50000J0D01*
G01*
X80450000Y-56305000D02*
G75*
G02*
X80350000Y-56305000I-50000J0D01*
G01*
X80350000Y-56305000D02*
G75*
G02*
X80450000Y-56305000I50000J0D01*
G01*
X80460000Y-53505000D02*
G75*
G02*
X80360000Y-53505000I-50000J0D01*
G01*
X80360000Y-53505000D02*
G75*
G02*
X80460000Y-53505000I50000J0D01*
G01*
X82750000Y-56005000D02*
G75*
G02*
X82650000Y-56005000I-50000J0D01*
G01*
X82650000Y-56005000D02*
G75*
G02*
X82750000Y-56005000I50000J0D01*
G01*
X82750000Y-58805000D02*
G75*
G02*
X82650000Y-58805000I-50000J0D01*
G01*
X82650000Y-58805000D02*
G75*
G02*
X82750000Y-58805000I50000J0D01*
G01*
X83250000Y-60655000D02*
G75*
G02*
X83150000Y-60655000I-50000J0D01*
G01*
X83150000Y-60655000D02*
G75*
G02*
X83250000Y-60655000I50000J0D01*
G01*
D12*
%TO.C,J1*%
X71000000Y-64510000D02*
X71000000Y-63400000D01*
X71760000Y-64510000D02*
X71000000Y-64510000D01*
X72520000Y-64510000D02*
X100395000Y-64510000D01*
X72520000Y-64510000D02*
X72520000Y-63963471D01*
X100395000Y-64510000D02*
X100395000Y-63707530D01*
X100395000Y-63092470D02*
X100395000Y-62290000D01*
X72520000Y-62836529D02*
X72520000Y-62290000D01*
X72520000Y-62290000D02*
X100395000Y-62290000D01*
%TD*%
M02*
