%TF.GenerationSoftware,KiCad,Pcbnew,8.0.8-2.fc41*%
%TF.CreationDate,2025-02-01T06:38:30+00:00*%
%TF.ProjectId,small_led_a,736d616c-6c5f-46c6-9564-5f612e6b6963,rev?*%
%TF.SameCoordinates,Original*%
%TF.FileFunction,Copper,L2,Inr*%
%TF.FilePolarity,Positive*%
%FSLAX46Y46*%
G04 Gerber Fmt 4.6, Leading zero omitted, Abs format (unit mm)*
G04 Created by KiCad (PCBNEW 8.0.8-2.fc41) date 2025-02-01 06:38:30*
%MOMM*%
%LPD*%
G01*
G04 APERTURE LIST*
%TA.AperFunction,ComponentPad*%
%ADD10R,1.000000X1.000000*%
%TD*%
%TA.AperFunction,ComponentPad*%
%ADD11O,1.000000X1.000000*%
%TD*%
%TA.AperFunction,ViaPad*%
%ADD12C,0.600000*%
%TD*%
%TA.AperFunction,Conductor*%
%ADD13C,0.250000*%
%TD*%
G04 APERTURE END LIST*
D10*
%TO.N,a*%
%TO.C,J1*%
X71760000Y-63400000D03*
D11*
%TO.N,b*%
X73030000Y-63400000D03*
%TO.N,c*%
X74300000Y-63400000D03*
%TO.N,d*%
X75570000Y-63400000D03*
%TO.N,e*%
X76840000Y-63400000D03*
%TO.N,f*%
X78110000Y-63400000D03*
%TO.N,g*%
X79380000Y-63400000D03*
%TO.N,h*%
X80650000Y-63400000D03*
%TO.N,k1*%
X81920000Y-63400000D03*
%TO.N,k2*%
X83190000Y-63400000D03*
%TO.N,k3*%
X84460000Y-63400000D03*
%TO.N,k4*%
X85730000Y-63400000D03*
%TO.N,k5*%
X87000000Y-63400000D03*
%TO.N,k6*%
X88270000Y-63400000D03*
%TO.N,k7*%
X89540000Y-63400000D03*
%TO.N,k8*%
X90810000Y-63400000D03*
%TO.N,k9*%
X92080000Y-63400000D03*
%TO.N,k10*%
X93350000Y-63400000D03*
%TO.N,k11*%
X94620000Y-63400000D03*
%TO.N,k12*%
X95890000Y-63400000D03*
%TO.N,k13*%
X97160000Y-63400000D03*
%TO.N,k14*%
X98430000Y-63400000D03*
%TO.N,k15*%
X99700000Y-63400000D03*
%TD*%
D12*
%TO.N,a*%
X67950000Y-52800000D03*
%TO.N,b*%
X71000000Y-61050000D03*
%TO.N,k4*%
X74050000Y-61850000D03*
%TO.N,e*%
X75850000Y-61250000D03*
%TO.N,f*%
X78050000Y-61300000D03*
%TO.N,g*%
X79250000Y-61450000D03*
%TO.N,k1*%
X62600000Y-63650000D03*
%TO.N,k2*%
X82550000Y-62150000D03*
%TO.N,k5*%
X86293058Y-62306942D03*
%TO.N,k3*%
X69150000Y-64200000D03*
%TO.N,k4*%
X76300000Y-62300000D03*
X81850000Y-61200000D03*
%TO.N,k15*%
X114900000Y-58250000D03*
X114450000Y-63300000D03*
%TO.N,k4*%
X73450000Y-52800000D03*
%TO.N,k5*%
X76900000Y-52950000D03*
%TO.N,k6*%
X80500000Y-52900000D03*
%TO.N,k7*%
X84050000Y-52800000D03*
%TO.N,k8*%
X87400000Y-52800000D03*
%TO.N,k9*%
X90950000Y-52850000D03*
%TO.N,k10*%
X94550000Y-52800000D03*
%TO.N,k11*%
X98100000Y-52850000D03*
%TO.N,k12*%
X101500000Y-52984753D03*
%TO.N,k13*%
X105000000Y-52925000D03*
%TO.N,k14*%
X108500000Y-52900000D03*
%TO.N,k15*%
X111900000Y-52900000D03*
%TO.N,k5*%
X76750000Y-56275352D03*
X77400000Y-58450000D03*
%TO.N,k6*%
X80200000Y-56218660D03*
X80950000Y-58450000D03*
%TO.N,k7*%
X83850000Y-56213261D03*
X84250000Y-58399999D03*
%TO.N,k8*%
X87250000Y-56166115D03*
X87900000Y-58450000D03*
%TO.N,k9*%
X90700000Y-56200000D03*
X91550000Y-58399999D03*
%TO.N,k10*%
X94250000Y-56150000D03*
X94900000Y-58449999D03*
%TO.N,k11*%
X97850000Y-56252394D03*
X98350000Y-58424999D03*
%TO.N,k12*%
X101400000Y-56234115D03*
X101750000Y-58442500D03*
%TO.N,k13*%
X104900000Y-56313293D03*
X105400000Y-58449999D03*
%TO.N,k14*%
X108350000Y-56313293D03*
X108950000Y-58450000D03*
%TO.N,k15*%
X111750000Y-56250000D03*
X112300000Y-58450000D03*
%TO.N,k4*%
X73400000Y-58600000D03*
X73350000Y-56435000D03*
%TO.N,h*%
X80650000Y-61800000D03*
%TO.N,k3*%
X72000000Y-58501132D03*
X72450000Y-56250000D03*
X70200000Y-58449999D03*
X69750000Y-56400000D03*
X69700000Y-52925000D03*
%TO.N,k2*%
X66263866Y-58449999D03*
X66158949Y-52925000D03*
X66389216Y-56356506D03*
X68950000Y-56250000D03*
%TO.N,k1*%
X61950000Y-58200000D03*
X62100000Y-53500000D03*
X62500000Y-56250000D03*
X65600000Y-56225581D03*
%TO.N,h*%
X66550000Y-60450000D03*
X70050000Y-60425000D03*
X73450000Y-60425000D03*
X77100000Y-60525000D03*
X80500000Y-60575000D03*
X84000000Y-60575000D03*
X87600000Y-60575000D03*
X91050000Y-60625000D03*
X94550000Y-60575000D03*
X98100000Y-60575000D03*
X101500000Y-60650000D03*
X105100000Y-60700000D03*
X108500000Y-60575000D03*
X112150000Y-60800000D03*
X115450000Y-60800000D03*
%TO.N,d*%
X113400000Y-59950000D03*
X109900000Y-59950000D03*
X106400000Y-59950000D03*
X102950000Y-59900000D03*
X99450000Y-59950000D03*
X95950000Y-59950000D03*
X92400000Y-59950000D03*
X88950000Y-60000000D03*
X85400000Y-59950000D03*
X81900000Y-59950000D03*
X78350000Y-59950000D03*
X74900000Y-59900000D03*
X71450000Y-59800000D03*
X67850000Y-59800000D03*
X64250000Y-59800000D03*
%TO.N,c*%
X64366549Y-57824999D03*
X67868326Y-57825000D03*
X71372061Y-57824999D03*
X74868327Y-57825000D03*
X78386550Y-57825000D03*
X81918326Y-57825000D03*
X85437119Y-57774999D03*
X88918327Y-57825000D03*
X92448537Y-57774999D03*
X95937119Y-57824999D03*
X99452667Y-57799999D03*
X102900000Y-57817500D03*
X106448537Y-57824999D03*
X109948538Y-57825000D03*
X113450000Y-57300000D03*
%TO.N,e*%
X112450000Y-57200000D03*
X108950000Y-57200000D03*
X105500000Y-57200000D03*
X101995554Y-57192500D03*
X98450000Y-57175000D03*
X94950000Y-57200000D03*
X91500000Y-57150000D03*
X88050000Y-57200000D03*
X84500000Y-57150000D03*
X80950000Y-57200000D03*
X77450000Y-57200000D03*
X73900000Y-57200000D03*
X70450000Y-57200000D03*
X66900000Y-57200000D03*
X63400000Y-57200000D03*
%TO.N,g*%
X113382369Y-55678134D03*
X109880001Y-55599122D03*
X106383466Y-55688293D03*
X102880001Y-55599122D03*
X99380001Y-55609115D03*
X95880415Y-55627394D03*
X92380001Y-55522457D03*
X88880001Y-55526222D03*
X85380001Y-55541115D03*
X81880689Y-55588261D03*
X78351344Y-55593660D03*
X74837863Y-55650352D03*
X71330189Y-55585770D03*
X67831477Y-55600429D03*
X64331901Y-55600581D03*
%TO.N,b*%
X114280000Y-53650000D03*
X110800000Y-53600000D03*
X107300000Y-53550000D03*
X103800000Y-53550000D03*
X100280000Y-53609753D03*
X96850000Y-53550000D03*
X93300000Y-53550000D03*
X89800000Y-53550000D03*
X86280000Y-53550000D03*
X82850000Y-53550000D03*
X79300000Y-53600000D03*
X75750000Y-53600000D03*
X72450000Y-53550000D03*
X68850000Y-53550000D03*
X65400000Y-53550000D03*
%TO.N,f*%
X113000000Y-54350000D03*
X109509979Y-54304795D03*
X106000000Y-54300000D03*
X102460173Y-54322511D03*
X99000000Y-54300000D03*
X95500000Y-54300000D03*
X92021191Y-54261781D03*
X88474484Y-54246866D03*
X84996974Y-54227753D03*
X81545672Y-54258160D03*
X78016987Y-54253855D03*
X74450000Y-54400000D03*
X70941949Y-54246053D03*
X67424312Y-54246968D03*
X63850000Y-54400000D03*
%TD*%
D13*
%TO.N,b*%
X73030000Y-63080000D02*
X71000000Y-61050000D01*
X73030000Y-63400000D02*
X73030000Y-63080000D01*
%TO.N,c*%
X74300000Y-63400000D02*
X74300000Y-62983884D01*
X74300000Y-62983884D02*
X72075000Y-60758884D01*
X72075000Y-60758884D02*
X72075000Y-59541116D01*
X72075000Y-59541116D02*
X71372061Y-58838177D01*
X71372061Y-58838177D02*
X71372061Y-57824999D01*
%TO.N,k4*%
X74075000Y-61825000D02*
X74050000Y-61850000D01*
X74075000Y-60075000D02*
X74075000Y-61825000D01*
X74000000Y-60000000D02*
X74075000Y-60075000D01*
%TO.N,d*%
X75570000Y-63400000D02*
X74900000Y-62730000D01*
X74900000Y-62730000D02*
X74900000Y-59900000D01*
%TO.N,e*%
X76200000Y-61250000D02*
X75850000Y-61250000D01*
X77339999Y-62389999D02*
X76200000Y-61250000D01*
X77339999Y-62900001D02*
X77339999Y-62389999D01*
X76840000Y-63400000D02*
X77339999Y-62900001D01*
%TO.N,h*%
X80650000Y-61800000D02*
X80650000Y-60725000D01*
X80650000Y-60725000D02*
X80500000Y-60575000D01*
%TO.N,g*%
X79250000Y-61450000D02*
X79250000Y-56492316D01*
X79250000Y-56492316D02*
X78351344Y-55593660D01*
%TO.N,k2*%
X82550000Y-62150000D02*
X82275000Y-62425000D01*
X82275000Y-62425000D02*
X78075000Y-62425000D01*
X75650000Y-60000000D02*
X75650000Y-54633884D01*
X78075000Y-62425000D02*
X75650000Y-60000000D01*
X74075000Y-52400000D02*
X73850000Y-52175000D01*
X75650000Y-54633884D02*
X74075000Y-53058884D01*
X74075000Y-53058884D02*
X74075000Y-52400000D01*
X73850000Y-52175000D02*
X66908949Y-52175000D01*
X66908949Y-52175000D02*
X66158949Y-52925000D01*
%TO.N,k3*%
X69150000Y-64200000D02*
X69150000Y-59499999D01*
X69150000Y-59499999D02*
X70200000Y-58449999D01*
%TO.N,k4*%
X74000000Y-60000000D02*
X74000000Y-59200000D01*
X74000000Y-59200000D02*
X73400000Y-58600000D01*
%TO.N,k15*%
X114450000Y-58700000D02*
X114900000Y-58250000D01*
X114450000Y-63300000D02*
X114450000Y-58700000D01*
%TO.N,k3*%
X69750000Y-56400000D02*
X69750000Y-52975000D01*
X69750000Y-52975000D02*
X69700000Y-52925000D01*
%TO.N,k4*%
X73350000Y-52900000D02*
X73450000Y-52800000D01*
X73350000Y-56435000D02*
X73350000Y-52900000D01*
%TO.N,k5*%
X76750000Y-53100000D02*
X76900000Y-52950000D01*
X76750000Y-56275352D02*
X76750000Y-53100000D01*
%TO.N,k6*%
X80200000Y-53200000D02*
X80500000Y-52900000D01*
X80200000Y-56218660D02*
X80200000Y-53200000D01*
%TO.N,k7*%
X83850000Y-53000000D02*
X84050000Y-52800000D01*
X83850000Y-56213261D02*
X83850000Y-53000000D01*
%TO.N,k8*%
X87250000Y-52950000D02*
X87400000Y-52800000D01*
X87250000Y-56166115D02*
X87250000Y-52950000D01*
%TO.N,k9*%
X90700000Y-53100000D02*
X90950000Y-52850000D01*
X90700000Y-56200000D02*
X90700000Y-53100000D01*
%TO.N,k10*%
X94550000Y-55850000D02*
X94550000Y-52800000D01*
X94250000Y-56150000D02*
X94550000Y-55850000D01*
%TO.N,k11*%
X97850000Y-53100000D02*
X98100000Y-52850000D01*
X97850000Y-56252394D02*
X97850000Y-53100000D01*
%TO.N,k12*%
X101400000Y-53084753D02*
X101500000Y-52984753D01*
X101400000Y-56234115D02*
X101400000Y-53084753D01*
%TO.N,k13*%
X104900000Y-53025000D02*
X105000000Y-52925000D01*
X104900000Y-56313293D02*
X104900000Y-53025000D01*
%TO.N,k14*%
X108350000Y-53050000D02*
X108500000Y-52900000D01*
X108350000Y-56313293D02*
X108350000Y-53050000D01*
%TO.N,k15*%
X111750000Y-53050000D02*
X111900000Y-52900000D01*
X111750000Y-56250000D02*
X111750000Y-53050000D01*
%TO.N,k5*%
X76750000Y-57800000D02*
X76750000Y-56275352D01*
X77400000Y-58450000D02*
X76750000Y-57800000D01*
%TO.N,k6*%
X80200000Y-57700000D02*
X80200000Y-56218660D01*
X80950000Y-58450000D02*
X80200000Y-57700000D01*
%TO.N,k7*%
X83850000Y-57999999D02*
X83850000Y-56213261D01*
X84250000Y-58399999D02*
X83850000Y-57999999D01*
%TO.N,k8*%
X87250000Y-57800000D02*
X87250000Y-56166115D01*
X87900000Y-58450000D02*
X87250000Y-57800000D01*
%TO.N,k9*%
X90700000Y-57549999D02*
X90700000Y-56200000D01*
X91550000Y-58399999D02*
X90700000Y-57549999D01*
%TO.N,k10*%
X94325000Y-56225000D02*
X94250000Y-56150000D01*
X94325000Y-57874999D02*
X94325000Y-56225000D01*
X94900000Y-58449999D02*
X94325000Y-57874999D01*
%TO.N,k11*%
X97825000Y-56277394D02*
X97850000Y-56252394D01*
X97825000Y-57899999D02*
X97825000Y-56277394D01*
X98350000Y-58424999D02*
X97825000Y-57899999D01*
%TO.N,k12*%
X101370554Y-56263561D02*
X101400000Y-56234115D01*
X101370554Y-58063054D02*
X101370554Y-56263561D01*
X101750000Y-58442500D02*
X101370554Y-58063054D01*
%TO.N,k13*%
X104875000Y-56338293D02*
X104900000Y-56313293D01*
X104875000Y-57924999D02*
X104875000Y-56338293D01*
X105400000Y-58449999D02*
X104875000Y-57924999D01*
%TO.N,k14*%
X108325000Y-56338293D02*
X108350000Y-56313293D01*
X108325000Y-57825000D02*
X108325000Y-56338293D01*
X108950000Y-58450000D02*
X108325000Y-57825000D01*
%TO.N,k15*%
X111750000Y-57900000D02*
X111750000Y-56250000D01*
X112300000Y-58450000D02*
X111750000Y-57900000D01*
%TO.N,k4*%
X73275000Y-58475000D02*
X73400000Y-58600000D01*
X73275000Y-56510000D02*
X73275000Y-58475000D01*
X73350000Y-56435000D02*
X73275000Y-56510000D01*
%TO.N,k3*%
X72450000Y-56250000D02*
X72450000Y-58051132D01*
X72450000Y-58051132D02*
X72000000Y-58501132D01*
X69750000Y-57999999D02*
X70200000Y-58449999D01*
X69750000Y-56400000D02*
X69750000Y-57999999D01*
%TO.N,k2*%
X66389216Y-56356506D02*
X66263866Y-56481856D01*
X66263866Y-56481856D02*
X66263866Y-58449999D01*
X66158949Y-52925000D02*
X66225000Y-52991051D01*
X66225000Y-52991051D02*
X66225000Y-56192290D01*
X66225000Y-56192290D02*
X66389216Y-56356506D01*
%TD*%
M02*
